<svg width="18" height="18" viewBox="0 0 18 18" fill="none" xmlns="http://www.w3.org/2000/svg">
<g clip-path="url(#clip0_8430_17320)">
<path d="M9.00003 0C4.03729 0 0 4.03724 0 9.00033C0 13.9631 4.03723 18.0001 9.00003 18.0001C13.963 18.0001 18 13.9631 18 9.00033C18 4.03724 13.963 0 9.00003 0ZM3.22071 15.0413C1.62815 13.5172 0.633262 11.3732 0.633262 9.00033C0.633262 8.95023 0.636069 8.90138 0.636965 8.85224L2.96741 9.65467L4.598 13.858L3.22071 15.0413ZM5.12862 2.69547L9.36004 1.17307L12.3892 3.9989L9.90009 7.5626L5.2696 6.68261L5.12862 2.69547ZM14.5883 15.2203C14.4132 15.378 14.2314 15.5279 14.0441 15.6705L10.5655 17.1565L8.28699 14.7818L11.2445 11.4532L15.1956 11.9393L14.5883 15.2203ZM15.7026 3.99735C16.7477 5.39375 17.3674 7.12592 17.3674 9.00027C17.3674 9.05037 17.3643 9.10017 17.3634 9.14991L16.8919 9.0306L15.4689 5.01755L15.7026 3.99735Z" fill="white"/>
</g>
<defs>
<clipPath id="clip0_8430_17320">
<rect width="18" height="18" fill="white"/>
</clipPath>
</defs>
</svg>
