<svg width="18" height="18" viewBox="0 0 18 18" fill="none" xmlns="http://www.w3.org/2000/svg">
<g clip-path="url(#clip0_9217_32011)">
<path d="M10.2966 1.48351C10.2499 1.43704 10.1912 1.40445 10.127 1.38935C10.0629 1.37426 9.99579 1.37725 9.93324 1.39801C7.92569 2.01942 6.08934 3.09734 4.56811 4.54726C3.11718 6.08547 2.0375 7.93531 1.41174 9.95513C1.39285 10.0195 1.39148 10.0878 1.40776 10.153C1.42404 10.2181 1.45738 10.2777 1.50436 10.3256L7.67461 16.503C7.72329 16.5488 7.78323 16.5808 7.84831 16.5958C7.9134 16.6108 7.98131 16.6083 8.04511 16.5885C10.0649 15.9627 11.9148 14.8831 13.453 13.4321C14.9029 11.9109 15.9808 10.0746 16.6022 8.06701C16.623 8.00446 16.626 7.93738 16.6109 7.87323C16.5958 7.80907 16.5632 7.75037 16.5167 7.70363L10.2966 1.48351ZM11.9781 6.59926L11.0305 7.57538C10.9963 7.60719 10.9691 7.64581 10.9507 7.68876C10.9323 7.73171 10.923 7.77804 10.9236 7.82476C10.9229 7.87255 10.932 7.91998 10.9504 7.9641C10.9688 8.00822 10.9961 8.0481 11.0305 8.08126L11.2941 8.34488C11.3942 8.44508 11.4504 8.5809 11.4504 8.72251C11.4504 8.86412 11.3942 8.99994 11.2941 9.10013C11.245 9.15055 11.1863 9.19062 11.1214 9.21797C11.0566 9.24533 10.9869 9.25943 10.9165 9.25943C10.8461 9.25943 10.7764 9.24533 10.7116 9.21797C10.6467 9.19062 10.588 9.15055 10.5389 9.10013L10.2681 8.83651C10.2361 8.80243 10.1975 8.77527 10.1546 8.7567C10.1117 8.73813 10.0655 8.72855 10.0187 8.72855C9.972 8.72855 9.92576 8.73813 9.88286 8.7567C9.83997 8.77527 9.80134 8.80243 9.76936 8.83651L8.80749 9.79126C8.74176 9.85905 8.705 9.94977 8.705 10.0442C8.705 10.1386 8.74176 10.2293 8.80749 10.2971L9.07824 10.5679C9.17263 10.6692 9.22402 10.8032 9.22157 10.9416C9.21913 11.08 9.16305 11.2121 9.06514 11.31C8.96723 11.4079 8.83515 11.464 8.69671 11.4665C8.55827 11.4689 8.42428 11.4175 8.32299 11.3231L8.05224 11.0524C7.98444 10.9867 7.89372 10.9499 7.7993 10.9499C7.70487 10.9499 7.61416 10.9867 7.54636 11.0524L6.59874 11.9858C6.49854 12.0858 6.36272 12.142 6.22111 12.142C6.0795 12.142 5.94368 12.0858 5.84349 11.9858C5.79307 11.9366 5.753 11.8779 5.72565 11.8131C5.69829 11.7482 5.68419 11.6785 5.68419 11.6081C5.68419 11.5377 5.69829 11.4681 5.72565 11.4032C5.753 11.3384 5.79307 11.2796 5.84349 11.2305L6.79111 10.2758C6.8245 10.2426 6.851 10.2032 6.86909 10.1598C6.88718 10.1164 6.89649 10.0698 6.89649 10.0228C6.89649 9.97579 6.88718 9.92923 6.86909 9.88582C6.851 9.8424 6.8245 9.803 6.79111 9.76988L6.52749 9.50626C6.42741 9.40606 6.37121 9.27024 6.37121 9.12863C6.37121 8.98702 6.42741 8.8512 6.52749 8.75101C6.57661 8.70059 6.63533 8.66053 6.70019 8.63317C6.76504 8.60581 6.83472 8.59172 6.90511 8.59172C6.9755 8.59172 7.04518 8.60581 7.11003 8.63317C7.17489 8.66053 7.23361 8.70059 7.28274 8.75101L7.57486 9.00038C7.60798 9.03377 7.64738 9.06028 7.69079 9.07836C7.7342 9.09645 7.78077 9.10576 7.8278 9.10576C7.87483 9.10576 7.92139 9.09645 7.9648 9.07836C8.00822 9.06028 8.04762 9.03377 8.08074 9.00038L8.99986 8.05988C9.06481 7.99036 9.10053 7.89852 9.09961 7.80338C9.09485 7.71786 9.05944 7.63692 8.99986 7.57538L8.72911 7.31176C8.63029 7.20947 8.57506 7.0728 8.57506 6.93057C8.57506 6.78834 8.63029 6.65167 8.72911 6.54938C8.82931 6.44931 8.96513 6.3931 9.10674 6.3931C9.24834 6.3931 9.38416 6.44931 9.48436 6.54938L9.75511 6.82013C9.8217 6.88541 9.91124 6.92197 10.0045 6.92197C10.0977 6.92197 10.1873 6.88541 10.2539 6.82013L11.2086 5.86538C11.3088 5.76531 11.4446 5.7091 11.5862 5.7091C11.7278 5.7091 11.8637 5.76531 11.9639 5.86538C12.0611 5.96188 12.117 6.09245 12.1197 6.22943C12.1223 6.36642 12.0716 6.49906 11.9781 6.59926Z" fill="#393938"/>
<path d="M1.24096 11.5721C1.21868 11.5483 1.19029 11.531 1.15888 11.5222C1.12747 11.5134 1.09425 11.5134 1.06284 11.5222C1.03306 11.5331 1.00642 11.5511 0.985289 11.5747C0.964158 11.5983 0.949188 11.6268 0.941711 11.6576C0.552004 13.2195 0.398301 14.831 0.485711 16.4385C0.504551 16.7211 0.622993 16.9878 0.819982 17.1914C1.01697 17.3949 1.27974 17.5219 1.56159 17.55C3.16904 17.6374 4.78052 17.4837 6.34246 17.094C6.37326 17.0865 6.40173 17.0715 6.42535 17.0504C6.44896 17.0293 6.46699 17.0026 6.47784 16.9728C6.48586 16.9414 6.48548 16.9084 6.47672 16.8771C6.46797 16.8458 6.45115 16.8174 6.42796 16.7947L1.24096 11.5721Z" fill="#393938"/>
<path d="M17.55 1.56862C17.5206 1.28541 17.3923 1.02162 17.1877 0.823572C16.9832 0.62552 16.7154 0.505865 16.4314 0.485617C14.8199 0.393087 13.2037 0.541983 11.6362 0.927367C11.6049 0.933554 11.5758 0.948064 11.552 0.969376C11.5281 0.990687 11.5105 1.01801 11.5009 1.04849C11.4928 1.07995 11.4932 1.11296 11.502 1.14422C11.5107 1.17549 11.5275 1.2039 11.5507 1.22662L16.7805 6.44924C16.8017 6.47246 16.8288 6.4894 16.859 6.4982C16.8891 6.507 16.9212 6.50732 16.9515 6.49912C16.9826 6.48928 17.0107 6.47169 17.0331 6.44801C17.0555 6.42433 17.0716 6.39533 17.0797 6.36374C17.4719 4.79727 17.6303 3.18143 17.55 1.56862Z" fill="#393938"/>
</g>
<defs>
<clipPath id="clip0_9217_32011">
<rect width="18" height="18" fill="white"/>
</clipPath>
</defs>
</svg>
