<svg width="25" height="24" viewBox="0 0 25 24" fill="none" xmlns="http://www.w3.org/2000/svg">
<path d="M12.9165 0C10.5431 0 8.22306 0.703788 6.24967 2.02236C4.27628 3.34094 2.73821 5.21509 1.82995 7.4078C0.921703 9.60051 0.684063 12.0133 1.14709 14.3411C1.61011 16.6689 2.753 18.8071 4.43123 20.4853C6.10946 22.1635 8.24765 23.3064 10.5754 23.7694C12.9032 24.2324 15.316 23.9948 17.5087 23.0866C19.7014 22.1783 21.5756 20.6402 22.8941 18.6668C24.2127 16.6935 24.9165 14.3734 24.9165 12C24.9165 8.8174 23.6522 5.76515 21.4018 3.51472C19.1514 1.26428 16.0991 0 12.9165 0ZM13.9165 4.16C13.917 4.06129 13.9467 3.96493 14.0019 3.88307C14.057 3.80121 14.1352 3.73751 14.2265 3.7L16.9965 2.52C17.0602 2.4883 17.1304 2.47179 17.2015 2.47179C17.2726 2.47179 17.3428 2.4883 17.4065 2.52C18.5652 3.06648 19.6128 3.82253 20.4965 4.75C20.5877 4.85882 20.6342 4.99822 20.6265 5.14L20.3565 8.3C20.3508 8.3833 20.324 8.46377 20.2785 8.53378C20.233 8.60378 20.1703 8.661 20.0965 8.7L18.1565 9.7C18.0766 9.74857 17.985 9.77425 17.8915 9.77425C17.798 9.77425 17.7064 9.74857 17.6265 9.7L14.1365 7.16C14.0705 7.11344 14.0163 7.05215 13.9781 6.98098C13.9399 6.90981 13.9188 6.83073 13.9165 6.75V4.16ZM5.34651 4.74C6.23091 3.82033 7.27438 3.06823 8.42651 2.52C8.49079 2.49039 8.56073 2.47506 8.63151 2.47506C8.70229 2.47506 8.77222 2.49039 8.83651 2.52L11.6265 3.7C11.7152 3.74006 11.7906 3.80466 11.8437 3.88617C11.8969 3.96768 11.9256 4.06269 11.9265 4.16V6.75C11.9273 6.82918 11.9096 6.90744 11.8749 6.97861C11.8402 7.04977 11.7894 7.11188 11.7265 7.16L8.32651 9.64C8.2478 9.68664 8.158 9.71125 8.06651 9.71125C7.97502 9.71125 7.88522 9.68664 7.80651 9.64L5.80651 8.64C5.72878 8.60117 5.66225 8.54313 5.61325 8.47137C5.56425 8.39962 5.53439 8.31653 5.52651 8.23L5.21651 5.13C5.21125 5.05882 5.221 4.98732 5.24512 4.92014C5.26923 4.85296 5.30718 4.79159 5.35651 4.74H5.34651ZM8.68651 16.51L7.55651 17.77C7.49863 17.8378 7.42334 17.8886 7.33876 17.9167C7.25418 17.9449 7.1635 17.9495 7.07651 17.93L4.00651 17.22C3.93921 17.2084 3.87509 17.1828 3.81826 17.1449C3.76143 17.107 3.71314 17.0576 3.67651 17C3.07168 15.878 2.67847 14.6543 2.51651 13.39C2.50641 13.3193 2.51097 13.2474 2.52989 13.1786C2.54882 13.1097 2.58171 13.0456 2.62651 12.99L4.55651 10.78C4.62993 10.6942 4.73075 10.6363 4.84191 10.6163C4.95306 10.5962 5.06773 10.6152 5.16651 10.67L7.26651 11.79C7.32366 11.8201 7.37428 11.8613 7.41547 11.911C7.45666 11.9608 7.4876 12.0182 7.50651 12.08L8.78651 16.08C8.80633 16.1544 8.80758 16.2325 8.79014 16.3075C8.7727 16.3824 8.73712 16.452 8.68651 16.51ZM16.6865 19.51L15.1465 22.08C15.1094 22.1413 15.0601 22.1942 15.0016 22.2355C14.9431 22.2768 14.8767 22.3056 14.8065 22.32C14.183 22.4354 13.5506 22.4956 12.9165 22.5C12.296 22.4993 11.6768 22.4424 11.0665 22.33C10.995 22.3192 10.9267 22.2931 10.8663 22.2534C10.8058 22.2137 10.7548 22.1614 10.7165 22.1L9.17651 19.52C9.12225 19.4281 9.0988 19.3213 9.1096 19.2151C9.12039 19.109 9.16486 19.0091 9.23651 18.93L10.3665 17.67C10.412 17.6163 10.4687 17.5732 10.5326 17.5438C10.5965 17.5144 10.6661 17.4995 10.7365 17.5H15.1265C15.1969 17.4995 15.2665 17.5144 15.3304 17.5438C15.3944 17.5732 15.4511 17.6163 15.4965 17.67L16.6265 18.93C16.6968 19.0098 16.7403 19.1096 16.7511 19.2154C16.7618 19.3212 16.7393 19.4277 16.6865 19.52V19.51ZM22.1565 17C22.1231 17.0632 22.0762 17.1184 22.0192 17.1616C21.9622 17.2048 21.8964 17.2349 21.8265 17.25L18.7565 17.96C18.6695 17.9795 18.5788 17.9749 18.4943 17.9467C18.4097 17.9186 18.3344 17.8678 18.2765 17.8L17.1465 16.54C17.0873 16.4769 17.0466 16.3988 17.029 16.3141C17.0113 16.2294 17.0174 16.1415 17.0465 16.06L18.3265 12.06C18.3454 11.9982 18.3764 11.9408 18.4175 11.891C18.4587 11.8413 18.5094 11.8001 18.5665 11.77L20.6665 10.65C20.7653 10.5952 20.88 10.5762 20.9911 10.5963C21.1023 10.6163 21.2031 10.6742 21.2765 10.76L23.2065 13C23.2513 13.0556 23.2842 13.1197 23.3031 13.1886C23.3221 13.2574 23.3266 13.3293 23.3165 13.4C23.1534 14.6609 22.7602 15.8811 22.1565 17Z" fill="white"/>
</svg>
