<svg width="17" height="16" viewBox="0 0 17 16" fill="none" xmlns="http://www.w3.org/2000/svg">
<path d="M8.49952 0C6.91727 0 5.37055 0.469192 4.05495 1.34824C2.73936 2.22729 1.71398 3.47672 1.10848 4.93853C0.502978 6.40034 0.344551 8.00887 0.653233 9.56072C0.961915 11.1126 1.72384 12.538 2.84266 13.6569C3.96148 14.7757 5.38695 15.5376 6.93879 15.8463C8.49064 16.155 10.0992 15.9965 11.561 15.391C13.0228 14.7855 14.2722 13.7602 15.1513 12.4446C16.0303 11.129 16.4995 9.58225 16.4995 8C16.4995 5.87827 15.6567 3.84344 14.1564 2.34315C12.6561 0.842855 10.6212 0 8.49952 0ZM9.16618 2.77333C9.16651 2.70753 9.18631 2.64329 9.22309 2.58871C9.25987 2.53414 9.31198 2.49167 9.37285 2.46667L11.2195 1.68C11.262 1.65886 11.3088 1.64786 11.3562 1.64786C11.4036 1.64786 11.4504 1.65886 11.4928 1.68C12.2653 2.04432 12.9637 2.54835 13.5528 3.16667C13.6137 3.23921 13.6446 3.33215 13.6395 3.42667L13.4595 5.53333C13.4557 5.58887 13.4378 5.64252 13.4075 5.68919C13.3772 5.73586 13.3354 5.774 13.2862 5.8L11.9928 6.46667C11.9396 6.49904 11.8785 6.51617 11.8162 6.51617C11.7539 6.51617 11.6928 6.49904 11.6395 6.46667L9.31285 4.77333C9.26886 4.74229 9.2327 4.70143 9.20724 4.65399C9.18178 4.60654 9.16772 4.55382 9.16618 4.5V2.77333ZM3.45285 3.16C4.04245 2.54689 4.7381 2.04549 5.50618 1.68C5.54904 1.66026 5.59566 1.65004 5.64285 1.65004C5.69003 1.65004 5.73666 1.66026 5.77952 1.68L7.63952 2.46667C7.69864 2.49338 7.74888 2.53644 7.78432 2.59078C7.81976 2.64512 7.83891 2.70846 7.83952 2.77333V4.5C7.84003 4.55278 7.82826 4.60496 7.80511 4.65241C7.78197 4.69985 7.7481 4.74125 7.70618 4.77333L5.43952 6.42667C5.38704 6.45776 5.32717 6.47417 5.26618 6.47417C5.20519 6.47417 5.14532 6.45776 5.09285 6.42667L3.75952 5.76C3.70769 5.73411 3.66334 5.69542 3.63068 5.64758C3.59801 5.59975 3.5781 5.54436 3.57285 5.48667L3.36618 3.42C3.36268 3.37254 3.36918 3.32488 3.38525 3.28009C3.40133 3.23531 3.42663 3.19439 3.45952 3.16H3.45285ZM5.67952 11.0067L4.92618 11.8467C4.88759 11.8919 4.8374 11.9257 4.78101 11.9445C4.72463 11.9633 4.66418 11.9663 4.60618 11.9533L2.55952 11.48C2.51465 11.4722 2.4719 11.4552 2.43401 11.4299C2.39613 11.4047 2.36394 11.3718 2.33952 11.3333C1.9363 10.5853 1.67415 9.76953 1.56618 8.92667C1.55945 8.87957 1.56249 8.83158 1.5751 8.7857C1.58772 8.73983 1.60965 8.69704 1.63952 8.66L2.92618 7.18667C2.97513 7.12945 3.04234 7.09089 3.11645 7.07753C3.19055 7.06417 3.267 7.07681 3.33285 7.11333L4.73285 7.86C4.77095 7.88009 4.8047 7.90751 4.83215 7.94069C4.85961 7.97387 4.88024 8.01215 4.89285 8.05333L5.74618 10.72C5.7594 10.7696 5.76023 10.8217 5.7486 10.8716C5.73698 10.9216 5.71325 10.968 5.67952 11.0067ZM11.0128 13.0067L9.98618 14.72C9.96146 14.7608 9.92856 14.7961 9.88955 14.8237C9.85055 14.8512 9.80628 14.8704 9.75952 14.88C9.34385 14.9569 8.92222 14.9971 8.49952 15C8.08582 14.9996 7.67303 14.9616 7.26618 14.8867C7.21852 14.8795 7.17297 14.8621 7.13269 14.8356C7.0924 14.8091 7.05834 14.7742 7.03285 14.7333L6.00618 13.0133C5.97001 12.9521 5.95438 12.8809 5.96157 12.8101C5.96877 12.7393 5.99842 12.6727 6.04618 12.62L6.79952 11.78C6.82981 11.7442 6.86761 11.7155 6.91024 11.6959C6.95286 11.6763 6.99927 11.6663 7.04618 11.6667H9.97285C10.0198 11.6663 10.0662 11.6763 10.1088 11.6959C10.1514 11.7155 10.1892 11.7442 10.2195 11.78L10.9728 12.62C11.0197 12.6732 11.0487 12.7397 11.0559 12.8103C11.0631 12.8808 11.048 12.9518 11.0128 13.0133V13.0067ZM14.6595 11.3333C14.6372 11.3755 14.606 11.4123 14.568 11.441C14.53 11.4698 14.4861 11.49 14.4395 11.5L12.3928 11.9733C12.3349 11.9863 12.2744 11.9833 12.218 11.9645C12.1616 11.9457 12.1114 11.9119 12.0728 11.8667L11.3195 11.0267C11.28 10.9846 11.2529 10.9325 11.2411 10.876C11.2294 10.8196 11.2334 10.761 11.2528 10.7067L12.1062 8.04C12.1188 7.99882 12.1394 7.96054 12.1669 7.92736C12.1943 7.89418 12.2281 7.86675 12.2662 7.84667L13.6662 7.1C13.732 7.06348 13.8085 7.05083 13.8826 7.0642C13.9567 7.07756 14.0239 7.11611 14.0728 7.17333L15.3595 8.66667C15.3894 8.7037 15.4113 8.74649 15.4239 8.79237C15.4365 8.83825 15.4396 8.88623 15.4328 8.93333C15.3241 9.77391 15.062 10.5874 14.6595 11.3333Z" fill="#1C9C1B"/>
</svg>
