<svg width="19" height="18" viewBox="0 0 19 18" fill="none" xmlns="http://www.w3.org/2000/svg">
<g clip-path="url(#clip0_9217_36972)">
<path d="M12.728 13.5107C12.728 14.0209 12.9307 14.5102 13.2915 14.871C13.6523 15.2317 14.1416 15.4344 14.6518 15.4344C15.162 15.4344 15.6513 15.2317 16.0121 14.871C16.3728 14.5102 16.5755 14.0209 16.5755 13.5107C16.5755 13.0005 16.3728 12.5111 16.0121 12.1504C15.6513 11.7896 15.162 11.5869 14.6518 11.5869C14.1416 11.5869 13.6523 11.7896 13.2915 12.1504C12.9307 12.5111 12.728 13.0005 12.728 13.5107Z" fill="white"/>
<path d="M2.57469 14.6076C2.50311 14.536 2.41813 14.4792 2.32461 14.4405C2.23109 14.4018 2.13085 14.3818 2.02962 14.3818C1.9284 14.3818 1.82816 14.4018 1.73464 14.4405C1.64112 14.4792 1.55614 14.536 1.48456 14.6076C1.41298 14.6792 1.3562 14.7642 1.31747 14.8577C1.27873 14.9512 1.25879 15.0514 1.25879 15.1527C1.25879 15.2539 1.27873 15.3541 1.31747 15.4477C1.3562 15.5412 1.41298 15.6262 1.48456 15.6977L3.11619 17.3222C3.18571 17.4004 3.27046 17.4636 3.36524 17.508C3.46002 17.5523 3.56285 17.5768 3.66744 17.5801C3.77203 17.5833 3.87618 17.5652 3.97353 17.5268C4.07088 17.4884 4.15937 17.4306 4.23361 17.3569C4.30784 17.2831 4.36625 17.195 4.40527 17.0979C4.44429 17.0008 4.4631 16.8968 4.46054 16.7922C4.45799 16.6876 4.43413 16.5846 4.39041 16.4895C4.3467 16.3944 4.28406 16.3093 4.20631 16.2392L2.57469 14.6076Z" fill="white"/>
<path d="M5.16113 12.5198C5.09453 12.4545 5.005 12.418 4.91175 12.418C4.8185 12.418 4.72897 12.4545 4.66238 12.5198L3.57938 13.6028C3.5141 13.6694 3.47754 13.7589 3.47754 13.8522C3.47754 13.9454 3.5141 14.035 3.57938 14.1016L4.70513 15.2273C4.73824 15.2607 4.77765 15.2872 4.82106 15.3053C4.86447 15.3234 4.91103 15.3327 4.95806 15.3327C5.00509 15.3327 5.05166 15.3234 5.09507 15.3053C5.13848 15.2872 5.17788 15.2607 5.211 15.2273L6.28688 14.1514C6.3211 14.1196 6.34829 14.081 6.3667 14.0381C6.38511 13.9951 6.39432 13.9488 6.39375 13.9021C6.39444 13.8543 6.38532 13.8068 6.36693 13.7627C6.34855 13.7186 6.3213 13.6787 6.28688 13.6456L5.16113 12.5198Z" fill="white"/>
<path d="M17.6156 1.1629C17.3704 0.918316 17.0762 0.728323 16.7524 0.605376C16.4285 0.48243 16.0824 0.429307 15.7366 0.449489C15.3908 0.469671 15.0532 0.562702 14.7459 0.722485C14.4386 0.882268 14.1685 1.10519 13.9534 1.37665L5.85936 11.2519C5.80028 11.3174 5.76758 11.4024 5.76758 11.4906C5.76758 11.5788 5.80028 11.6638 5.85936 11.7293L7.05636 12.9263C7.12298 12.9859 7.20923 13.0188 7.29861 13.0188C7.38799 13.0188 7.47424 12.9859 7.54086 12.9263L17.3734 4.8109C17.6464 4.59923 17.8715 4.33208 18.0337 4.02706C18.1959 3.72204 18.2917 3.38608 18.3146 3.04136C18.3374 2.69664 18.287 2.35098 18.1665 2.02718C18.046 1.70339 17.8583 1.40882 17.6156 1.1629Z" fill="white"/>
</g>
<defs>
<clipPath id="clip0_9217_36972">
<rect width="18" height="18" fill="white" transform="translate(0.777832)"/>
</clipPath>
</defs>
</svg>
