<svg width="25" height="24" viewBox="0 0 25 24" fill="none" xmlns="http://www.w3.org/2000/svg">
<g clip-path="url(#clip0_8149_29784)">
<path d="M10.4802 6.21C10.4068 6.31903 10.3793 6.45254 10.4037 6.58166C10.428 6.71078 10.5022 6.82514 10.6102 6.9C10.8802 7.09 11.1602 7.28 11.4302 7.49C11.5153 7.55816 11.6211 7.5953 11.7302 7.5953C11.8392 7.5953 11.945 7.55816 12.0302 7.49C14.6064 5.55462 17.5877 4.22808 20.7502 3.61C20.7954 3.60048 20.8371 3.57863 20.8706 3.54685C20.9041 3.51508 20.9282 3.47463 20.9402 3.43C20.955 3.38613 20.9563 3.33879 20.9438 3.29418C20.9313 3.24957 20.9056 3.20978 20.8702 3.18C18.6612 1.13414 15.761 -0.00168145 12.7502 1.86837e-06H12.4602C12.3939 0.00108196 12.3287 0.0158545 12.2684 0.0433903C12.2082 0.070926 12.1543 0.110629 12.1102 0.160002C12.0235 0.259619 11.9771 0.387998 11.9802 0.520002C12.1136 2.52945 11.5869 4.52748 10.4802 6.21Z" fill="#393938"/>
<path d="M13.2401 8.75007C13.236 8.82351 13.2472 8.89699 13.273 8.96586C13.2988 9.03472 13.3387 9.09746 13.3901 9.15007C13.93 9.65042 14.4409 10.1813 14.9201 10.7401C14.9952 10.8267 15.0977 10.8849 15.2106 10.9049C15.3235 10.925 15.4398 10.9056 15.5401 10.8501C16.8891 10.0988 18.4128 9.71789 19.9566 9.74599C21.5005 9.77409 23.0093 10.2102 24.3301 11.0101C24.3708 11.0348 24.4175 11.0479 24.4651 11.0479C24.5127 11.0479 24.5594 11.0348 24.6001 11.0101C24.6367 10.9822 24.666 10.9457 24.6852 10.9039C24.7043 10.862 24.7129 10.816 24.7101 10.7701C24.496 8.73369 23.7588 6.78731 22.5701 5.12007C22.519 5.04233 22.4465 4.98109 22.3613 4.94381C22.2761 4.90653 22.1818 4.89481 22.0901 4.91007C18.9791 5.37781 16.0204 6.56607 13.4501 8.38007C13.3895 8.422 13.3392 8.47704 13.3028 8.54109C13.2665 8.60515 13.245 8.67658 13.2401 8.75007Z" fill="#393938"/>
<path d="M13.5799 12.2501C13.6265 12.2045 13.6635 12.15 13.6888 12.0899C13.714 12.0298 13.727 11.9653 13.727 11.9001C13.727 11.8349 13.714 11.7704 13.6888 11.7103C13.6635 11.6502 13.6265 11.5957 13.5799 11.5501C13.1215 11.0076 12.6341 10.4902 12.1199 10.0001C12.0275 9.91435 11.906 9.8667 11.7799 9.8667C11.6538 9.8667 11.5324 9.91435 11.4399 10.0001C8.38418 12.94 6.13849 16.6186 4.91994 20.6801C4.8903 20.7734 4.88872 20.8734 4.91538 20.9676C4.94205 21.0618 4.99579 21.1461 5.06994 21.2101C6.89335 22.7629 9.1397 23.7346 11.5199 24.0001C11.5671 24.0038 11.6143 23.9946 11.6566 23.9734C11.6989 23.9523 11.7346 23.92 11.7599 23.8801C11.7849 23.8413 11.7982 23.7962 11.7982 23.7501C11.7982 23.704 11.7849 23.6589 11.7599 23.6201C10.673 21.8148 10.2596 19.6833 10.5926 17.6026C10.9257 15.5218 11.9838 13.6259 13.5799 12.2501Z" fill="#393938"/>
<path d="M15.1999 13.5799C15.1582 13.5206 15.1047 13.4704 15.0427 13.4326C14.9808 13.3947 14.9118 13.37 14.8399 13.3599C14.7671 13.3539 14.6939 13.3632 14.625 13.3873C14.5561 13.4115 14.493 13.4498 14.4399 13.4999C13.026 14.7868 12.1553 16.5638 12.0048 18.4697C11.8543 20.3756 12.4354 22.2672 13.6299 23.7599C13.6828 23.8301 13.753 23.8854 13.8336 23.9204C13.9142 23.9554 14.0025 23.9691 14.0899 23.9599C15.5242 23.8046 16.9194 23.3949 18.2099 22.7499C18.3029 22.7015 18.3787 22.6256 18.427 22.5326C18.4753 22.4395 18.4938 22.3339 18.4799 22.2299C18.0613 19.134 16.9393 16.175 15.1999 13.5799Z" fill="#393938"/>
<path d="M1.8801 8.7401C3.75924 8.96172 5.65399 8.48091 7.2001 7.3901C7.26217 7.34506 7.31329 7.28661 7.34965 7.21909C7.38601 7.15156 7.40667 7.07671 7.4101 7.0001C7.40513 6.91405 7.37755 6.83083 7.33015 6.75885C7.28274 6.68686 7.21719 6.62865 7.1401 6.5901C5.98477 5.97129 4.78475 5.4398 3.5501 5.0001C3.44873 4.96122 3.33718 4.95785 3.23366 4.99054C3.13013 5.02323 3.04075 5.09006 2.9801 5.1801C2.35033 6.0719 1.84251 7.04383 1.4701 8.0701C1.4374 8.13705 1.42041 8.21058 1.42041 8.2851C1.42041 8.35961 1.4374 8.43314 1.4701 8.5001C1.51562 8.56871 1.57622 8.62601 1.64729 8.66761C1.71835 8.7092 1.79798 8.734 1.8801 8.7401Z" fill="#393938"/>
<path d="M4.96976 3.90994C6.19239 4.38282 7.37888 4.94431 8.51976 5.58994C8.63023 5.64896 8.75855 5.66527 8.88027 5.63577C9.00199 5.60626 9.10859 5.53299 9.17976 5.42994C10.0938 4.08867 10.5594 2.49229 10.5098 0.869936C10.5049 0.794692 10.4847 0.721243 10.4503 0.654153C10.4159 0.587062 10.3681 0.527762 10.3098 0.479936C10.2504 0.435731 10.1817 0.405567 10.1089 0.391711C10.0362 0.377855 9.96126 0.380667 9.88976 0.399936C8.0078 0.864453 6.26752 1.78093 4.81976 3.06994C4.75531 3.12601 4.70663 3.19796 4.67856 3.27865C4.6505 3.35934 4.64402 3.44597 4.65976 3.52994C4.67619 3.61389 4.71308 3.69249 4.76715 3.75877C4.82123 3.82506 4.89082 3.87698 4.96976 3.90994Z" fill="#393938"/>
<path d="M24.51 12.9001C23.4157 12.021 22.0948 11.47 20.7002 11.3107C19.3056 11.1514 17.8944 11.3904 16.63 12.0001C16.565 12.0313 16.5072 12.0759 16.4607 12.1311C16.4142 12.1862 16.3798 12.2507 16.36 12.3201C16.3416 12.3894 16.3383 12.4619 16.3504 12.5327C16.3625 12.6034 16.3896 12.6708 16.43 12.7301C18.1781 15.3012 19.3451 18.2223 19.85 21.2901C19.8587 21.3326 19.8779 21.3722 19.9059 21.4054C19.9338 21.4386 19.9696 21.4643 20.01 21.4801C20.0481 21.502 20.0912 21.5136 20.135 21.5136C20.1789 21.5136 20.222 21.502 20.2601 21.4801C21.5111 20.4912 22.5525 19.263 23.3235 17.8671C24.0944 16.4711 24.5794 14.9356 24.75 13.3501C24.7541 13.2604 24.734 13.1713 24.6917 13.0922C24.6495 13.013 24.5868 12.9466 24.51 12.9001Z" fill="#393938"/>
<path d="M10.12 9.12004C10.1743 9.06908 10.2167 9.00686 10.2443 8.93776C10.272 8.86866 10.2841 8.79435 10.28 8.72004C10.2737 8.64688 10.2517 8.57595 10.2154 8.5121C10.1792 8.44824 10.1296 8.39296 10.07 8.35004L9.50001 8.00004C9.41258 7.93273 9.30535 7.89624 9.19501 7.89624C9.08468 7.89624 8.97744 7.93273 8.89001 8.00004C7.88771 8.88685 6.70232 9.54194 5.41815 9.91873C4.13398 10.2955 2.78257 10.3847 1.46001 10.18C1.39387 10.1693 1.32626 10.1718 1.26106 10.1872C1.19586 10.2027 1.13434 10.2308 1.08001 10.27C1.02536 10.3102 0.97945 10.361 0.945068 10.4195C0.910685 10.4779 0.888552 10.5428 0.880014 10.61C0.807817 11.0702 0.7644 11.5345 0.750014 12C0.745968 14.6721 1.64058 17.2679 3.29001 19.37C3.31772 19.4063 3.35449 19.4346 3.39662 19.4522C3.43875 19.4697 3.48475 19.4759 3.53001 19.47C3.57499 19.4702 3.61916 19.4582 3.65788 19.4353C3.6966 19.4124 3.72843 19.3795 3.75001 19.34C5.04052 15.48 7.22288 11.9787 10.12 9.12004Z" fill="#393938"/>
</g>
<defs>
<clipPath id="clip0_8149_29784">
<rect width="24" height="24" fill="white" transform="translate(0.75)"/>
</clipPath>
</defs>
</svg>
