<svg width="19" height="18" viewBox="0 0 19 18" fill="none" xmlns="http://www.w3.org/2000/svg">
<g clip-path="url(#clip0_8490_78183)">
<path d="M14.3519 4.04269C14.9026 3.42897 15.2236 2.78641 15.3363 2.12682C13.7791 0.822876 11.776 0 9.59082 0C8.46252 0 7.38655 0.218353 6.39119 0.600403C8.05795 2.27032 9.45184 4.24759 10.5421 6.38196C12.1486 5.80106 13.4875 5.00633 14.3519 4.04269Z" fill="white"/>
<path d="M15.1367 4.74719C14.1692 5.8255 12.7311 6.70248 11.013 7.33983C11.2265 7.80812 11.4228 8.28616 11.6075 8.77039C12.4898 8.5806 13.4043 8.47266 14.3369 8.47266C15.8051 8.47266 17.2314 8.72177 18.5466 9.17963C18.5478 9.11934 18.5557 9.0607 18.5557 9C18.5557 6.67845 17.6611 4.56702 16.2082 2.97318C15.9938 3.59088 15.638 4.18867 15.1367 4.74719Z" fill="white"/>
<path d="M0.761247 7.10555C1.88226 7.30371 3.12427 7.41797 4.31738 7.41797C6.16693 7.41797 7.94356 7.1554 9.52696 6.70441C8.43588 4.60808 7.0332 2.67874 5.35902 1.06526C3.0806 2.29065 1.32265 4.50797 0.761247 7.10555Z" fill="white"/>
<path d="M18.4557 10.2655C17.1835 9.78662 15.7833 9.52734 14.3369 9.52734C13.5261 9.52734 12.7299 9.61235 11.9619 9.76753C12.7416 12.1056 13.1927 14.6327 13.2697 17.2014C16.0125 15.9607 18.0173 13.3472 18.4557 10.2655Z" fill="white"/>
<path d="M0.555664 9C0.555664 11.7735 1.89256 14.2914 3.87697 15.937C4.08722 14.5383 4.71783 13.1623 5.74492 12.0107C6.9666 10.6409 8.66193 9.61523 10.5818 9.0298C10.4031 8.56892 10.208 8.11711 10.002 7.67162C8.28647 8.18042 6.35425 8.47266 4.31738 8.47266C3.07126 8.47266 1.77446 8.35359 0.598923 8.14705C0.572281 8.42816 0.555664 8.71216 0.555664 9Z" fill="white"/>
<path d="M6.53236 12.7126C5.49484 13.876 4.93275 15.2405 4.86066 16.6365C6.23573 17.4952 7.85361 18 9.59082 18C10.5042 18 11.3854 17.861 12.2164 17.606C12.176 14.9803 11.7352 12.3985 10.9338 10.0221C9.17938 10.5482 7.63622 11.4748 6.53236 12.7126Z" fill="white"/>
</g>
<defs>
<clipPath id="clip0_8490_78183">
<rect width="18" height="18" fill="white" transform="translate(0.555664)"/>
</clipPath>
</defs>
</svg>
