<svg width="200" height="200" viewBox="0 0 200 200" fill="none" xmlns="http://www.w3.org/2000/svg">
<circle cx="100" cy="100" r="100" fill="#F9F2F1"/>
<path fill-rule="evenodd" clip-rule="evenodd" d="M46.0938 72.9297V59.4531C46.0938 52.0867 52.0868 46.0938 59.4531 46.0938H72.9297C74.6124 46.0938 75.9766 44.7296 75.9766 43.0469C75.9766 41.3642 74.6124 40 72.9297 40H59.4531C48.7267 40 40 48.7266 40 59.4531V72.9297C40 74.6124 41.3642 75.9766 43.0469 75.9766C44.7296 75.9766 46.0938 74.6124 46.0938 72.9297ZM72.9297 153.906C74.6124 153.906 75.9766 155.27 75.9766 156.953C75.9766 158.636 74.6124 160 72.9297 160H59.4531C48.7267 160 40 151.273 40 140.547V127.07C40 125.388 41.3642 124.023 43.0469 124.023C44.7296 124.023 46.0938 125.388 46.0938 127.07V140.547C46.0938 147.913 52.0868 153.906 59.4531 153.906H72.9297ZM160 127.07V140.547C160 151.273 151.273 160 140.547 160H127.07C125.388 160 124.023 158.636 124.023 156.953C124.023 155.27 125.388 153.906 127.07 153.906H140.547C147.913 153.906 153.906 147.913 153.906 140.547V127.07C153.906 125.388 155.27 124.023 156.953 124.023C158.636 124.023 160 125.388 160 127.07ZM160 59.4531V72.9297C160 74.6124 158.636 75.9766 156.953 75.9766C155.27 75.9766 153.906 74.6124 153.906 72.9297V59.4531C153.906 52.0867 147.913 46.0938 140.547 46.0938H127.07C125.388 46.0938 124.023 44.7296 124.023 43.0469C124.023 41.3642 125.388 40 127.07 40H140.547C151.273 40 160 48.7266 160 59.4531ZM121.027 128.691C122.31 127.506 122.39 125.504 121.204 124.22C120.018 122.937 118.017 122.857 116.733 124.043C112.165 128.262 106.223 130.586 99.9999 130.586C93.7772 130.586 87.8346 128.262 83.267 124.043C81.9831 122.857 79.9816 122.937 78.7958 124.22C77.6101 125.504 77.6894 127.506 78.9731 128.691C84.7135 133.994 92.1808 136.914 99.9999 136.914C107.819 136.914 115.286 133.994 121.027 128.691ZM106.328 85.2344V107.734C106.328 112.193 102.701 115.82 98.2422 115.82H95.6641C93.9166 115.82 92.5 114.404 92.5 112.656C92.5 110.909 93.9166 109.492 95.6641 109.492H98.2422C99.2114 109.492 100 108.704 100 107.734V85.2344C100 83.4869 101.417 82.0703 103.164 82.0703C104.912 82.0703 106.328 83.4869 106.328 85.2344ZM128.125 94.082V85.0586C128.125 83.4082 126.787 82.0703 125.137 82.0703C123.486 82.0703 122.148 83.4082 122.148 85.0586V94.082C122.148 95.7324 123.486 97.0703 125.137 97.0703C126.787 97.0703 128.125 95.7324 128.125 94.082ZM72.5781 94.082C72.5781 95.7324 73.9161 97.0703 75.5664 97.0703C77.2168 97.0703 78.5547 95.7324 78.5547 94.082V85.0586C78.5547 83.4082 77.2168 82.0703 75.5664 82.0703C73.9161 82.0703 72.5781 83.4082 72.5781 85.0586V94.082Z" fill="#2D0D02"/>
</svg>
