<svg width="20" height="20" viewBox="0 0 20 20" fill="none" xmlns="http://www.w3.org/2000/svg">
<path d="M19.0406 6.31083C19.1099 5.57581 19.0253 4.8344 18.792 4.13392C18.5588 3.43344 18.1821 2.78926 17.686 2.2425C17.1899 1.69574 16.5853 1.2584 15.9107 0.958373C15.2361 0.658351 14.5064 0.50224 13.7681 0.5L9.24768 0.5C8.30349 0.502091 7.39857 0.878096 6.73092 1.54574C6.06327 2.21339 5.68727 3.11831 5.68518 4.0625V8.02083C5.68518 8.15079 5.71077 8.27947 5.76051 8.39953C5.81024 8.51959 5.88313 8.62868 5.97502 8.72057C6.06691 8.81247 6.176 8.88536 6.29606 8.93509C6.41613 8.98482 6.54481 9.01042 6.67476 9.01042H14.4014C14.6625 9.00833 14.9122 8.90315 15.0961 8.71779C15.2799 8.53243 15.3831 8.28192 15.3831 8.02083V6.04167C15.3831 5.88419 15.4457 5.73317 15.557 5.62182C15.6684 5.51047 15.8194 5.44792 15.9768 5.44792C16.1343 5.44792 16.2853 5.51047 16.3967 5.62182C16.508 5.73317 16.5706 5.88419 16.5706 6.04167V8.02083C16.5706 8.30673 16.5143 8.58983 16.4049 8.85397C16.2955 9.1181 16.1351 9.3581 15.9329 9.56026C15.7308 9.76242 15.4908 9.92279 15.2266 10.0322C14.9625 10.1416 14.6794 10.1979 14.3935 10.1979H6.66684C6.37829 10.2021 6.09178 10.1489 5.82398 10.0414C5.55618 9.93385 5.31243 9.77415 5.1069 9.57157C4.90138 9.36899 4.73818 9.12757 4.62679 8.86135C4.51541 8.59513 4.45806 8.30942 4.45809 8.02083V5.04417C4.4566 4.96934 4.43435 4.8964 4.39381 4.8335C4.35326 4.77059 4.29604 4.72019 4.22851 4.68792C3.95553 4.55655 3.65994 4.47862 3.35768 4.45833C3.06231 4.43302 2.7649 4.46919 2.48421 4.56457C2.20352 4.65995 1.94564 4.81247 1.72684 5.0125C1.45416 5.31081 1.2437 5.66049 1.10777 6.0411C0.971836 6.42171 0.913162 6.82561 0.935178 7.22917C0.935178 11.8367 3.46851 13.3567 4.64018 13.8079C4.71457 13.8378 4.77839 13.8891 4.82351 13.9554C4.86862 14.0216 4.89299 14.0998 4.89351 14.18V17.5208C4.89351 18.0457 5.10203 18.5491 5.4732 18.9203C5.84436 19.2915 6.34777 19.5 6.87268 19.5H14.7893C15.3143 19.5 15.8177 19.2915 16.1888 18.9203C16.56 18.5491 16.7685 18.0457 16.7685 17.5208V12.5808C16.7694 12.3731 16.8518 12.1741 16.9981 12.0267C17.6156 11.4012 18.7081 9.82583 19.0406 6.31083Z" fill="#393938"/>
</svg>
