<svg width="32" height="33" viewBox="0 0 32 33" fill="none" xmlns="http://www.w3.org/2000/svg">
<rect x="0.5" y="1" width="31" height="31" rx="15.5" fill="#2D0D02"/>
<rect x="0.5" y="1" width="31" height="31" rx="15.5" stroke="#CBD5E1"/>
<path d="M24.4444 12.5444C24.4444 12.8856 24.1634 13.1666 23.8222 13.1666H8.17775C7.83654 13.1666 7.55553 12.8856 7.55553 12.5444V12.5355C7.55553 10.7454 9.00099 9.29991 10.7911 9.29991H21.2C22.9901 9.29991 24.4444 10.7543 24.4444 12.5444Z" fill="white" stroke="white" stroke-width="0.888889"/>
<path d="M13.5555 20.4999C13.5555 19.89 13.0543 19.3888 12.4444 19.3888H10.6666C10.0567 19.3888 9.55553 19.89 9.55553 20.4999C9.55553 21.1098 10.0567 21.611 10.6666 21.611H12.4444C13.0543 21.611 13.5555 21.1098 13.5555 20.4999ZM13.5555 20.4999C13.5555 19.89 14.0567 19.3888 14.6666 19.3888H18.2222C18.8321 19.3888 19.3333 19.89 19.3333 20.4999C19.3333 21.1098 18.8321 21.611 18.2222 21.611H14.6666C14.0567 21.611 13.5555 21.1098 13.5555 20.4999ZM7.55553 20.4643V16.011C7.55553 15.6698 7.83654 15.3888 8.17775 15.3888H23.8222C24.1634 15.3888 24.4444 15.6698 24.4444 16.011V20.4554C24.4444 22.2455 22.9901 23.6999 21.2 23.6999H10.7911C9.00099 23.6999 7.55553 22.2544 7.55553 20.4643Z" fill="white" stroke="white" stroke-width="0.888889"/>
</svg>
