<svg width="24" height="24" viewBox="0 0 24 24" fill="none" xmlns="http://www.w3.org/2000/svg">
<path d="M7.70177 20.5656L7.70224 20.5655L16.7313 17.5658C16.7314 17.5657 16.7316 17.5657 16.7317 17.5656C18.217 17.0689 19.2919 16.5059 19.9857 15.9323C20.6812 15.3572 20.9424 14.818 20.9424 14.3562C20.9424 13.8946 20.6813 13.356 19.986 12.7823C19.2924 12.21 18.2176 11.6488 16.7323 11.1545L7.70177 20.5656ZM7.70177 20.5656C5.75378 21.2149 4.42987 20.9501 3.73744 20.2567C3.04449 19.5627 2.77999 18.2358 3.42432 16.2878C3.42441 16.2875 3.42449 16.2873 3.42458 16.287L6.43417 7.26823L6.4343 7.26784M7.70177 20.5656L6.4343 7.26784M6.4343 7.26784C6.9286 5.7825 7.4904 4.70767 8.06347 4.01405M6.4343 7.26784L8.06347 4.01405M8.06347 4.01405C8.63786 3.31882 9.17739 3.05746 9.63988 3.05746M8.06347 4.01405L9.63988 3.05746M9.63988 3.05746C10.1024 3.05746 10.6419 3.31882 11.2163 4.01405M9.63988 3.05746L11.2163 4.01405M11.2163 4.01405C11.7893 4.70762 12.3511 5.78236 12.8454 7.26754L11.2163 4.01405ZM14.0523 10.2645L16.732 11.1544L12.8455 7.26784L13.7354 9.94754L13.8144 10.1855L14.0523 10.2645ZM10.9863 11.4864L10.9854 11.4873L7.18633 15.3064C7.18619 15.3065 7.18605 15.3067 7.18591 15.3068C6.70107 15.7921 6.70121 16.5884 7.18633 17.0735C7.67159 17.5588 8.46817 17.5588 8.95344 17.0735L8.95436 17.0726L12.7534 13.2535C12.7535 13.2534 12.7536 13.2534 12.7536 13.2533C13.2387 12.768 13.2386 11.9716 12.7534 11.4864C12.5047 11.2377 12.1853 11.12 11.8699 11.12C11.5544 11.12 11.235 11.2377 10.9863 11.4864Z" fill="#1C9C1B" stroke="#1C9C1B"/>
</svg>
