<svg width="24" height="24" viewBox="0 0 24 24" fill="none" xmlns="http://www.w3.org/2000/svg">
<path d="M16.2982 3.43438L16.2978 3.43454L7.2687 6.43423C7.26857 6.43427 7.26843 6.43432 7.2683 6.43436C5.783 6.93113 4.70809 7.49414 4.01435 8.06773C3.31885 8.64278 3.05762 9.18205 3.05762 9.64379C3.05762 10.1054 3.3187 10.644 4.01397 11.2177C4.70757 11.79 5.78238 12.3512 7.2677 12.8455L16.2982 3.43438ZM16.2982 3.43438C18.2462 2.78505 19.5701 3.04994 20.2626 3.74335C20.9555 4.43727 21.22 5.76424 20.5757 7.71222C20.5756 7.71248 20.5755 7.71273 20.5754 7.71298L17.5658 16.7318L17.5657 16.7322M16.2982 3.43438L17.5657 16.7322M17.5657 16.7322C17.0714 18.2175 16.5096 19.2923 15.9365 19.986M17.5657 16.7322L15.9365 19.986M15.9365 19.986C15.3621 20.6812 14.8226 20.9425 14.3601 20.9425M15.9365 19.986L14.3601 20.9425M14.3601 20.9425C13.8976 20.9425 13.3581 20.6812 12.7837 19.986M14.3601 20.9425L12.7837 19.986M12.7837 19.986C12.2107 19.2924 11.6489 18.2176 11.1546 16.7325L12.7837 19.986ZM9.9477 13.7355L7.268 12.8456L11.1545 16.7322L10.2646 14.0525L10.1856 13.8145L9.9477 13.7355ZM13.0137 12.5136L13.0146 12.5127L16.8137 8.6936C16.8138 8.69346 16.814 8.69332 16.8141 8.69318C17.2989 8.20787 17.2988 7.41161 16.8137 6.92649C16.3284 6.44123 15.5318 6.44123 15.0466 6.92649L15.0456 6.92742L11.2466 10.7465C11.2465 10.7466 11.2464 10.7466 11.2464 10.7467C10.7613 11.232 10.7614 12.0284 11.2466 12.5136C11.4953 12.7623 11.8147 12.88 12.1301 12.88C12.4456 12.88 12.765 12.7623 13.0137 12.5136Z" fill="#D40C0C" stroke="#D40C0C"/>
</svg>
