<svg width="25" height="24" viewBox="0 0 25 24" fill="none" xmlns="http://www.w3.org/2000/svg">
<g clip-path="url(#clip0_8149_29802)">
<path d="M0.416504 3.25C0.416504 4.11195 0.758914 4.9386 1.36841 5.5481C1.9779 6.15759 2.80455 6.5 3.6665 6.5C4.52846 6.5 5.35511 6.15759 5.9646 5.5481C6.57409 4.9386 6.9165 4.11195 6.9165 3.25C6.9165 2.38805 6.57409 1.5614 5.9646 0.951903C5.35511 0.34241 4.52846 0 3.6665 0C2.80455 0 1.9779 0.34241 1.36841 0.951903C0.758914 1.5614 0.416504 2.38805 0.416504 3.25Z" fill="#393938"/>
<path d="M23.9764 4.00008L20.4164 0.440078C20.1297 0.165642 19.7482 0.0124512 19.3514 0.0124512C18.9545 0.0124512 18.573 0.165642 18.2864 0.440078L8.13638 10.6301C8.08855 10.675 8.05043 10.7292 8.02437 10.7894C7.99831 10.8496 7.98486 10.9145 7.98486 10.9801C7.98486 11.0457 7.99831 11.1106 8.02437 11.1708C8.05043 11.231 8.08855 11.2852 8.13638 11.3301L13.1364 16.3301C13.1818 16.3772 13.2361 16.4147 13.2962 16.4405C13.3563 16.4662 13.421 16.4797 13.4864 16.4801C13.552 16.4809 13.617 16.4679 13.6773 16.4421C13.7375 16.4163 13.7917 16.3781 13.8364 16.3301L23.9764 6.10008C24.1196 5.95552 24.2324 5.78367 24.308 5.59471C24.3835 5.40576 24.4204 5.20355 24.4164 5.00008C24.4006 4.62329 24.2435 4.26625 23.9764 4.00008Z" fill="#393938"/>
<path d="M7.07632 12.3899C7.00875 12.3245 6.92412 12.2795 6.83215 12.2601C6.74017 12.2406 6.64457 12.2475 6.55632 12.2799C6.46801 12.3098 6.39005 12.3642 6.3316 12.4368C6.27315 12.5095 6.23663 12.5973 6.22632 12.6899L5.92632 15.3499C5.9011 15.5772 5.79874 15.789 5.63632 15.9499L0.70632 20.8799C0.520069 21.0673 0.415527 21.3207 0.415527 21.5849C0.415527 21.8491 0.520069 22.1025 0.70632 22.2899L2.12632 23.7099C2.31368 23.8962 2.56713 24.0007 2.83132 24.0007C3.09551 24.0007 3.34896 23.8962 3.53632 23.7099L8.46632 18.7799C8.62728 18.6175 8.83905 18.5151 9.06632 18.4899L11.7263 18.1899C11.819 18.1796 11.9068 18.1431 11.9794 18.0846C12.052 18.0262 12.1065 17.9482 12.1363 17.8599C12.1687 17.7717 12.1756 17.6761 12.1561 17.5841C12.1367 17.4921 12.0917 17.4075 12.0263 17.3399L7.07632 12.3899Z" fill="#393938"/>
</g>
<defs>
<clipPath id="clip0_8149_29802">
<rect width="24" height="24" fill="white" transform="translate(0.416504)"/>
</clipPath>
</defs>
</svg>
