<svg width="19" height="18" viewBox="0 0 19 18" fill="none" xmlns="http://www.w3.org/2000/svg">
<g clip-path="url(#clip0_8490_78197)">
<path d="M9.19491 17.6685C9.26592 17.5357 9.38594 17.4372 9.52868 17.3944C9.67117 17.3516 9.82443 17.3684 9.95497 17.4408C10.2201 17.589 10.4922 17.722 10.7636 17.8502C11.4371 17.7269 12.0941 17.5252 12.7222 17.2489C6.18528 14.913 2.64966 7.72217 4.73283 1C4.30223 1.24663 3.89292 1.52974 3.50894 1.84617C3.42789 2.14606 3.35114 2.44887 3.29066 2.7495C3.23758 3.01436 3.00853 3.20481 2.74291 3.20481C2.58941 3.20602 2.44357 3.13841 2.34387 3.01996C0.094061 5.71948 -0.412565 9.50109 1.04515 12.7145C2.50286 15.928 5.66025 17.9898 9.13897 18C9.12366 17.8862 9.14303 17.7704 9.19491 17.6685ZM2.08757 7.84962C1.96372 7.06644 1.90132 6.27476 1.90108 5.48137C1.90108 5.38116 1.90108 5.28119 1.90108 5.18099C1.91375 4.86942 2.16551 4.62328 2.47202 4.62303C2.62049 4.62595 2.76156 4.68895 2.86436 4.79767C2.96717 4.90663 3.02336 5.05256 3.02049 5.20361V5.48137C3.02073 6.21371 3.07835 6.94459 3.19263 7.66744C3.21654 7.81654 3.18091 7.96928 3.09413 8.09162C3.0071 8.21421 2.87608 8.29642 2.72928 8.32049C2.69987 8.32536 2.66975 8.32755 2.63986 8.3273C2.36563 8.3273 2.1318 8.12494 2.08757 7.84962ZM4.60564 13.0791C4.47725 13.1545 4.32423 13.175 4.18102 13.1358C4.03756 13.0964 3.91539 13.0011 3.84127 12.8702C3.40255 12.0963 3.03412 11.2832 2.74052 10.4409C2.63723 10.1447 2.78953 9.81923 3.08074 9.71416C3.37218 9.60884 3.69208 9.76377 3.79537 10.0603C4.06649 10.8371 4.40648 11.5872 4.81101 12.3013C4.88513 12.4324 4.90497 12.5878 4.86624 12.7338C4.82751 12.8797 4.73331 13.0037 4.60468 13.0791H4.60564ZM8.01645 16.8544C7.92225 16.9712 7.78621 17.0451 7.63846 17.0599C7.4907 17.0745 7.34318 17.0291 7.22866 16.933C6.86094 16.6256 6.50112 16.2943 6.16257 15.9489C5.88284 15.6641 5.61028 15.363 5.35446 15.0568C5.15458 14.817 5.18351 14.4577 5.41901 14.2544C5.65475 14.0508 6.00788 14.0802 6.20776 14.3201C6.44398 14.6046 6.69478 14.8802 6.95371 15.1443C7.26787 15.4632 7.59901 15.7706 7.93923 16.0552C8.1764 16.2549 8.21059 16.6122 8.0155 16.8544H8.01645Z" fill="white"/>
<path d="M15.5489 14.4041C15.8 14.4565 16.0576 14.488 16.3097 14.5211C18.4352 11.8112 18.8215 8.132 17.3052 5.04306C15.7887 1.95412 12.6351 -0.00359997 9.18113 4.97011e-06C8.96455 4.97011e-06 8.74941 0.015386 8.53356 0.0305267C8.42031 0.255474 8.30732 0.484988 8.21194 0.719068C8.12599 0.93248 7.9181 1.07235 7.68679 1.07235C7.61483 1.07235 7.54336 1.05841 7.47672 1.03125C7.18722 0.915416 7.04694 0.588089 7.16308 0.299935C7.17322 0.275181 7.18457 0.251629 7.19471 0.226875C6.83567 0.307385 6.48195 0.409765 6.13571 0.533294C4.80797 3.69938 4.93256 7.28388 6.47663 10.351C8.02071 13.4183 10.831 15.6634 14.1734 16.5C14.6089 16.2092 15.0184 15.8816 15.3975 15.5207C15.371 15.5151 15.3444 15.5118 15.3183 15.5062C15.0129 15.4426 14.8168 15.1445 14.8808 14.8405C14.9446 14.5363 15.244 14.3411 15.5496 14.4048L15.5489 14.4041ZM6.35543 4.56264V4.49559C6.35494 3.78975 6.42038 3.08534 6.551 2.39127C6.58819 2.19372 6.72847 2.03102 6.91897 1.96445C7.10948 1.89764 7.32123 1.93729 7.47455 2.06803C7.62787 2.19901 7.69934 2.40137 7.66192 2.59892C7.54433 3.22425 7.48542 3.85944 7.48566 4.49559C7.49194 4.81138 7.24541 5.07526 6.92839 5.09185H6.92066C6.77483 5.09761 6.63261 5.04474 6.52637 4.94525C6.42014 4.84575 6.35857 4.7078 6.35543 4.56264ZM7.95021 9.10822C7.81186 9.16541 7.65612 9.16541 7.51753 9.10846C7.37894 9.05126 7.26908 8.94167 7.21161 8.80396C6.93225 8.13224 6.71929 7.43529 6.57587 6.72271C6.52179 6.4211 6.71978 6.13199 7.02159 6.07214C7.3234 6.01206 7.61797 6.20361 7.68413 6.50257C7.81258 7.14449 8.00429 7.77223 8.25589 8.3769C8.37299 8.66289 8.23657 8.98925 7.95021 9.10822ZM10.4244 12.4151C10.2025 12.6336 9.84463 12.6314 9.6254 12.4106C9.11135 11.8943 8.64849 11.3303 8.24309 10.7259C8.11705 10.5593 8.09411 10.3373 8.18321 10.1486C8.2723 9.95994 8.4587 9.83593 8.6678 9.82608C8.87714 9.81622 9.07465 9.92221 9.18113 10.1015C9.54644 10.6458 9.9627 11.1544 10.4244 11.6204C10.6446 11.84 10.6446 12.1955 10.4244 12.4151ZM13.9633 14.5526C13.9044 14.6898 13.7933 14.7985 13.6542 14.854C13.5152 14.9097 13.3597 14.9083 13.2218 14.8497C12.5484 14.5642 11.9049 14.2135 11.3003 13.8028C11.1263 13.6922 11.0268 13.4957 11.041 13.2907C11.055 13.0857 11.1803 12.9044 11.3679 12.8182C11.5556 12.7321 11.7753 12.7547 11.9412 12.877C12.4837 13.2462 13.0615 13.5613 13.6661 13.8182C13.9517 13.94 14.0848 14.2688 13.9638 14.5538L13.9633 14.5526Z" fill="white"/>
</g>
<defs>
<clipPath id="clip0_8490_78197">
<rect width="18" height="18" fill="white" transform="translate(0.222168)"/>
</clipPath>
</defs>
</svg>
