<svg width="18" height="18" viewBox="0 0 18 18" fill="none" xmlns="http://www.w3.org/2000/svg">
<path d="M9.90445 9.38799V12.4671C12.2071 12.0404 13.9568 10.0184 13.9568 7.59402C13.9568 4.86058 11.7329 2.63672 8.99939 2.63672C6.26586 2.63672 4.04199 4.86058 4.04199 7.59402C4.04199 10.0184 5.79175 12.0404 8.09436 12.4671V9.38799C7.43895 9.05669 6.9885 8.37872 6.9885 7.59402C6.9885 6.48341 7.88878 5.58314 8.99939 5.58314C10.11 5.58314 11.0103 6.48341 11.0103 7.59402C11.0103 8.37872 10.5599 9.05669 9.90445 9.38799Z" fill="#393938"/>
<path d="M8.99946 0C4.80528 0 1.40527 3.4001 1.40527 7.59419C1.40527 11.3078 4.07157 14.3968 7.59377 15.0564C7.69406 14.8282 7.87306 14.646 8.09452 14.5492V13.4335C5.26453 12.9967 3.0909 10.5445 3.0909 7.59419C3.0909 4.33622 5.74149 1.68563 8.99955 1.68563C12.2576 1.68563 14.9082 4.33622 14.9082 7.59419C14.9082 10.5446 12.7346 12.9967 9.90459 13.4335V14.5492C10.126 14.646 10.305 14.8282 10.4053 15.0564C13.9275 14.3969 16.5938 11.3079 16.5938 7.59419C16.5936 3.4001 13.1936 0 8.99946 0Z" fill="#393938"/>
<path d="M9.53975 14.9489H9.42846V13.4858V12.5321V9.55834V8.11062L10.1788 8.37841L9.03381 6.5127L7.81934 8.37831L8.56968 8.11053V9.55812V12.5319V13.4856V14.9487H8.45839C8.31331 14.9487 8.18358 15.0205 8.09604 15.1332C8.0246 15.2252 7.98133 15.3444 7.98133 15.475V18.0002L8.96741 16.9478L10.017 18.0002V15.475C10.017 15.3444 9.97363 15.2252 9.90231 15.1332C9.81459 15.0207 9.68483 14.9489 9.53975 14.9489Z" fill="#393938"/>
</svg>
