<svg width="24" height="24" viewBox="0 0 24 24" fill="none" xmlns="http://www.w3.org/2000/svg">
<rect x="0.5" y="0.5" width="23" height="23" rx="11.5" fill="#727272"/>
<rect x="0.5" y="0.5" width="23" height="23" rx="11.5" stroke="#DDDDDD"/>
<path d="M11.8442 15H8.59223V6.972H11.7242C12.9962 6.972 13.9922 7.34 14.7122 8.076C15.4402 8.812 15.8042 9.784 15.8042 10.992C15.8042 12.208 15.4522 13.18 14.7482 13.908C14.0522 14.636 13.0842 15 11.8442 15ZM10.3562 8.592V13.38H11.9762C12.5842 13.38 13.0762 13.156 13.4522 12.708C13.8282 12.26 14.0162 11.676 14.0162 10.956C14.0162 10.26 13.8242 9.692 13.4402 9.252C13.0642 8.812 12.5642 8.592 11.9402 8.592H10.3562Z" fill="white"/>
</svg>
