<svg width="18" height="18" viewBox="0 0 18 18" fill="none" xmlns="http://www.w3.org/2000/svg">
<path fill-rule="evenodd" clip-rule="evenodd" d="M2.90912 3.55962C4.04841 3.32877 6.59488 3.07227 9.00028 3.07227C11.4057 3.07227 13.9522 3.32877 15.0914 3.5589C15.3715 3.61519 15.6052 3.7983 15.7291 4.05623C16.7017 6.07902 17.3273 10.1966 17.2988 11.9636C17.2688 13.8531 15.9721 14.9382 14.3348 14.9276C12.6476 14.9154 11.9536 12.8969 11.519 11.6308C11.4271 11.3651 11.348 11.1328 11.2717 10.9589H6.72883C6.65331 11.1328 6.57351 11.3651 6.48231 11.6308C6.04697 12.8969 5.353 14.9154 3.66508 14.9276C2.02847 14.9382 0.731721 13.8531 0.701084 11.9636C0.673296 10.1966 1.29958 6.0783 2.27143 4.05623C2.39541 3.7983 2.62911 3.6159 2.90912 3.55962ZM5.27605 8.84423C5.13432 8.84423 4.9984 8.78793 4.89819 8.68771C4.79797 8.5875 4.74167 8.45158 4.74167 8.30985V7.35439H3.78692C3.6452 7.35439 3.50928 7.29809 3.40906 7.19788C3.30885 7.09766 3.25255 6.96174 3.25255 6.82002C3.25255 6.67829 3.30885 6.54237 3.40906 6.44216C3.50928 6.34194 3.6452 6.28564 3.78692 6.28564H4.74167V5.32947C4.74167 5.18774 4.79797 5.05182 4.89819 4.95161C4.9984 4.85139 5.13432 4.79509 5.27605 4.79509C5.41777 4.79509 5.55369 4.85139 5.65391 4.95161C5.75412 5.05182 5.81042 5.18774 5.81042 5.32947V6.28564H6.76517C6.9069 6.28564 7.04282 6.34194 7.14303 6.44216C7.24325 6.54237 7.29955 6.67829 7.29955 6.82002C7.29955 6.96174 7.24325 7.09766 7.14303 7.19788C7.04282 7.29809 6.9069 7.35439 6.76517 7.35439H5.81042V8.30914C5.81042 8.45087 5.75412 8.58679 5.65391 8.687C5.55369 8.78722 5.41777 8.84423 5.27605 8.84423ZM12.7359 8.08328C12.7393 8.2058 12.7182 8.32777 12.6736 8.44197C12.6291 8.55616 12.5621 8.66027 12.4767 8.74815C12.3912 8.83602 12.289 8.90586 12.1761 8.95356C12.0632 9.00125 11.9419 9.02582 11.8193 9.02582C11.6967 9.02582 11.5754 9.00125 11.4625 8.95356C11.3496 8.90586 11.2474 8.83602 11.1619 8.74815C11.0765 8.66027 11.0095 8.55616 10.965 8.44197C10.9204 8.32777 10.8992 8.2058 10.9027 8.08328C10.9027 7.84008 10.9993 7.60684 11.1712 7.43487C11.3432 7.2629 11.5764 7.16629 11.8196 7.16629C12.0628 7.16629 12.2961 7.2629 12.4681 7.43487C12.64 7.60684 12.7359 7.84008 12.7359 8.08328ZM13.4869 6.61482C13.7301 6.61482 13.9633 6.5182 14.1353 6.34624C14.3073 6.17427 14.4039 5.94103 14.4039 5.69783C14.4039 5.45463 14.3073 5.22139 14.1353 5.04942C13.9633 4.87745 13.7301 4.78084 13.4869 4.78084C13.2437 4.78084 13.0105 4.87745 12.8385 5.04942C12.6665 5.22139 12.5699 5.45463 12.5699 5.69783C12.5699 5.94103 12.6665 6.17427 12.8385 6.34624C13.0105 6.5182 13.2437 6.61482 13.4869 6.61482Z" fill="#393938"/>
</svg>
