<svg width="25" height="24" viewBox="0 0 25 24" fill="none" xmlns="http://www.w3.org/2000/svg">
<path d="M21.99 7.80863V7.81V16.19C21.99 17.9106 21.4791 19.2238 20.5964 20.1064C19.7138 20.9891 18.4006 21.5 16.68 21.5H8.31C6.58945 21.5 5.27634 20.9891 4.39377 20.1054C3.51114 19.2217 3 17.9059 3 16.18V7.81C3 6.08944 3.51093 4.77618 4.39355 3.89355C5.27618 3.01093 6.58944 2.5 8.31 2.5H16.69C18.4107 2.5 19.7237 3.01097 20.605 3.89333C21.4861 4.77559 21.9947 6.08838 21.99 7.80863ZM10.2804 18.635L10.2804 18.635L10.2842 18.6345C10.5534 18.5941 10.8433 18.4864 11.0978 18.357C11.3525 18.2275 11.6102 18.0568 11.803 17.8641C11.8032 17.8639 11.8034 17.8637 11.8036 17.8636L16.2824 13.4147L16.8585 12.8425L16.0881 12.5857C15.9054 12.5247 15.7181 12.4452 15.4916 12.3468C15.2728 12.2374 15.0746 12.1377 14.8972 12.0313L14.8858 12.0244L14.8739 12.0181C14.737 11.9456 14.6007 11.853 14.45 11.74L14.4424 11.7343L14.4346 11.7289C14.3218 11.6508 14.1865 11.5429 14.0323 11.4196L14.0065 11.3989C14.0016 11.3941 13.9957 11.3884 13.9886 11.3813L13.9436 11.3364L13.9282 11.3211L13.9116 11.3071C13.6807 11.1132 13.4124 10.8539 13.1841 10.5799L13.1696 10.5625L13.1599 10.5528C13.1575 10.55 13.1538 10.5454 13.1487 10.5389C13.1359 10.5227 13.1182 10.4993 13.0969 10.4694L13.0814 10.4477L13.0637 10.4278C12.9962 10.3518 12.8828 10.2121 12.7898 10.0684L12.7804 10.0538L12.77 10.04C12.6895 9.9326 12.5902 9.78812 12.501 9.63649L12.501 9.63648L12.4987 9.63275C12.3918 9.45459 12.2905 9.25303 12.193 9.04836C12.0915 8.82652 12.0171 8.63164 11.9372 8.422L11.6624 7.70051L11.1164 8.24645L6.65918 12.7037C6.45932 12.8979 6.28768 13.1545 6.15879 13.4094C6.029 13.6661 5.92505 13.9557 5.88527 14.2276L5.88499 14.2296L5.53527 16.6876C5.43625 17.3475 5.60714 17.9942 6.06645 18.4536C6.44395 18.8311 6.95817 19.01 7.48 19.01C7.59808 19.01 7.71175 18.9973 7.79617 18.9879L7.80522 18.9869L7.81284 18.9861L7.82043 18.985L10.2804 18.635ZM17.3036 12.3736L17.3055 12.3716L18.2236 11.4436C18.2238 11.4433 18.2241 11.443 18.2244 11.4427C19.0327 10.6341 19.4974 9.79726 19.51 8.89694L19.51 8.89694V8.89C19.51 7.94903 19.0464 7.09934 18.2336 6.28645C17.4383 5.49119 16.5845 5.01593 15.6638 5.01126C14.7417 5.00658 13.8785 5.47437 13.0664 6.28645L12.1452 7.2077C11.9131 7.42224 11.8566 7.7413 11.9276 8.00156L11.9276 8.00157L11.9292 8.00736C12.5549 10.1971 14.2963 11.9431 16.4834 12.5752C16.558 12.6009 16.6212 12.6056 16.641 12.6071L16.6429 12.6073C16.6791 12.6101 16.7138 12.61 16.7275 12.61L16.73 12.61C16.9337 12.61 17.1437 12.5335 17.3036 12.3736Z" fill="#2D0D02" stroke="#666666"/>
</svg>
