<svg width="160" height="160" viewBox="0 0 160 160" fill="none" xmlns="http://www.w3.org/2000/svg">
<path d="M148.333 66.667C148.333 67.5594 147.559 68.3337 146.667 68.3337C138.426 68.3337 131.667 75.0927 131.667 83.3337C131.667 91.5746 138.426 98.3337 146.667 98.3337C147.559 98.3337 148.333 99.1079 148.333 100C148.333 114.586 146.063 122.941 141.168 127.835C136.274 132.729 127.919 135 113.334 135H75.0002V123.334C75.0002 118.759 71.2411 115 66.6668 115C62.0925 115 58.3335 118.759 58.3335 123.334V135H46.6668C32.0816 135 23.7266 132.729 18.8322 127.835C13.9378 122.941 11.6668 114.586 11.6668 100V96.667C11.6668 95.7746 12.4411 95.0003 13.3335 95.0003C21.5744 95.0003 28.3335 88.2413 28.3335 80.0003C28.3335 71.7594 21.5744 65.0003 13.3335 65.0003C12.4411 65.0003 11.6668 64.226 11.6668 63.3337V60.0003C11.6668 45.4151 13.9378 37.0601 18.8322 32.1657C23.7266 27.2713 32.0816 25.0003 46.6668 25.0003H58.3335V36.667C58.3335 41.2413 62.0925 45.0003 66.6668 45.0003C71.2411 45.0003 75.0002 41.2413 75.0002 36.667V25.0003H113.334C127.919 25.0003 136.274 27.2713 141.168 32.1657C146.063 37.0601 148.333 45.4151 148.333 60.0003V66.667ZM66.6668 102.8C71.2411 102.8 75.0002 99.0413 75.0002 94.467V65.5337C75.0002 60.9594 71.2411 57.2003 66.6668 57.2003C62.0925 57.2003 58.3335 60.9594 58.3335 65.5337V94.467C58.3335 99.0413 62.0925 102.8 66.6668 102.8Z" fill="#666666" stroke="#666666" stroke-width="6.66667"/>
</svg>
