<svg width="24" height="25" viewBox="0 0 24 25" fill="none" xmlns="http://www.w3.org/2000/svg">
<path d="M22 10.25C21.59 10.25 21.25 9.91 21.25 9.5V7.5C21.25 4.92 19.58 3.25 17 3.25H15C14.59 3.25 14.25 2.91 14.25 2.5C14.25 2.09 14.59 1.75 15 1.75H17C20.44 1.75 22.75 4.06 22.75 7.5V9.5C22.75 9.91 22.41 10.25 22 10.25Z" fill="#2D0D02"/>
<path d="M2 10.25C1.59 10.25 1.25 9.91 1.25 9.5V7.5C1.25 4.06 3.56 1.75 7 1.75H9C9.41 1.75 9.75 2.09 9.75 2.5C9.75 2.91 9.41 3.25 9 3.25H7C4.42 3.25 2.75 4.92 2.75 7.5V9.5C2.75 9.91 2.41 10.25 2 10.25Z" fill="#2D0D02"/>
<path d="M17 23.25H15C14.59 23.25 14.25 22.91 14.25 22.5C14.25 22.09 14.59 21.75 15 21.75H17C19.58 21.75 21.25 20.08 21.25 17.5V15.5C21.25 15.09 21.59 14.75 22 14.75C22.41 14.75 22.75 15.09 22.75 15.5V17.5C22.75 20.94 20.44 23.25 17 23.25Z" fill="#2D0D02"/>
<path d="M9 23.25H7C3.56 23.25 1.25 20.94 1.25 17.5V15.5C1.25 15.09 1.59 14.75 2 14.75C2.41 14.75 2.75 15.09 2.75 15.5V17.5C2.75 20.08 4.42 21.75 7 21.75H9C9.41 21.75 9.75 22.09 9.75 22.5C9.75 22.91 9.41 23.25 9 23.25Z" fill="#2D0D02"/>
<path d="M12.0001 10.3701C11.5101 10.3701 11.1001 10.7701 11.1001 11.2701V13.7401C11.1001 14.2401 11.5001 14.6401 12.0001 14.6401C12.5001 14.6401 12.9001 14.2401 12.9001 13.7401V11.2701C12.9001 10.7701 12.4901 10.3701 12.0001 10.3701Z" fill="#2D0D02"/>
<path d="M15.53 7.89969C15.19 7.55969 14.8 7.26969 14.38 7.02969C14.24 6.95969 14.09 6.88969 13.94 6.81969C13.79 6.75969 13.64 6.69969 13.48 6.65969C13.32 6.60969 13.16 6.56969 13 6.52969C12.99 6.52969 12.97 6.52969 12.96 6.51969C12.65 6.45969 12.33 6.42969 12.01 6.42969H11.99C11.67 6.42969 11.36 6.45969 11.05 6.51969C11.01 6.52969 10.97 6.52969 10.94 6.54969C10.8 6.57969 10.66 6.60969 10.52 6.65969C10.35 6.69969 10.18 6.76969 10.01 6.83969C9.88001 6.89969 9.75001 6.96969 9.63001 7.02969C9.48001 7.10969 9.35001 7.19969 9.21001 7.28969C8.95001 7.46969 8.70001 7.66969 8.47001 7.89969C8.36001 8.00969 8.25001 8.12969 8.15001 8.24969C8.05001 8.37969 7.95001 8.49969 7.86001 8.63969C7.77001 8.76969 7.69001 8.90969 7.61001 9.04969C7.23001 9.75969 7.01001 10.5697 7.01001 11.4297V13.5697C7.01001 15.2997 7.89001 16.8197 9.21001 17.7097C9.33001 17.7997 9.46001 17.8697 9.59001 17.9497L10.14 18.2097C10.42 18.3197 10.71 18.4097 11 18.4697C11.32 18.5297 11.65 18.5697 11.99 18.5697C12 18.5697 12 18.5697 12.01 18.5697C12.35 18.5697 12.68 18.5297 13 18.4697C13.3 18.4097 13.59 18.3197 13.87 18.2097C14.06 18.1297 14.24 18.0397 14.41 17.9497C15.95 17.0997 16.99 15.4497 16.99 13.5697V11.4297C16.99 10.0497 16.43 8.79969 15.53 7.89969ZM14.4 13.7397C14.4 15.0597 13.32 16.1397 12 16.1397C10.68 16.1397 9.60001 15.0597 9.60001 13.7397V11.2697C9.60001 9.94969 10.68 8.86969 12 8.86969C13.32 8.86969 14.4 9.94969 14.4 11.2697V13.7397Z" fill="#2D0D02"/>
</svg>
