<svg width="25" height="24" viewBox="0 0 25 24" fill="none" xmlns="http://www.w3.org/2000/svg">
<g clip-path="url(#clip0_8149_29815)">
<path d="M14.07 1.45013C14.0044 1.38491 13.922 1.33916 13.832 1.31798C13.742 1.29679 13.6478 1.301 13.56 1.33013C10.7424 2.20229 8.16507 3.71515 6.03002 5.75013C3.99363 7.90902 2.47829 10.5053 1.60002 13.3401C1.57351 13.4305 1.57159 13.5264 1.59444 13.6178C1.61729 13.7092 1.66409 13.7928 1.73002 13.8601L10.39 22.5301C10.4583 22.5943 10.5425 22.6393 10.6338 22.6604C10.7252 22.6814 10.8205 22.6779 10.91 22.6501C13.7449 21.7719 16.3411 20.2565 18.5 18.2201C20.535 16.0851 22.0479 13.5077 22.92 10.6901C22.9491 10.6023 22.9534 10.5082 22.9322 10.4182C22.911 10.3281 22.8652 10.2457 22.8 10.1801L14.07 1.45013ZM16.43 8.63013L15.1 10.0001C15.052 10.0448 15.0138 10.099 14.988 10.1593C14.9622 10.2195 14.9492 10.2846 14.95 10.3501C14.949 10.4172 14.9619 10.4838 14.9877 10.5457C15.0135 10.6076 15.0517 10.6636 15.1 10.7101L15.47 11.0801C15.6105 11.2208 15.6894 11.4114 15.6894 11.6101C15.6894 11.8089 15.6105 11.9995 15.47 12.1401C15.4011 12.2109 15.3187 12.2671 15.2276 12.3055C15.1366 12.3439 15.0388 12.3637 14.94 12.3637C14.8412 12.3637 14.7434 12.3439 14.6524 12.3055C14.5614 12.2671 14.479 12.2109 14.41 12.1401L14.03 11.7701C13.9851 11.7223 13.9309 11.6842 13.8707 11.6581C13.8105 11.6321 13.7456 11.6186 13.68 11.6186C13.6144 11.6186 13.5495 11.6321 13.4893 11.6581C13.4291 11.6842 13.3749 11.7223 13.33 11.7701L11.98 13.1101C11.8878 13.2053 11.8362 13.3326 11.8362 13.4651C11.8362 13.5977 11.8878 13.725 11.98 13.8201L12.36 14.2001C12.4925 14.3423 12.5646 14.5303 12.5612 14.7247C12.5578 14.919 12.4791 15.1043 12.3416 15.2417C12.2042 15.3792 12.0188 15.4579 11.8245 15.4613C11.6302 15.4647 11.4422 15.3926 11.3 15.2601L10.92 14.8801C10.8249 14.7879 10.6975 14.7363 10.565 14.7363C10.4325 14.7363 10.3052 14.7879 10.21 14.8801L8.88002 16.1901C8.73939 16.3306 8.54877 16.4095 8.35002 16.4095C8.15127 16.4095 7.96064 16.3306 7.82002 16.1901C7.74926 16.1212 7.69303 16.0388 7.65463 15.9477C7.61623 15.8567 7.59645 15.7589 7.59645 15.6601C7.59645 15.5613 7.61623 15.4635 7.65463 15.3725C7.69303 15.2815 7.74926 15.1991 7.82002 15.1301L9.15002 13.7901C9.19688 13.7436 9.23408 13.6883 9.25946 13.6274C9.28485 13.5665 9.29792 13.5011 9.29792 13.4351C9.29792 13.3691 9.28485 13.3038 9.25946 13.2428C9.23408 13.1819 9.19688 13.1266 9.15002 13.0801L8.78002 12.7101C8.63957 12.5695 8.56068 12.3789 8.56068 12.1801C8.56068 11.9814 8.63957 11.7908 8.78002 11.6501C8.84896 11.5794 8.93138 11.5231 9.02241 11.4847C9.11343 11.4463 9.21122 11.4266 9.31002 11.4266C9.40881 11.4266 9.5066 11.4463 9.59763 11.4847C9.68866 11.5231 9.77107 11.5794 9.84002 11.6501L10.25 12.0001C10.2965 12.047 10.3518 12.0842 10.4127 12.1096C10.4737 12.135 10.539 12.148 10.605 12.148C10.671 12.148 10.7364 12.135 10.7973 12.1096C10.8582 12.0842 10.9135 12.047 10.96 12.0001L12.25 10.6801C12.3412 10.5826 12.3913 10.4537 12.39 10.3201C12.3833 10.2001 12.3336 10.0865 12.25 10.0001L11.87 9.63013C11.7313 9.48656 11.6538 9.29475 11.6538 9.09513C11.6538 8.89551 11.7313 8.70369 11.87 8.56013C12.0106 8.41968 12.2013 8.34079 12.4 8.34079C12.5988 8.34079 12.7894 8.41968 12.93 8.56013L13.31 8.94013C13.4035 9.03174 13.5291 9.08306 13.66 9.08306C13.7909 9.08306 13.9166 9.03174 14.01 8.94013L15.35 7.60013C15.4906 7.45968 15.6813 7.38079 15.88 7.38079C16.0788 7.38079 16.2694 7.45968 16.41 7.60013C16.5465 7.73556 16.6249 7.91882 16.6287 8.11108C16.6324 8.30333 16.5612 8.48949 16.43 8.63013Z" fill="#393938"/>
<path d="M1.36 15.61C1.32873 15.5766 1.28888 15.5524 1.2448 15.54C1.20071 15.5277 1.15409 15.5277 1.11 15.54C1.06821 15.5552 1.03082 15.5805 1.00116 15.6137C0.971505 15.6468 0.950495 15.6868 0.940001 15.73C0.393044 17.9222 0.17732 20.1839 0.300001 22.44C0.326443 22.8367 0.492678 23.2111 0.769153 23.4967C1.04563 23.7823 1.41443 23.9607 1.81 24C4.06607 24.1227 6.3278 23.907 8.52 23.36C8.56322 23.3495 8.60318 23.3285 8.63633 23.2989C8.66948 23.2692 8.69478 23.2318 8.71 23.19C8.72126 23.1459 8.72072 23.0995 8.70844 23.0557C8.69615 23.0118 8.67255 22.9719 8.64 22.94L1.36 15.61Z" fill="#393938"/>
<path d="M24.25 1.57007C24.2087 1.17259 24.0287 0.802364 23.7416 0.524397C23.4545 0.24643 23.0786 0.0784933 22.68 0.0500739C20.4183 -0.0797921 18.1499 0.129184 15.95 0.670074C15.906 0.678758 15.8651 0.699123 15.8317 0.729034C15.7983 0.758944 15.7735 0.797298 15.76 0.840074C15.7488 0.884225 15.7493 0.930559 15.7616 0.974436C15.7739 1.01831 15.7975 1.05819 15.83 1.09007L23.17 8.42007C23.1997 8.45267 23.2378 8.47644 23.2802 8.48879C23.3225 8.50114 23.3674 8.50158 23.41 8.49007C23.4537 8.47626 23.4931 8.45158 23.5246 8.41834C23.5561 8.38511 23.5786 8.34441 23.59 8.30007C24.1404 6.10151 24.3628 3.83367 24.25 1.57007Z" fill="#393938"/>
</g>
<defs>
<clipPath id="clip0_8149_29815">
<rect width="24" height="24" fill="white" transform="translate(0.25)"/>
</clipPath>
</defs>
</svg>
