<svg width="18" height="18" viewBox="0 0 18 18" fill="none" xmlns="http://www.w3.org/2000/svg">
<g clip-path="url(#clip0_9217_30231)">
<path d="M9.0002 0.450195C7.30917 0.450195 5.65611 0.951644 4.25007 1.89113C2.84403 2.83062 1.74816 4.16594 1.10103 5.72825C0.4539 7.29056 0.284581 9.00968 0.614485 10.6682C0.944389 12.3268 1.7587 13.8502 2.95444 15.046C4.15018 16.2417 5.67364 17.056 7.33218 17.3859C8.99072 17.7158 10.7098 17.5465 12.2721 16.8994C13.8345 16.2522 15.1698 15.1564 16.1093 13.7503C17.0488 12.3443 17.5502 10.6912 17.5502 9.0002C17.5502 6.73259 16.6494 4.55787 15.046 2.95443C13.4425 1.351 11.2678 0.450195 9.0002 0.450195ZM9.0002 2.94395C10.1906 2.94394 11.3545 3.29559 12.3458 3.95474C13.337 4.6139 14.1115 5.55118 14.5719 6.64895C14.5889 6.67685 14.5979 6.7089 14.5979 6.74157C14.5979 6.77424 14.5889 6.80629 14.5719 6.8342C14.5507 6.85948 14.5224 6.87777 14.4906 6.88667C14.4588 6.89557 14.4251 6.89466 14.3938 6.88407C10.8747 5.9101 7.15806 5.90272 3.63507 6.8627C3.60855 6.87987 3.57762 6.88901 3.54601 6.88901C3.51441 6.88901 3.48348 6.87987 3.45695 6.8627C3.43996 6.83479 3.43097 6.80274 3.43097 6.77007C3.43097 6.7374 3.43996 6.70535 3.45695 6.67745C3.91114 5.57881 4.67934 4.63858 5.66536 3.97447C6.65138 3.31037 7.81141 2.9519 9.0002 2.94395ZM10.0689 9.0002C10.0689 9.21157 10.0063 9.41821 9.88883 9.59396C9.7714 9.76972 9.60448 9.9067 9.40919 9.98759C9.2139 10.0685 8.99901 10.0896 8.7917 10.0484C8.58438 10.0072 8.39395 9.90538 8.24448 9.75592C8.09501 9.60645 7.99322 9.41602 7.95198 9.2087C7.91075 9.00138 7.93191 8.78649 8.0128 8.5912C8.09369 8.39591 8.23068 8.229 8.40643 8.11156C8.58219 7.99413 8.78882 7.93145 9.0002 7.93145C9.28365 7.93145 9.55549 8.04405 9.75592 8.24448C9.95635 8.4449 10.0689 8.71675 10.0689 9.0002ZM3.3002 9.7127C3.92213 9.71229 4.53666 9.84759 5.10092 10.1092C5.66518 10.3707 6.16557 10.7522 6.56718 11.2271C6.96879 11.702 7.26195 12.2588 7.4262 12.8586C7.59046 13.4585 7.62186 14.087 7.5182 14.7002C7.51431 14.7247 7.50532 14.7482 7.49182 14.769C7.47833 14.7899 7.46061 14.8077 7.43982 14.8213C7.41747 14.8316 7.39317 14.8369 7.36857 14.8369C7.34398 14.8369 7.31968 14.8316 7.29732 14.8213C6.19466 14.4957 5.20729 13.8634 4.45037 12.998C3.69345 12.1325 3.19818 11.0698 3.02232 9.93357C3.01876 9.90814 3.02073 9.88224 3.02811 9.85764C3.03549 9.83305 3.0481 9.81034 3.06507 9.79107C3.09426 9.75075 3.13746 9.7228 3.1862 9.7127H3.3002ZM10.6318 14.8284C10.6019 14.8393 10.5691 14.8393 10.5392 14.8284C10.526 14.8211 10.5147 14.8109 10.5061 14.7985C10.4974 14.7862 10.4917 14.7721 10.4893 14.7572C10.4437 14.5033 10.4223 14.2456 10.4252 13.9877C10.4252 12.8539 10.8756 11.7665 11.6773 10.9648C12.479 10.1631 13.5664 9.7127 14.7002 9.7127H14.8213C14.8718 9.71857 14.9179 9.74419 14.9496 9.78395C14.9602 9.80492 14.9658 9.82811 14.9658 9.85163C14.9658 9.87515 14.9602 9.89834 14.9496 9.91932C14.775 11.0649 14.2754 12.1364 13.51 13.0066C12.7447 13.8767 11.7458 14.509 10.6318 14.8284Z" fill="#393938"/>
</g>
<defs>
<clipPath id="clip0_9217_30231">
<rect width="18" height="18" fill="white"/>
</clipPath>
</defs>
</svg>
