<svg width="12" height="18" viewBox="0 0 12 18" fill="none" xmlns="http://www.w3.org/2000/svg">
<path d="M4.53906 2.40918C4.53906 2.8816 4.72673 3.33466 5.06078 3.66871C5.39483 4.00276 5.8479 4.19043 6.32031 4.19043C6.79273 4.19043 7.2458 4.00276 7.57985 3.66871C7.9139 3.33466 8.10156 2.8816 8.10156 2.40918C8.10156 1.93676 7.9139 1.48369 7.57985 1.14965C7.2458 0.815597 6.79273 0.62793 6.32031 0.62793C5.8479 0.62793 5.39483 0.815597 5.06078 1.14965C4.72673 1.48369 4.53906 1.93676 4.53906 2.40918Z" fill="#393938"/>
<path d="M4.18262 15.5908C4.18262 16.0632 4.37028 16.5163 4.70433 16.8504C5.03838 17.1844 5.49145 17.3721 5.96387 17.3721C6.43628 17.3721 6.88935 17.1844 7.2234 16.8504C7.55745 16.5163 7.74512 16.0632 7.74512 15.5908C7.74512 15.3569 7.69904 15.1253 7.60953 14.9092C7.52001 14.6931 7.38881 14.4967 7.2234 14.3313C7.058 14.1659 6.86163 14.0347 6.64552 13.9452C6.42941 13.8556 6.19778 13.8096 5.96387 13.8096C5.72995 13.8096 5.49832 13.8556 5.28221 13.9452C5.0661 14.0347 4.86974 14.1659 4.70433 14.3313C4.53893 14.4967 4.40772 14.6931 4.31821 14.9092C4.22869 15.1253 4.18262 15.3569 4.18262 15.5908Z" fill="#393938"/>
<path d="M11.8636 16.1247L10.9872 13.068C10.875 12.4618 10.5911 11.9005 10.1692 11.4509C9.74737 11.0013 9.20533 10.6822 8.60748 10.5315L7.85223 10.3463C7.81761 10.3371 7.78641 10.3181 7.76238 10.2915C7.73835 10.265 7.72254 10.232 7.71685 10.1967L7.3321 7.57467C7.32998 7.55041 7.33266 7.52596 7.33999 7.50273C7.34733 7.4795 7.35918 7.45794 7.37485 7.4393C7.39141 7.41942 7.41209 7.40339 7.43547 7.39231C7.45885 7.38124 7.48436 7.37539 7.51023 7.37517H8.45785C9.09942 7.37731 9.72674 7.18606 10.258 6.82638C10.7893 6.4667 11.1998 5.95527 11.4361 5.3588L11.6071 4.92417C11.6668 4.79283 11.6993 4.65075 11.7027 4.5065C11.706 4.36226 11.6801 4.21883 11.6265 4.08487C11.5729 3.95091 11.4927 3.82919 11.3908 3.72704C11.2889 3.62489 11.1674 3.54443 11.0336 3.49051C10.8997 3.4366 10.7564 3.41033 10.6121 3.41331C10.4679 3.41629 10.3257 3.44845 10.1942 3.50785C10.0627 3.56724 9.94463 3.65265 9.84703 3.75892C9.74943 3.86518 9.67437 3.99011 9.62635 4.12617L9.44823 4.56792C9.36951 4.76611 9.23293 4.93601 9.05628 5.05547C8.87963 5.17493 8.6711 5.23842 8.45785 5.23767H3.14973C2.60274 5.25686 2.06753 5.40182 1.58562 5.6613C1.10372 5.92079 0.688088 6.28782 0.370977 6.73392C0.286767 6.8462 0.225496 6.97397 0.190664 7.10993C0.155832 7.24589 0.14812 7.38738 0.167968 7.52632C0.187817 7.66526 0.234837 7.79893 0.306345 7.91969C0.377852 8.04046 0.472446 8.14596 0.584727 8.23017C0.770198 8.36801 0.994896 8.44291 1.22598 8.44392C1.39199 8.44448 1.55583 8.4061 1.70432 8.33185C1.85281 8.25761 1.98181 8.14957 2.08098 8.01642C2.38023 7.71717 2.6011 7.37517 3.14973 7.37517H4.9951C5.03844 7.37633 5.08001 7.39265 5.11255 7.42129C5.1451 7.44993 5.16657 7.48908 5.17323 7.53192L5.55085 10.2822C5.55661 10.3243 5.54771 10.3671 5.52566 10.4034C5.5036 10.4397 5.46973 10.4674 5.42973 10.4817L3.86223 10.9662C3.71899 11.0093 3.56834 11.022 3.4199 11.0036C3.27145 10.9852 3.12848 10.9361 3.0001 10.8593L2.00973 10.275C1.88936 10.1943 1.75383 10.1389 1.61136 10.1121C1.4689 10.0854 1.32249 10.0879 1.18103 10.1195C1.03958 10.1512 0.906035 10.2113 0.788526 10.2961C0.671018 10.381 0.572 10.4889 0.497496 10.6132C0.422991 10.7375 0.374558 10.8757 0.35514 11.0194C0.335722 11.163 0.345726 11.3091 0.384544 11.4488C0.423361 11.5884 0.490181 11.7187 0.580939 11.8317C0.671697 11.9447 0.784497 12.0381 0.912477 12.1062L1.88148 12.6904C2.3817 12.9877 2.95258 13.1452 3.53448 13.1464C3.84589 13.1474 4.1557 13.1018 4.4536 13.011L6.26335 12.4695C6.6341 12.3677 7.02547 12.3677 7.39623 12.4695L8.05885 12.6334C8.25376 12.6831 8.43099 12.786 8.57068 12.9308C8.71037 13.0755 8.80699 13.2563 8.84973 13.4528L9.7546 16.488C9.80468 16.7715 9.9653 17.0234 10.2011 17.1885C10.437 17.3535 10.7287 17.4181 11.0122 17.368C11.2956 17.3179 11.5476 17.1573 11.7126 16.9214C11.8776 16.6856 11.9422 16.3939 11.8921 16.1104L11.8636 16.1247Z" fill="#393938"/>
</svg>
