<svg width="19" height="18" viewBox="0 0 19 18" fill="none" xmlns="http://www.w3.org/2000/svg">
<path d="M12.5182 11.6511C11.5572 12.2312 10.4559 12.5378 9.33334 12.5378C8.21077 12.5378 7.10953 12.2312 6.14847 11.6511C6.06893 11.6015 5.98041 11.568 5.88796 11.5526C5.7955 11.5373 5.70092 11.5402 5.60962 11.5614C5.42523 11.6042 5.26537 11.7184 5.16522 11.8791C5.06506 12.0397 5.03282 12.2335 5.07558 12.4179C5.11834 12.6023 5.23259 12.7622 5.39322 12.8623C6.28379 13.4103 7.27861 13.7669 8.31447 13.9097C8.39945 13.9232 8.47688 13.9664 8.53298 14.0316C8.58909 14.0969 8.62022 14.1799 8.62084 14.2659V16.8381C8.62084 17.027 8.69591 17.2083 8.82953 17.3419C8.96315 17.4755 9.14437 17.5506 9.33334 17.5506C9.52231 17.5506 9.70353 17.4755 9.83715 17.3419C9.97077 17.2083 10.0458 17.027 10.0458 16.8381V14.2659C10.0465 14.1799 10.0776 14.0969 10.1337 14.0316C10.1898 13.9664 10.2672 13.9232 10.3522 13.9097C11.3881 13.7669 12.3829 13.4103 13.2735 12.8623C13.4341 12.7622 13.5483 12.6023 13.5911 12.4179C13.6339 12.2335 13.6016 12.0397 13.5015 11.8791C13.4013 11.7184 13.2415 11.6042 13.0571 11.5614C12.8727 11.5187 12.6788 11.5509 12.5182 11.6511Z" fill="white"/>
<path d="M9.3334 11.4871C10.4255 11.4871 11.4931 11.1633 12.4012 10.5565C13.3093 9.94976 14.017 9.08736 14.4349 8.07837C14.8529 7.06938 14.9622 5.95911 14.7492 4.88797C14.5361 3.81683 14.0102 2.83293 13.238 2.06068C12.4657 1.28843 11.4818 0.762526 10.4107 0.549463C9.33952 0.3364 8.22926 0.445752 7.22027 0.86369C6.21128 1.28163 5.34888 1.98938 4.74213 2.89745C4.13538 3.80552 3.81152 4.87311 3.81152 5.96524C3.81152 7.42973 4.39329 8.83424 5.42884 9.86979C6.4644 10.9053 7.86891 11.4871 9.3334 11.4871ZM11.8271 9.34961C11.6862 9.34961 11.5485 9.30782 11.4313 9.22953C11.3141 9.15124 11.2228 9.03997 11.1689 8.90977C11.115 8.77958 11.1008 8.63632 11.1283 8.49811C11.1558 8.3599 11.2237 8.23294 11.3233 8.1333C11.423 8.03365 11.5499 7.96579 11.6881 7.9383C11.8264 7.91081 11.9696 7.92492 12.0998 7.97885C12.23 8.03278 12.3413 8.1241 12.4196 8.24127C12.4979 8.35844 12.5396 8.49619 12.5396 8.63711C12.5415 8.73187 12.5245 8.82606 12.4896 8.91415C12.4546 9.00225 12.4024 9.08248 12.3361 9.15016C12.2697 9.21784 12.1905 9.2716 12.1031 9.3083C12.0158 9.34499 11.9219 9.36388 11.8271 9.36386V9.34961ZM12.8959 5.78711C13.0368 5.78711 13.1746 5.8289 13.2917 5.90719C13.4089 5.98548 13.5002 6.09676 13.5542 6.22695C13.6081 6.35714 13.6222 6.5004 13.5947 6.63861C13.5672 6.77683 13.4994 6.90378 13.3997 7.00343C13.3001 7.10307 13.1731 7.17093 13.0349 7.19842C12.8967 7.22591 12.7534 7.2118 12.6232 7.15788C12.493 7.10395 12.3818 7.01263 12.3035 6.89546C12.2252 6.77829 12.1834 6.64053 12.1834 6.49961C12.1871 6.31313 12.2638 6.13554 12.3971 6.00499C12.5303 5.87443 12.7094 5.80132 12.8959 5.80136V5.78711ZM11.4709 3.64961C11.6118 3.64961 11.7496 3.6914 11.8667 3.76969C11.9839 3.84798 12.0752 3.95926 12.1292 4.08945C12.1831 4.21964 12.1972 4.3629 12.1697 4.50111C12.1422 4.63933 12.0744 4.76628 11.9747 4.86593C11.8751 4.96557 11.7481 5.03343 11.6099 5.06092C11.4717 5.08841 11.3284 5.0743 11.1982 5.02038C11.068 4.96645 10.9568 4.87513 10.8785 4.75796C10.8002 4.64079 10.7584 4.50303 10.7584 4.36211C10.7621 4.17563 10.8388 3.99804 10.9721 3.86749C11.1053 3.73693 11.2844 3.66382 11.4709 3.66386V3.64961ZM10.4021 5.78711C10.5431 5.78711 10.6808 5.8289 10.798 5.90719C10.9152 5.98548 11.0065 6.09676 11.0604 6.22695C11.1143 6.35714 11.1285 6.5004 11.101 6.63861C11.0735 6.77683 11.0056 6.90378 10.906 7.00343C10.8063 7.10307 10.6794 7.17093 10.5412 7.19842C10.4029 7.22591 10.2597 7.2118 10.1295 7.15788C9.99929 7.10395 9.88802 7.01263 9.80973 6.89546C9.73144 6.77829 9.68965 6.64053 9.68965 6.49961C9.69338 6.31313 9.77009 6.13554 9.90331 6.00499C10.0365 5.87443 10.2156 5.80132 10.4021 5.80136V5.78711ZM9.3334 8.28799C9.47432 8.28799 9.61207 8.32977 9.72924 8.40806C9.84641 8.48635 9.93774 8.59763 9.99166 8.72783C10.0456 8.85802 10.0597 9.00128 10.0322 9.13949C10.0047 9.2777 9.93686 9.40466 9.83721 9.5043C9.73757 9.60395 9.61061 9.6718 9.4724 9.6993C9.33419 9.72679 9.19093 9.71268 9.06074 9.65875C8.93054 9.60482 8.81927 9.5135 8.74098 9.39633C8.66269 9.27916 8.6209 9.14141 8.6209 9.00049C8.6209 8.81152 8.69597 8.63029 8.82959 8.49667C8.96321 8.36305 9.14443 8.28799 9.3334 8.28799Z" fill="white"/>
</svg>
