<svg width="14" height="18" viewBox="0 0 14 18" fill="none" xmlns="http://www.w3.org/2000/svg">
<path d="M13.2707 10.5086C13.0912 10.6584 12.873 10.7315 12.6561 10.7315C12.3812 10.7315 12.1083 10.614 11.9185 10.3864L11.6277 10.0379C10.885 9.14781 10.0704 8.31438 9.1971 7.54969C9.1971 7.54969 9.34969 13.6273 5.37909 17.2657L4.90477 17.7277C4.71815 17.9094 4.47648 17.9999 4.235 17.9999C3.98507 17.9999 3.73534 17.9029 3.54717 17.7098C3.17731 17.3299 3.18531 16.7221 3.56509 16.3522L4.03947 15.8901C5.1531 14.8057 5.92214 13.4276 6.26622 11.928C5.63702 12.1207 4.98414 12.218 4.33106 12.218C3.11395 12.218 1.89715 11.8835 0.834529 11.2142C0.385941 10.9316 0.251346 10.3388 0.533977 9.89017C0.81648 9.44164 1.40926 9.30692 1.85798 9.58961C3.11503 10.3814 4.67782 10.5102 6.03479 9.97785L6.41022 6.53949C6.32113 6.54378 6.2321 6.54666 6.14321 6.54666C4.76199 6.54666 3.41923 6.03145 2.37313 5.06496L2.31073 5.00736C2.23124 5.01888 2.15002 5.02509 2.06733 5.02509C1.13783 5.02509 0.384277 4.27159 0.384277 3.34204C0.384277 2.41248 1.13777 1.65899 2.06733 1.65899C2.99689 1.65899 3.75038 2.41248 3.75038 3.34204C3.75038 3.46101 3.7379 3.57705 3.71441 3.68899C4.63546 4.51666 5.89443 4.82054 7.09382 4.50142L7.66254 4.35C7.66894 4.34827 7.67534 4.3475 7.68168 4.3459C7.69864 4.34174 7.71566 4.33822 7.73288 4.33502C7.7476 4.33227 7.76232 4.32958 7.77704 4.32753C7.79253 4.32536 7.80801 4.32388 7.82363 4.32248C7.83982 4.321 7.85595 4.3196 7.87208 4.31896C7.88661 4.31838 7.90114 4.31851 7.91573 4.31857C7.93231 4.3187 7.94882 4.31876 7.96527 4.31972C7.98031 4.32056 7.99522 4.32222 8.01026 4.32382C8.02575 4.32548 8.04117 4.32696 8.05647 4.32939C8.07298 4.33195 8.08937 4.3354 8.10581 4.3388C8.11919 4.34161 8.13257 4.34424 8.14582 4.34756C8.16367 4.35211 8.18121 4.35755 8.19887 4.36312C8.21052 4.36683 8.22217 4.37029 8.23369 4.37444C8.25148 4.38085 8.26895 4.38814 8.28643 4.39563C8.29769 4.40043 8.30895 4.4051 8.31996 4.41035C8.33616 4.41803 8.35209 4.42654 8.36796 4.43518C8.38025 4.44184 8.39241 4.44856 8.40438 4.45573C8.41814 4.46405 8.43158 4.47288 8.44502 4.48197C8.45872 4.49118 8.47222 4.50059 8.48547 4.51051C8.49098 4.51467 8.4968 4.51806 8.50224 4.52235L9.4613 5.27488C10.7929 6.31971 12.0178 7.50828 13.102 8.80777L13.3929 9.15632C13.7325 9.56363 13.6778 10.169 13.2707 10.5086ZM7.85499 3.92656C8.93931 3.92656 9.81824 3.04756 9.81824 1.96331C9.81824 0.878998 8.93931 0 7.85499 0C6.77068 0 5.89174 0.878998 5.89174 1.96325C5.89174 3.04756 6.77068 3.92656 7.85499 3.92656Z" fill="#393938"/>
</svg>
