<svg width="19" height="18" viewBox="0 0 19 18" fill="none" xmlns="http://www.w3.org/2000/svg">
<path d="M6.97168 2.23145C6.97168 2.46536 7.01775 2.69699 7.10727 2.9131C7.19679 3.12921 7.32799 3.32557 7.4934 3.49098C7.6588 3.65638 7.85516 3.78759 8.07127 3.87711C8.28739 3.96662 8.51901 4.0127 8.75293 4.0127C8.98685 4.0127 9.21847 3.96662 9.43458 3.87711C9.6507 3.78759 9.84706 3.65638 10.0125 3.49098C10.1779 3.32557 10.3091 3.12921 10.3986 2.9131C10.4881 2.69699 10.5342 2.46536 10.5342 2.23145C10.5342 1.75903 10.3465 1.30596 10.0125 0.971911C9.67841 0.637862 9.22535 0.450195 8.75293 0.450195C8.28051 0.450195 7.82744 0.637862 7.4934 0.971911C7.15935 1.30596 6.97168 1.75903 6.97168 2.23145Z" fill="white"/>
<path d="M15.4863 14.1946L15.9138 13.361C15.965 13.2776 15.9986 13.1846 16.0123 13.0876C16.026 12.9907 16.0196 12.892 15.9935 12.7977C15.9674 12.7033 15.9221 12.6154 15.8605 12.5393C15.7989 12.4633 15.7223 12.4007 15.6355 12.3556C15.5486 12.3104 15.4534 12.2836 15.3557 12.2769C15.2581 12.2702 15.1601 12.2837 15.0679 12.3165C14.9756 12.3494 14.8912 12.4008 14.8197 12.4678C14.7483 12.5347 14.6914 12.6156 14.6526 12.7055C14.6526 12.7055 14.1895 13.589 14.1681 13.6032C14.1378 13.6275 14.1001 13.6407 14.0613 13.6407C14.0224 13.6407 13.9847 13.6275 13.9544 13.6032L11.2469 9.89824C11.2208 9.86043 11.1868 9.82881 11.1471 9.80561C11.2339 9.61815 11.2632 9.40922 11.2316 9.20511C11.1999 9.001 11.1085 8.81082 10.969 8.65849L7.76277 5.09599C7.65199 4.97258 7.514 4.87665 7.35973 4.81579C7.20547 4.75493 7.03915 4.7308 6.87395 4.74531C6.70875 4.75983 6.54919 4.81259 6.4079 4.89942C6.26661 4.98626 6.14747 5.10478 6.0599 5.24561C2.9819 10.2331 3.00327 10.2331 2.9534 10.3899C2.89723 10.5177 2.87045 10.6565 2.87502 10.796V12.7197C2.87425 12.9071 2.82517 13.0912 2.73252 13.2541L1.19352 15.9545C1.09495 16.1943 1.08693 16.4618 1.17095 16.7071C1.25498 16.9524 1.42532 17.1588 1.65024 17.2878C1.87515 17.4169 2.13931 17.4597 2.39348 17.4084C2.64765 17.3571 2.87451 17.2151 3.03177 17.009L4.56365 14.3015C4.84221 13.8156 4.98954 13.2656 4.99115 12.7055V12.3849L5.95302 12.7839C6.2094 12.8805 6.41889 13.0718 6.53823 13.3185C6.65756 13.5651 6.67762 13.8481 6.59427 14.1091L5.65377 16.1255C5.55929 16.3948 5.57565 16.6905 5.69924 16.9478C5.82284 17.205 6.04356 17.4026 6.31284 17.497C6.58211 17.5915 6.8779 17.5752 7.13511 17.4516C7.39233 17.328 7.58991 17.1073 7.6844 16.838L8.60352 14.8216C8.85673 14.0528 8.81111 13.2167 8.47575 12.48C8.14038 11.7433 7.53988 11.1598 6.79377 10.8459L5.69652 10.3542C5.67276 10.3454 5.65138 10.3311 5.63407 10.3125C5.61676 10.294 5.60399 10.2717 5.59677 10.2474C5.57937 10.199 5.57937 10.1461 5.59677 10.0977L7.02177 7.77499C7.03721 7.75216 7.05721 7.73277 7.08051 7.71806C7.10381 7.70334 7.1299 7.69361 7.15715 7.68949C7.18526 7.68859 7.21323 7.69386 7.23908 7.70494C7.26493 7.71602 7.28804 7.73263 7.30677 7.75361L9.3944 10.0692C9.55208 10.2405 9.76297 10.3535 9.9929 10.3899C10.0043 10.5099 10.046 10.6252 10.114 10.7247L12.8358 14.444C12.9833 14.636 13.1732 14.7913 13.3908 14.8976C13.6084 15.0039 13.8476 15.0584 14.0898 15.0567C14.3788 15.053 14.6614 14.9708 14.9073 14.8189C15.1533 14.6671 15.3534 14.4513 15.4863 14.1946Z" fill="white"/>
<path d="M17.8377 16.3033C17.8377 16.1144 17.7626 15.9331 17.629 15.7995C17.4954 15.6659 17.3142 15.5908 17.1252 15.5908H14.6314C14.4425 15.5908 14.2613 15.6659 14.1276 15.7995C13.994 15.9331 13.9189 16.1144 13.9189 16.3033C13.9189 16.4923 13.994 16.6735 14.1276 16.8071C14.2613 16.9408 14.4425 17.0158 14.6314 17.0158H17.1252C17.2188 17.0158 17.3114 16.9974 17.3979 16.9616C17.4843 16.9258 17.5628 16.8733 17.629 16.8071C17.6952 16.741 17.7477 16.6624 17.7835 16.576C17.8193 16.4895 17.8377 16.3969 17.8377 16.3033Z" fill="white"/>
</svg>
