<svg width="19" height="18" viewBox="0 0 19 18" fill="none" xmlns="http://www.w3.org/2000/svg">
<g clip-path="url(#clip0_9217_36951)">
<path d="M10.0668 4.2334C10.0196 4.2334 9.97425 4.25216 9.94084 4.28557C9.90744 4.31897 9.88867 4.36428 9.88867 4.41152V4.53977C9.88867 5.01219 10.0763 5.46526 10.4104 5.79931C10.7444 6.13336 11.1975 6.32102 11.6699 6.32102C12.1423 6.32102 12.5954 6.13336 12.9295 5.79931C13.2635 5.46526 13.4512 5.01219 13.4512 4.53977V4.41152C13.4512 4.36428 13.4324 4.31897 13.399 4.28557C13.3656 4.25216 13.3203 4.2334 13.273 4.2334H10.0668Z" fill="white"/>
<path d="M5.15076 14.1017L5.77064 12.7408C5.7743 12.6861 5.76528 12.6313 5.74427 12.5806C5.72326 12.5299 5.69083 12.4848 5.64951 12.4487L4.18889 11.2018C3.99321 11.0284 3.83761 10.8144 3.73289 10.5748C3.71545 10.5334 3.68299 10.5001 3.64203 10.4816C3.60107 10.4631 3.55462 10.4608 3.51201 10.4751C2.88662 10.6951 2.34502 11.104 1.9621 11.6451C1.57918 12.1863 1.37386 12.8331 1.37451 13.4961V15.9898C1.37451 16.0843 1.41205 16.1749 1.47886 16.2417C1.54567 16.3086 1.63628 16.3461 1.73076 16.3461H5.35026C5.38503 16.3462 5.41907 16.3362 5.44819 16.3172C5.47731 16.2982 5.50023 16.2711 5.51414 16.2392C5.52762 16.2072 5.53143 16.1719 5.5251 16.1377C5.51877 16.1035 5.50258 16.0719 5.47851 16.0468C5.23835 15.791 5.07912 15.4698 5.02081 15.1238C4.9625 14.7777 5.00771 14.4222 5.15076 14.1017Z" fill="white"/>
<path d="M18.1039 9.12108L15.6814 7.57496V6.52758C15.6799 6.45103 15.6588 6.37614 15.6201 6.31004C15.5815 6.24395 15.5265 6.18884 15.4606 6.14996C15.3912 6.10994 15.3126 6.08887 15.2326 6.08887C15.1525 6.08887 15.0739 6.10994 15.0046 6.14996C13.9758 6.83457 13.0353 7.64343 12.2044 8.55821C12.1736 8.59906 12.1584 8.64962 12.1617 8.70071C12.1707 8.75014 12.1957 8.79523 12.2329 8.82896L13.0381 9.39183C13.4301 9.63826 13.7108 10.0277 13.8206 10.4775C13.9304 10.9274 13.8607 11.4023 13.6263 11.8016C13.3919 12.201 13.0112 12.4934 12.5649 12.6168C12.1185 12.7402 11.6417 12.6849 11.2354 12.4627L9.68932 11.3797C9.48753 11.259 9.29679 11.1207 9.11932 10.9665C9.08696 10.9438 9.0484 10.9316 9.00888 10.9316C8.96936 10.9316 8.9308 10.9438 8.89844 10.9665C8.86745 10.9898 8.84459 11.0224 8.83308 11.0594C8.82157 11.0965 8.82201 11.1363 8.83432 11.1731C9.17716 12.0067 9.29747 12.9152 9.18344 13.8093C9.15689 13.8917 9.12597 13.9725 9.09082 14.0516L8.37832 15.5835C8.30194 15.7611 8.19322 15.9229 8.05769 16.0608C8.04008 16.0898 8.03076 16.1231 8.03076 16.157C8.03076 16.1909 8.04008 16.2242 8.05769 16.2532C8.0716 16.2851 8.09452 16.3122 8.12364 16.3312C8.15276 16.3502 8.1868 16.3602 8.22157 16.3601H13.8076C13.902 16.3601 13.9927 16.3225 14.0595 16.2557C14.1263 16.1889 14.1638 16.0983 14.1638 16.0038V14.9351C14.1726 13.4203 14.6423 11.9441 15.5104 10.7028L16.9924 10.9736C17.2102 11.0369 17.4424 11.0289 17.6553 10.9507C17.8681 10.8725 18.0503 10.7282 18.1752 10.539L18.3961 9.99033C18.4575 9.83424 18.4619 9.66147 18.4084 9.50247C18.355 9.34346 18.2472 9.20841 18.1039 9.12108Z" fill="white"/>
<path d="M7.75118 15.277C7.75118 15.277 8.46368 13.6454 8.49931 13.5955C8.66554 13.0056 8.65998 12.3804 8.48328 11.7936C8.30659 11.2067 7.9661 10.6824 7.50181 10.2824L7.03868 9.87623L8.46368 8.71485L8.69881 9.25635C8.9743 9.89516 9.44924 10.4276 10.0526 10.774L11.5916 11.8499C11.7528 11.9394 11.9344 11.986 12.1188 11.9852C12.3543 11.9855 12.5833 11.908 12.7702 11.7647C12.9571 11.6214 13.0914 11.4205 13.1524 11.193C13.2133 10.9655 13.1974 10.7243 13.1071 10.5068C13.0168 10.2893 12.8573 10.1077 12.6532 9.99023L11.1356 8.92148C10.9334 8.80799 10.7753 8.62981 10.6867 8.4156L9.88868 6.57735C9.82481 6.4267 9.7272 6.29273 9.60338 6.18577C9.47956 6.0788 9.33282 6.00169 9.17449 5.96039C9.01617 5.91909 8.85047 5.91469 8.69017 5.94754C8.52987 5.98039 8.37926 6.0496 8.24993 6.14985L4.68743 8.99985C4.56408 9.09854 4.4638 9.22302 4.39364 9.36457C4.32349 9.50611 4.28515 9.66129 4.28131 9.81923C4.27966 9.97627 4.31264 10.1318 4.37791 10.2746C4.44318 10.4175 4.53913 10.5442 4.65893 10.6457L6.08393 11.8926C6.22946 12.019 6.33807 12.1825 6.39828 12.3656C6.45849 12.5487 6.46804 12.7447 6.42593 12.9329L5.77756 14.3579C5.65568 14.6196 5.64275 14.919 5.74163 15.1902C5.84051 15.4615 6.04309 15.6823 6.30481 15.8042C6.56653 15.9261 6.86595 15.939 7.13719 15.8402C7.40844 15.7413 7.6293 15.5387 7.75118 15.277Z" fill="white"/>
<path d="M14.52 3.5208C14.5668 3.5208 14.6131 3.51158 14.6563 3.49368C14.6996 3.47577 14.7388 3.44953 14.7719 3.41645C14.805 3.38337 14.8312 3.3441 14.8491 3.30088C14.867 3.25765 14.8763 3.21133 14.8763 3.16455C14.8763 3.11776 14.867 3.07144 14.8491 3.02821C14.8312 2.98499 14.805 2.94572 14.7719 2.91264C14.7388 2.87956 14.6996 2.85332 14.6563 2.83541C14.6131 2.81751 14.5668 2.8083 14.52 2.8083H13.6579C13.5235 2.54828 13.3372 2.31862 13.1105 2.13355C12.8837 1.94849 12.6214 1.81196 12.3398 1.73242C11.8256 1.58947 11.2767 1.644 10.8007 1.88527C10.3247 2.12655 9.95624 2.53712 9.76763 3.0363C9.74673 3.08975 9.73905 3.14747 9.74525 3.20454C9.75145 3.26161 9.77135 3.31633 9.80326 3.36405C9.8356 3.4119 9.87908 3.45117 9.92997 3.47847C9.98086 3.50578 10.0376 3.5203 10.0954 3.5208H14.52Z" fill="white"/>
</g>
<defs>
<clipPath id="clip0_9217_36951">
<rect width="18" height="18" fill="white" transform="translate(0.888672)"/>
</clipPath>
</defs>
</svg>
