<svg width="32" height="33" viewBox="0 0 32 33" fill="none" xmlns="http://www.w3.org/2000/svg">
<rect y="0.5" width="32" height="32" rx="16" fill="#2D0D02"/>
<path d="M24.8889 22.7219V25.3886H7.11108V22.7219C7.11108 22.233 7.51108 21.833 7.99997 21.833H24C24.4889 21.833 24.8889 22.233 24.8889 22.7219Z" fill="white" stroke="white" stroke-width="1.33333" stroke-miterlimit="10" stroke-linecap="round" stroke-linejoin="round"/>
<path d="M10.222 21.3881V16.0548H11.1109V21.3881H10.222Z" fill="white" stroke="white" stroke-width="0.888889"/>
<path d="M13.7777 21.3881V16.0548H14.6666V21.3881H13.7777Z" fill="white" stroke="white" stroke-width="0.888889"/>
<path d="M17.3334 21.3881V16.0548H18.2222V21.3881H17.3334Z" fill="white" stroke="white" stroke-width="0.888889"/>
<path d="M20.8888 21.3881V16.0548H21.7777V21.3881H20.8888Z" fill="white" stroke="white" stroke-width="0.888889"/>
<path d="M25.7776 25.6106H6.22209C6.1031 25.6106 5.99986 25.5073 5.99986 25.3883C5.99986 25.2694 6.1031 25.1661 6.22209 25.1661H25.7776C25.8966 25.1661 25.9999 25.2694 25.9999 25.3883C25.9999 25.5073 25.8966 25.6106 25.7776 25.6106Z" fill="white" stroke="white" stroke-width="0.888889"/>
<path d="M16.1638 8.15642L24.1638 11.3564C24.2225 11.3799 24.2969 11.4371 24.3579 11.5268C24.4187 11.6164 24.4444 11.7066 24.4444 11.7704V14.7215C24.4444 14.965 24.2434 15.166 24 15.166H7.99997C7.75654 15.166 7.55553 14.965 7.55553 14.7215V11.7704C7.55553 11.7066 7.58121 11.6164 7.64209 11.5268C7.70303 11.4371 7.77743 11.3799 7.83615 11.3564L15.8361 8.15642C15.8556 8.14865 15.9148 8.13487 16 8.13487C16.0851 8.13487 16.1444 8.14865 16.1638 8.15642ZM14.2222 12.0549C14.2222 13.0381 15.0167 13.8327 16 13.8327C16.9832 13.8327 17.7778 13.0381 17.7778 12.0549C17.7778 11.0716 16.9832 10.2771 16 10.2771C15.0167 10.2771 14.2222 11.0716 14.2222 12.0549Z" fill="white" stroke="white" stroke-width="0.888889"/>
</svg>
