<svg width="18" height="18" viewBox="0 0 18 18" fill="none" xmlns="http://www.w3.org/2000/svg">
<path d="M0.450195 13.6306C0.450195 13.8196 0.525262 14.0008 0.658882 14.1345C0.792501 14.2681 0.973729 14.3431 1.1627 14.3431C2.03356 14.3557 2.87391 14.0226 3.4997 13.4169C3.5322 13.3883 3.57399 13.3726 3.61726 13.3726C3.66053 13.3726 3.70231 13.3883 3.73482 13.4169C4.44905 14.0074 5.34461 14.3345 6.27132 14.3431C7.23391 14.3259 8.15969 13.9702 8.8862 13.3385C8.91755 13.3105 8.95813 13.295 9.0002 13.295C9.04226 13.295 9.08284 13.3105 9.1142 13.3385C9.8407 13.9702 10.7665 14.3259 11.7291 14.3431C12.6575 14.3305 13.5533 13.9983 14.2656 13.4026C14.2981 13.3741 14.3399 13.3583 14.3831 13.3583C14.4264 13.3583 14.4682 13.3741 14.5007 13.4026C15.1242 14.0136 15.9648 14.3519 16.8377 14.3431C17.0267 14.3431 17.2079 14.2681 17.3415 14.1345C17.4751 14.0008 17.5502 13.8196 17.5502 13.6306C17.5502 13.4417 17.4751 13.2604 17.3415 13.1268C17.2079 12.9932 17.0267 12.9181 16.8377 12.9181C16.4843 12.9189 16.1372 12.8247 15.8327 12.6455C15.5281 12.4662 15.2773 12.2085 15.1063 11.8993C15.0527 11.7886 14.9714 11.6937 14.8703 11.6238C14.7691 11.5539 14.6516 11.5113 14.5292 11.5003C14.4068 11.4884 14.2834 11.5084 14.1711 11.5583C14.0587 11.6083 13.9612 11.6865 13.8879 11.7853C13.631 12.1135 13.308 12.3839 12.9397 12.5791C12.5715 12.7743 12.1663 12.8898 11.7504 12.9181C11.3345 12.8902 10.9292 12.7749 10.5609 12.5797C10.1925 12.3845 9.86954 12.1138 9.61295 11.7853C9.54317 11.6894 9.45059 11.6125 9.3436 11.5615C9.2366 11.5105 9.11857 11.487 9.0002 11.4931C8.88777 11.4928 8.77688 11.5192 8.67657 11.5699C8.57627 11.6207 8.4894 11.6945 8.42307 11.7853C8.16648 12.1138 7.84348 12.3845 7.47516 12.5797C7.10684 12.7749 6.70149 12.8902 6.28557 12.9181C5.86975 12.8898 5.46456 12.7743 5.0963 12.5791C4.72804 12.3839 4.40497 12.1135 4.14807 11.7853C4.07528 11.6857 3.9779 11.6067 3.86544 11.5561C3.75299 11.5055 3.62931 11.4849 3.50652 11.4964C3.38372 11.5079 3.26602 11.551 3.16491 11.6217C3.0638 11.6923 2.98275 11.7879 2.9297 11.8993C2.75773 12.2155 2.50167 12.478 2.18984 12.6578C1.878 12.8376 1.52253 12.9277 1.1627 12.9181C0.973729 12.9181 0.792501 12.9932 0.658882 13.1268C0.525262 13.2604 0.450195 13.4417 0.450195 13.6306Z" fill="#393938"/>
<path d="M16.8377 16.1242C16.4843 16.1249 16.1372 16.0308 15.8327 15.8515C15.5281 15.6723 15.2773 15.4146 15.1063 15.1053C15.0527 14.9947 14.9714 14.8998 14.8703 14.8299C14.7691 14.7599 14.6516 14.7174 14.5292 14.7063C14.4068 14.6944 14.2834 14.7145 14.1711 14.7644C14.0587 14.8143 13.9612 14.8925 13.8879 14.9913C13.631 15.3195 13.308 15.59 12.9397 15.7852C12.5715 15.9803 12.1663 16.0958 11.7504 16.1242C11.3345 16.0963 10.9292 15.981 10.5609 15.7858C10.1925 15.5905 9.86954 15.3198 9.61295 14.9913C9.54317 14.8955 9.45059 14.8186 9.3436 14.7676C9.2366 14.7166 9.11857 14.6931 9.0002 14.6992C8.88777 14.6989 8.77688 14.7252 8.67657 14.776C8.57627 14.8268 8.4894 14.9005 8.42307 14.9913C8.16648 15.3198 7.84348 15.5905 7.47516 15.7858C7.10684 15.981 6.70149 16.0963 6.28557 16.1242C5.86975 16.0958 5.46456 15.9803 5.0963 15.7852C4.72804 15.59 4.40497 15.3195 4.14807 14.9913C4.07528 14.8918 3.9779 14.8128 3.86544 14.7622C3.75299 14.7115 3.62931 14.6909 3.50652 14.7024C3.38372 14.7139 3.26602 14.7571 3.16491 14.8277C3.0638 14.8983 2.98275 14.994 2.9297 15.1053C2.75773 15.4215 2.50167 15.6841 2.18984 15.8639C1.878 16.0437 1.52253 16.1338 1.1627 16.1242C0.973729 16.1242 0.792501 16.1993 0.658882 16.3329C0.525262 16.4665 0.450195 16.6477 0.450195 16.8367C0.450195 17.0257 0.525262 17.2069 0.658882 17.3405C0.792501 17.4741 0.973729 17.5492 1.1627 17.5492C2.03356 17.5618 2.87391 17.2287 3.4997 16.6229C3.5322 16.5944 3.57399 16.5786 3.61726 16.5786C3.66053 16.5786 3.70231 16.5944 3.73482 16.6229C4.44905 17.2135 5.34461 17.5405 6.27132 17.5492C7.23391 17.532 8.15969 17.1763 8.8862 16.5446C8.91755 16.5165 8.95813 16.501 9.0002 16.501C9.04226 16.501 9.08284 16.5165 9.1142 16.5446C9.8407 17.1763 10.7665 17.532 11.7291 17.5492C12.6575 17.5365 13.5533 17.2044 14.2656 16.6087C14.2981 16.5801 14.3399 16.5644 14.3831 16.5644C14.4264 16.5644 14.4682 16.5801 14.5007 16.6087C15.1242 17.2197 15.9648 17.558 16.8377 17.5492C17.0267 17.5492 17.2079 17.4741 17.3415 17.3405C17.4751 17.2069 17.5502 17.0257 17.5502 16.8367C17.5502 16.6477 17.4751 16.4665 17.3415 16.3329C17.2079 16.1993 17.0267 16.1242 16.8377 16.1242Z" fill="#393938"/>
<path d="M4.51817 5.18059C4.57972 5.18759 4.64186 5.18759 4.70342 5.18059L6.05004 4.79584C6.07117 4.78572 6.0943 4.78047 6.11773 4.78047C6.14116 4.78047 6.16429 4.78572 6.18542 4.79584L7.30404 5.43709C7.33232 5.45235 7.35594 5.47498 7.3724 5.50257C7.38887 5.53017 7.39756 5.5617 7.39756 5.59384C7.39756 5.62597 7.38887 5.6575 7.3724 5.6851C7.35594 5.71269 7.33232 5.73532 7.30404 5.75059L6.18542 6.39184C6.16429 6.40195 6.14116 6.4072 6.11773 6.4072C6.0943 6.4072 6.07117 6.40195 6.05004 6.39184L4.72479 6.07121C4.54149 6.02208 4.34619 6.04777 4.18183 6.14264C4.01748 6.23751 3.89755 6.39379 3.84842 6.57709C3.79928 6.76038 3.82498 6.95569 3.91985 7.12004C4.01472 7.2844 4.17099 7.40433 4.35429 7.45346L5.20217 7.67434C5.22462 7.68089 5.24557 7.69179 5.26381 7.70644C5.28205 7.72108 5.29723 7.73918 5.30847 7.75969C5.31972 7.7802 5.32682 7.80272 5.32936 7.82598C5.3319 7.84923 5.32984 7.87275 5.32329 7.89521L5.08104 8.73596C5.05618 8.82625 5.04935 8.92056 5.06097 9.01349C5.07258 9.10642 5.1024 9.19615 5.14873 9.27755C5.19505 9.35894 5.25696 9.43041 5.33093 9.48785C5.4049 9.5453 5.48946 9.5876 5.57979 9.61234H5.76504C5.9259 9.61784 6.08388 9.56873 6.21326 9.47299C6.34264 9.37725 6.43579 9.24053 6.47754 9.08509L6.83379 7.73846C6.8476 7.69323 6.87819 7.65499 6.91929 7.63159L8.04504 6.98321C8.07157 6.96603 8.1025 6.9569 8.1341 6.9569C8.16571 6.9569 8.19664 6.96603 8.22317 6.98321C8.24947 7.00002 8.2711 7.0232 8.28605 7.0506C8.30099 7.07801 8.30878 7.10875 8.30867 7.13996V8.42959C8.30718 8.47678 8.28958 8.52204 8.25879 8.55784L7.24704 9.56246C7.11287 9.70041 7.039 9.886 7.04167 10.0784C7.04435 10.2708 7.12335 10.4543 7.26129 10.5885C7.39924 10.7226 7.58483 10.7965 7.77724 10.7938C7.96965 10.7912 8.15312 10.7122 8.28729 10.5742L8.90004 9.95434C8.91666 9.9371 8.93658 9.92338 8.95861 9.91402C8.98065 9.90465 9.00435 9.89983 9.02829 9.89983C9.05223 9.89983 9.07593 9.90465 9.09797 9.91402C9.12 9.92338 9.13993 9.9371 9.15654 9.95434L9.76929 10.5742C9.83553 10.641 9.91433 10.694 10.0012 10.7302C10.088 10.7663 10.1811 10.785 10.2752 10.785C10.3692 10.785 10.4624 10.7663 10.5492 10.7302C10.636 10.694 10.7148 10.641 10.781 10.5742C10.8478 10.508 10.9008 10.4292 10.937 10.3423C10.9732 10.2555 10.9918 10.1624 10.9918 10.0683C10.9918 9.97428 10.9732 9.88115 10.937 9.79432C10.9008 9.7075 10.8478 9.6287 10.781 9.56246L9.79067 8.57921C9.75988 8.54342 9.74227 8.49815 9.74079 8.45096V7.16134C9.74068 7.13012 9.74846 7.09938 9.76341 7.07198C9.77836 7.04458 9.79999 7.02139 9.82629 7.00459C9.85282 6.98741 9.88375 6.97827 9.91535 6.97827C9.94696 6.97827 9.97789 6.98741 10.0044 7.00459L11.1302 7.65296C11.1713 7.67636 11.2019 7.7146 11.2157 7.75984L11.5719 9.10646C11.6137 9.2619 11.7068 9.39863 11.8362 9.49436C11.9656 9.59011 12.1236 9.63922 12.2844 9.63371H12.4697C12.56 9.60898 12.6446 9.56668 12.7185 9.50923C12.7925 9.45178 12.8544 9.38032 12.9007 9.29892C12.9471 9.21753 12.9769 9.1278 12.9885 9.03487C13.0001 8.94194 12.9933 8.84763 12.9684 8.75734L12.7475 7.91659C12.7343 7.87123 12.7396 7.82248 12.7624 7.78106C12.7851 7.73964 12.8233 7.70894 12.8687 7.69571L13.7165 7.47484C13.9027 7.41626 14.0579 7.28613 14.1481 7.1131C14.2383 6.94006 14.2561 6.73828 14.1975 6.55215C14.1389 6.36602 14.0088 6.21078 13.8357 6.12058C13.6627 6.03039 13.4609 6.01263 13.2748 6.07121L11.9282 6.43459C11.907 6.4447 11.8839 6.44995 11.8605 6.44995C11.8371 6.44995 11.8139 6.4447 11.7928 6.43459L10.6742 5.79334C10.6459 5.77807 10.6223 5.75545 10.6058 5.72785C10.5893 5.70025 10.5806 5.66872 10.5806 5.63659C10.5806 5.60445 10.5893 5.57292 10.6058 5.54532C10.6223 5.51773 10.6459 5.4951 10.6742 5.47984L11.8498 4.81721C11.8709 4.80709 11.8941 4.80184 11.9175 4.80184C11.9409 4.80184 11.964 4.80709 11.9852 4.81721L13.2748 5.15921C13.3363 5.16621 13.3985 5.16621 13.46 5.15921C13.6209 5.16472 13.7789 5.11561 13.9083 5.01987C14.0376 4.92413 14.1308 4.7874 14.1725 4.63196C14.1974 4.54167 14.2042 4.44736 14.1926 4.35443C14.181 4.2615 14.1512 4.17177 14.1049 4.09037C14.0585 4.00898 13.9966 3.93751 13.9227 3.88007C13.8487 3.82262 13.7641 3.78032 13.6738 3.75559L12.8259 3.53471C12.8035 3.52816 12.7825 3.51725 12.7643 3.50261C12.746 3.48796 12.7309 3.46987 12.7196 3.44936C12.7084 3.42885 12.7013 3.40632 12.6987 3.38307C12.6962 3.35982 12.6982 3.33629 12.7048 3.31384L12.9257 2.47309C12.9505 2.38279 12.9574 2.28848 12.9457 2.19555C12.9341 2.10262 12.9043 2.01289 12.858 1.9315C12.8117 1.8501 12.7497 1.77864 12.6758 1.72119C12.6018 1.66375 12.5172 1.62144 12.4269 1.59671C12.3362 1.57197 12.2414 1.56544 12.1481 1.57752C12.0548 1.58959 11.9648 1.62002 11.8833 1.66705C11.8019 1.71408 11.7305 1.77678 11.6734 1.85154C11.6163 1.92629 11.5745 2.01161 11.5505 2.10259L11.1943 3.44921C11.1805 3.49444 11.1499 3.53268 11.1088 3.55609L9.98304 4.20446C9.95651 4.22164 9.92558 4.23077 9.89398 4.23077C9.86237 4.23077 9.83145 4.22164 9.80492 4.20446C9.78012 4.19052 9.75887 4.17106 9.7428 4.14758C9.72674 4.12411 9.7163 4.09725 9.71229 4.06909V2.77946C9.71377 2.73227 9.73138 2.68701 9.76217 2.65121L10.7525 1.66796C10.819 1.59966 10.8713 1.51894 10.9065 1.43041C10.9418 1.34188 10.9592 1.24728 10.9579 1.15201C10.9566 1.05674 10.9365 0.962656 10.8988 0.875142C10.8611 0.787628 10.8066 0.708393 10.7383 0.64196C10.67 0.575528 10.5893 0.523199 10.5007 0.487962C10.4122 0.452725 10.3176 0.43527 10.2223 0.436593C10.1271 0.437917 10.033 0.457992 9.94547 0.495674C9.85796 0.533356 9.77872 0.587906 9.71229 0.65621L9.09954 1.27609C9.08292 1.29332 9.063 1.30704 9.04097 1.3164C9.01893 1.32577 8.99523 1.3306 8.97129 1.3306C8.94735 1.3306 8.92365 1.32577 8.90161 1.3164C8.87958 1.30704 8.85966 1.29332 8.84304 1.27609L8.28729 0.65621C8.22086 0.587906 8.14162 0.533356 8.05411 0.495674C7.96659 0.457992 7.87251 0.437917 7.77724 0.436593C7.58483 0.433921 7.39924 0.507794 7.26129 0.64196C7.19299 0.708393 7.13844 0.787628 7.10076 0.875142C7.06307 0.962656 7.043 1.05674 7.04167 1.15201C7.039 1.34442 7.11287 1.53001 7.24704 1.66796L8.23742 2.65121C8.26821 2.68701 8.28581 2.73227 8.28729 2.77946V4.06909C8.2874 4.1003 8.27962 4.13104 8.26467 4.15844C8.24973 4.18584 8.2281 4.20903 8.20179 4.22584C8.17526 4.24301 8.14433 4.25215 8.11273 4.25215C8.08112 4.25215 8.0502 4.24301 8.02367 4.22584L6.89792 3.57746C6.85682 3.55406 6.82623 3.51582 6.81242 3.47059L6.45617 2.12396C6.4322 2.03299 6.39045 1.94766 6.33333 1.87291C6.27621 1.79816 6.20486 1.73546 6.12338 1.68843C6.0419 1.6414 5.95192 1.61097 5.85862 1.59889C5.76532 1.58682 5.67056 1.59334 5.57979 1.61809C5.48946 1.64282 5.4049 1.68512 5.33093 1.74257C5.25696 1.80001 5.19505 1.87148 5.14873 1.95287C5.1024 2.03427 5.07258 2.124 5.06097 2.21693C5.04935 2.30986 5.05618 2.40417 5.08104 2.49446L5.30192 3.33521C5.30847 3.35767 5.31053 3.38119 5.30799 3.40445C5.30544 3.4277 5.29835 3.45022 5.2871 3.47073C5.27585 3.49124 5.26067 3.50934 5.24243 3.52398C5.22419 3.53863 5.20325 3.54954 5.18079 3.55609L4.33292 3.77696C4.24259 3.80169 4.15802 3.844 4.08406 3.90144C4.01009 3.95889 3.94817 4.03035 3.90185 4.11175C3.85553 4.19314 3.82571 4.28287 3.81409 4.3758C3.80248 4.46873 3.8093 4.56304 3.83417 4.65334C3.87473 4.80398 3.96361 4.93716 4.08718 5.0324C4.21074 5.12765 4.36215 5.17971 4.51817 5.18059Z" fill="#393938"/>
</svg>
