<svg width="100" height="101" viewBox="0 0 100 101" fill="none" xmlns="http://www.w3.org/2000/svg">
<path d="M7.66455 50.8099C7.66455 61.3124 11.8367 71.3849 19.2631 78.8113C26.6896 86.2377 36.762 90.4099 47.2645 90.4099C57.7671 90.4099 67.8395 86.2377 75.266 78.8113C82.6924 71.3849 86.8646 61.3124 86.8646 50.8099C86.8646 40.3073 82.6924 30.2349 75.266 22.8084C67.8395 15.382 57.7671 11.2099 47.2645 11.2099C36.762 11.2099 26.6896 15.382 19.2631 22.8084C11.8367 30.2349 7.66455 40.3073 7.66455 50.8099Z" fill="#D4F7DC"/>
<path d="M35.2915 80.7574C35.2915 81.1512 36.4388 81.5289 38.4811 81.8074C40.5234 82.0859 43.2933 82.2424 46.1815 82.2424C49.0697 82.2424 51.8396 82.0859 53.8819 81.8074C55.9242 81.5289 57.0715 81.1512 57.0715 80.7574C57.0715 80.3635 55.9242 79.9858 53.8819 79.7073C51.8396 79.4288 49.0697 79.2724 46.1815 79.2724C43.2933 79.2724 40.5234 79.4288 38.4811 79.7073C36.4388 79.9858 35.2915 80.3635 35.2915 80.7574Z" fill="#3EBB5A"/>
<path d="M64.3146 67.4815C64.3895 67.9177 64.2881 68.3658 64.0326 68.7273C63.7772 69.0888 63.3886 69.334 62.9524 69.409L23.4623 76.2113C23.2471 76.2481 23.0267 76.242 22.8139 76.1932C22.6011 76.1445 22.4 76.0541 22.2223 75.9273C22.0446 75.8004 21.8938 75.6397 21.7785 75.4543C21.6632 75.2689 21.5857 75.0625 21.5506 74.8471L13.09 25.7312C13.0151 25.2951 13.1164 24.8471 13.3716 24.4856C13.6269 24.1242 14.0152 23.8789 14.4513 23.8037L53.9256 17.0043C54.1416 16.9671 54.3628 16.9727 54.5766 17.021C54.7904 17.0692 54.9927 17.1591 55.1717 17.2855C55.3508 17.4119 55.5033 17.5724 55.6203 17.7577C55.7374 17.943 55.8168 18.1496 55.8541 18.3656L64.3146 67.4815Z" fill="white"/>
<path d="M56.9609 24.7917L55.8541 18.3656C55.8168 18.1496 55.7374 17.943 55.6203 17.7577C55.5033 17.5724 55.3508 17.4119 55.1717 17.2855C54.9927 17.1591 54.7904 17.0692 54.5766 17.021C54.3628 16.9727 54.1416 16.9671 53.9256 17.0043L14.4513 23.8037C14.0152 23.8789 13.6269 24.1242 13.3716 24.4856C13.1164 24.8471 13.0151 25.2951 13.09 25.7312L14.1969 32.1573L56.9609 24.7917Z" fill="#3EBB5A"/>
<path d="M26.1655 49.2605L53.5341 44.6313" stroke="#3CAE5C" stroke-linecap="round" stroke-linejoin="round"/>
<path d="M23.2005 34.5155L51.2244 29.6793C51.5448 29.6242 51.8741 29.6985 52.1397 29.886C52.4054 30.0735 52.5857 30.3588 52.6411 30.6792L53.6261 36.3836C53.6813 36.704 53.6069 37.0333 53.4194 37.2989C53.2319 37.5646 52.9466 37.7449 52.6262 37.8003L24.6003 42.6374C24.2801 42.6926 23.9512 42.6183 23.6857 42.431C23.4202 42.2437 23.24 41.9586 23.1846 41.6385L22.1996 35.9331C22.1721 35.7744 22.1762 35.6118 22.2116 35.4546C22.247 35.2975 22.313 35.1488 22.4059 35.0172C22.4987 34.8855 22.6166 34.7735 22.7528 34.6874C22.8889 34.6013 23.0417 34.5429 23.2005 34.5155Z" fill="#3EBB5A" stroke="#3CAE5C" stroke-linecap="round" stroke-linejoin="round"/>
<path d="M27.6528 57.8933L55.0214 53.2631" stroke="#3CAE5C" stroke-linecap="round" stroke-linejoin="round"/>
<path d="M29.1396 66.5251L56.5082 61.8959" stroke="#3CAE5C" stroke-linecap="round" stroke-linejoin="round"/>
<path d="M14.1968 32.1573L56.9608 24.7917" stroke="#3CAE5C" stroke-linecap="round" stroke-linejoin="round"/>
<path d="M15.8203 27.5498C15.8203 27.7741 15.8645 27.9962 15.9503 28.2034C16.0361 28.4105 16.1619 28.5988 16.3205 28.7574C16.4791 28.916 16.6673 29.0418 16.8745 29.1276C17.0817 29.2134 17.3038 29.2576 17.5281 29.2576C17.7523 29.2576 17.9744 29.2134 18.1816 29.1276C18.3888 29.0418 18.577 28.916 18.7356 28.7574C18.8942 28.5988 19.02 28.4105 19.1058 28.2034C19.1916 27.9962 19.2358 27.7741 19.2358 27.5498C19.2358 27.3256 19.1916 27.1035 19.1058 26.8963C19.02 26.6891 18.8942 26.5008 18.7356 26.3423C18.577 26.1837 18.3888 26.0579 18.1816 25.9721C17.9744 25.8862 17.7523 25.8421 17.5281 25.8421C17.3038 25.8421 17.0817 25.8862 16.8745 25.9721C16.6673 26.0579 16.4791 26.1837 16.3205 26.3423C16.1619 26.5008 16.0361 26.6891 15.9503 26.8963C15.8645 27.1035 15.8203 27.3256 15.8203 27.5498Z" fill="white" stroke="#3CAE5C" stroke-linecap="round" stroke-linejoin="round"/>
<path d="M21.2793 26.6093C21.2793 27.0622 21.4592 27.4966 21.7795 27.8169C22.0998 28.1371 22.5341 28.3171 22.987 28.3171C23.44 28.3171 23.8743 28.1371 24.1946 27.8169C24.5149 27.4966 24.6948 27.0622 24.6948 26.6093C24.6948 26.1564 24.5149 25.722 24.1946 25.4018C23.8743 25.0815 23.44 24.9016 22.987 24.9016C22.5341 24.9016 22.0998 25.0815 21.7795 25.4018C21.4592 25.722 21.2793 26.1564 21.2793 26.6093Z" fill="white" stroke="#3CAE5C" stroke-linecap="round" stroke-linejoin="round"/>
<path d="M26.7378 25.6688C26.7378 26.1217 26.9177 26.5561 27.238 26.8764C27.5582 27.1966 27.9926 27.3766 28.4455 27.3766C28.8985 27.3766 29.3328 27.1966 29.6531 26.8764C29.9734 26.5561 30.1533 26.1217 30.1533 25.6688C30.1533 25.2159 29.9734 24.7815 29.6531 24.4613C29.3328 24.141 28.8985 23.9611 28.4455 23.9611C27.9926 23.9611 27.5582 24.141 27.238 24.4613C26.9177 24.7815 26.7378 25.2159 26.7378 25.6688Z" fill="white" stroke="#3CAE5C" stroke-linecap="round" stroke-linejoin="round"/>
<path d="M64.3146 67.4815C64.3895 67.9177 64.2881 68.3658 64.0326 68.7273C63.7772 69.0888 63.3886 69.334 62.9524 69.409L23.4623 76.2113C23.2471 76.2481 23.0267 76.242 22.8139 76.1932C22.6011 76.1445 22.4 76.0541 22.2223 75.9273C22.0446 75.8004 21.8938 75.6397 21.7785 75.4543C21.6632 75.2689 21.5857 75.0625 21.5506 74.8471L13.09 25.7312C13.0151 25.2951 13.1164 24.8471 13.3716 24.4856C13.6269 24.1242 14.0152 23.8789 14.4513 23.8037L53.9256 17.0043C54.1416 16.9671 54.3628 16.9727 54.5766 17.021C54.7904 17.0692 54.9927 17.1591 55.1717 17.2855C55.3508 17.4119 55.5033 17.5724 55.6203 17.7577C55.7374 17.943 55.8168 18.1496 55.8541 18.3656L64.3146 67.4815Z" stroke="#3CAE5C" stroke-linecap="round" stroke-linejoin="round"/>
<path d="M68.2261 39.9367L70.4892 34.262L77.1064 36.9024L74.8422 42.5751L68.2261 39.9367Z" fill="white" stroke="#3CAE5C" stroke-linecap="round" stroke-linejoin="round"/>
<path d="M89.7714 40.8584C90.7743 41.2584 91.5772 42.0404 92.0035 43.0324C92.4297 44.0244 92.4445 45.1451 92.0445 46.148C91.6445 47.1508 90.8624 47.9537 89.8704 48.38C88.8785 48.8063 87.7578 48.821 86.7549 48.421L75.4115 43.8947C75.1609 43.7945 74.9603 43.5989 74.8537 43.351C74.7472 43.103 74.7434 42.8228 74.8432 42.5721L77.1054 36.9004C77.2056 36.6498 77.4011 36.4492 77.6491 36.3426C77.8971 36.2361 78.1772 36.2323 78.428 36.3321L89.7714 40.8584Z" fill="#3EBB5A"/>
<path d="M89.7714 40.8584C90.7743 41.2584 91.5772 42.0404 92.0035 43.0324C92.4297 44.0244 92.4445 45.1451 92.0445 46.148C91.6445 47.1508 90.8624 47.9537 89.8704 48.38C88.8785 48.8063 87.7578 48.821 86.7549 48.421L75.4115 43.8947C75.1609 43.7945 74.9603 43.5989 74.8537 43.351C74.7472 43.103 74.7434 42.8228 74.8432 42.5721L77.1054 36.9004C77.2056 36.6498 77.4011 36.4492 77.6491 36.3426C77.8971 36.2361 78.1772 36.2323 78.428 36.3321L89.7714 40.8584Z" stroke="#3CAE5C" stroke-linecap="round" stroke-linejoin="round"/>
<path d="M32.7979 30.1189C32.7979 32.6828 33.3028 35.2216 34.284 37.5903C35.2652 39.959 36.7033 42.1113 38.5162 43.9243C40.3292 45.7372 42.4815 47.1753 44.8502 48.1565C47.2189 49.1377 49.7577 49.6427 52.3216 49.6427C54.8855 49.6427 57.4243 49.1377 59.7931 48.1565C62.1618 47.1753 64.3141 45.7372 66.127 43.9243C67.94 42.1113 69.3781 39.959 70.3593 37.5903C71.3404 35.2216 71.8454 32.6828 71.8454 30.1189C71.8454 24.9408 69.7885 19.9749 66.127 16.3135C62.4656 12.652 57.4997 10.5951 52.3216 10.5951C47.1436 10.5951 42.1777 12.652 38.5162 16.3135C34.8548 19.9749 32.7979 24.9408 32.7979 30.1189Z" fill="white"/>
<path d="M37.2041 32.7216C37.5358 34.7161 38.2586 36.6253 39.3307 38.3394C40.4029 40.0536 41.8034 41.5389 43.4516 42.71C45.0998 43.881 46.9633 44.7147 48.9348 45.163C50.9063 45.6113 52.947 45.6655 54.9396 45.3224C56.9321 44.9793 58.8372 44.2456 60.5452 43.1637C62.2532 42.0817 63.7305 40.6728 64.8921 39.0179C66.0537 37.363 66.8766 35.4948 67.3137 33.5208C67.7507 31.5467 67.7932 29.5057 67.4387 27.5152C67.1051 25.5224 66.381 23.6152 65.3082 21.903C64.2353 20.1909 62.8348 18.7076 61.187 17.5382C59.5393 16.3689 57.6767 15.5366 55.7064 15.0892C53.7361 14.6417 51.6968 14.5879 49.7056 14.9309C47.7144 15.2738 45.8105 16.0068 44.1034 17.0876C42.3963 18.1684 40.9195 19.5759 39.7579 21.2291C38.5963 22.8822 37.7727 24.7486 37.3344 26.721C36.8962 28.6935 36.8519 30.732 37.2041 32.7216Z" fill="#D4F7DC"/>
<path d="M61.2987 17.6795C59.4502 16.3469 57.3281 15.4426 55.0865 15.0325C52.8449 14.6224 50.5401 14.7167 48.3395 15.3085C46.1389 15.9003 44.0977 16.9749 42.3643 18.4541C40.6308 19.9333 39.2485 21.78 38.3179 23.8601L61.673 19.8377L61.2987 17.6795Z" fill="#3EBB5A" stroke="#3CAE5C" stroke-linecap="round" stroke-linejoin="round"/>
<path d="M61.6699 19.8377L38.3178 23.8601C37.3796 25.9532 36.9252 28.2309 36.9882 30.5238C37.0086 31.261 37.0817 31.9958 37.207 32.7226C37.727 35.7236 39.1283 38.5019 41.2324 40.704C43.3366 42.906 46.0485 44.432 49.0227 45.0878C51.997 45.7436 55.0992 45.4994 57.9343 44.3864C60.7693 43.2734 63.2091 41.3419 64.9428 38.8378L61.6699 19.8377Z" fill="white" stroke="#3CAE5C" stroke-linecap="round" stroke-linejoin="round"/>
<path d="M57.2695 37.4419L55.736 28.5388C55.6806 28.2182 55.5001 27.9326 55.2343 27.7449C54.9685 27.5573 54.639 27.4828 54.3183 27.5379L36.9854 30.5238C37.0057 31.261 37.0789 31.9958 37.2041 32.7226C37.7688 36.0261 39.4037 39.0524 41.8571 41.3356L56.2646 38.8536C56.5849 38.7994 56.8706 38.6202 57.059 38.3556C57.2474 38.0909 57.3231 37.7623 57.2695 37.4419Z" fill="#3EBB5A" stroke="#3CAE5C" stroke-linecap="round" stroke-linejoin="round"/>
<path d="M37.2041 32.7216C37.5358 34.7161 38.2586 36.6253 39.3307 38.3394C40.4029 40.0536 41.8034 41.5389 43.4516 42.71C45.0998 43.881 46.9633 44.7147 48.9348 45.163C50.9063 45.6113 52.947 45.6655 54.9396 45.3224C56.9321 44.9793 58.8372 44.2456 60.5452 43.1637C62.2532 42.0817 63.7305 40.6728 64.8921 39.0179C66.0537 37.363 66.8766 35.4948 67.3137 33.5208C67.7507 31.5467 67.7932 29.5057 67.4387 27.5152C67.1051 25.5224 66.381 23.6152 65.3082 21.903C64.2353 20.1909 62.8348 18.7076 61.187 17.5382C59.5393 16.3689 57.6767 15.5366 55.7064 15.0892C53.7361 14.6417 51.6968 14.5879 49.7056 14.9309C47.7144 15.2738 45.8105 16.0068 44.1034 17.0876C42.3963 18.1684 40.9195 19.5759 39.7579 21.2291C38.5963 22.8823 37.7727 24.7486 37.3344 26.721C36.8962 28.6935 36.8519 30.732 37.2041 32.7216Z" stroke="#3CAE5C" stroke-linecap="round" stroke-linejoin="round"/>
<path d="M32.7979 30.1189C32.7979 32.6828 33.3028 35.2216 34.284 37.5903C35.2652 39.959 36.7033 42.1113 38.5162 43.9243C40.3292 45.7372 42.4815 47.1753 44.8502 48.1565C47.2189 49.1377 49.7577 49.6427 52.3216 49.6427C54.8855 49.6427 57.4243 49.1377 59.7931 48.1565C62.1618 47.1753 64.3141 45.7372 66.127 43.9243C67.94 42.1113 69.3781 39.959 70.3593 37.5903C71.3404 35.2216 71.8454 32.6828 71.8454 30.1189C71.8454 24.9408 69.7885 19.9749 66.127 16.3135C62.4656 12.652 57.4997 10.5951 52.3216 10.5951C47.1436 10.5951 42.1777 12.652 38.5162 16.3135C34.8548 19.9749 32.7979 24.9408 32.7979 30.1189Z" stroke="#3CAE5C" stroke-linecap="round" stroke-linejoin="round"/>
</svg>
