<svg width="19" height="18" viewBox="0 0 19 18" fill="none" xmlns="http://www.w3.org/2000/svg">
<g clip-path="url(#clip0_9217_32252)">
<path d="M12.0615 13.5107C12.0615 14.0209 12.2642 14.5102 12.625 14.871C12.9858 15.2317 13.4751 15.4344 13.9853 15.4344C14.4955 15.4344 14.9848 15.2317 15.3456 14.871C15.7063 14.5102 15.909 14.0209 15.909 13.5107C15.909 13.0005 15.7063 12.5111 15.3456 12.1504C14.9848 11.7896 14.4955 11.5869 13.9853 11.5869C13.4751 11.5869 12.9858 11.7896 12.625 12.1504C12.2642 12.5111 12.0615 13.0005 12.0615 13.5107Z" fill="#393938"/>
<path d="M1.90818 14.6076C1.8366 14.536 1.75163 14.4792 1.65811 14.4405C1.56458 14.4018 1.46435 14.3818 1.36312 14.3818C1.26189 14.3818 1.16166 14.4018 1.06813 14.4405C0.974612 14.4792 0.889636 14.536 0.818057 14.6076C0.746479 14.6792 0.6897 14.7642 0.650961 14.8577C0.612223 14.9512 0.592285 15.0514 0.592285 15.1527C0.592285 15.2539 0.612223 15.3541 0.650961 15.4477C0.6897 15.5412 0.746479 15.6262 0.818057 15.6977L2.44968 17.3222C2.51921 17.4004 2.60395 17.4636 2.69874 17.508C2.79352 17.5523 2.89635 17.5768 3.00094 17.5801C3.10553 17.5833 3.20968 17.5652 3.30703 17.5268C3.40437 17.4884 3.49287 17.4306 3.5671 17.3569C3.64134 17.2831 3.69975 17.195 3.73877 17.0979C3.77779 17.0008 3.7966 16.8968 3.79404 16.7922C3.79149 16.6876 3.76762 16.5846 3.72391 16.4895C3.6802 16.3944 3.61755 16.3093 3.53981 16.2392L1.90818 14.6076Z" fill="#393938"/>
<path d="M4.49462 12.5198C4.42803 12.4545 4.3385 12.418 4.24525 12.418C4.152 12.418 4.06247 12.4545 3.99587 12.5198L2.91287 13.6028C2.8476 13.6694 2.81104 13.7589 2.81104 13.8522C2.81104 13.9454 2.8476 14.035 2.91287 14.1016L4.03862 15.2273C4.07174 15.2607 4.11114 15.2872 4.15455 15.3053C4.19797 15.3234 4.24453 15.3327 4.29156 15.3327C4.33859 15.3327 4.38515 15.3234 4.42856 15.3053C4.47198 15.2872 4.51138 15.2607 4.5445 15.2273L5.62037 14.1514C5.6546 14.1196 5.68179 14.081 5.7002 14.0381C5.7186 13.9951 5.72782 13.9488 5.72725 13.9021C5.72794 13.8543 5.71881 13.8068 5.70043 13.7627C5.68204 13.7186 5.6548 13.6787 5.62037 13.6456L4.49462 12.5198Z" fill="#393938"/>
<path d="M16.9491 1.1629C16.7039 0.918316 16.4097 0.728323 16.0859 0.605376C15.762 0.48243 15.4159 0.429307 15.0701 0.449489C14.7243 0.469671 14.3867 0.562702 14.0794 0.722485C13.7721 0.882268 13.502 1.10519 13.2869 1.37665L5.19286 11.2519C5.13378 11.3174 5.10107 11.4024 5.10107 11.4906C5.10107 11.5788 5.13378 11.6638 5.19286 11.7293L6.38986 12.9263C6.45648 12.9859 6.54273 13.0188 6.63211 13.0188C6.72149 13.0188 6.80774 12.9859 6.87436 12.9263L16.7069 4.8109C16.9799 4.59923 17.205 4.33208 17.3672 4.02706C17.5294 3.72204 17.6252 3.38608 17.6481 3.04136C17.6709 2.69664 17.6205 2.35098 17.5 2.02718C17.3795 1.70339 17.1918 1.40882 16.9491 1.1629Z" fill="#393938"/>
</g>
<defs>
<clipPath id="clip0_9217_32252">
<rect width="18" height="18" fill="white" transform="translate(0.111328)"/>
</clipPath>
</defs>
</svg>
