<svg width="19" height="18" viewBox="0 0 19 18" fill="none" xmlns="http://www.w3.org/2000/svg">
<g clip-path="url(#clip0_8537_11356)">
<path d="M14.0184 4.04269C14.5691 3.42897 14.8902 2.78641 15.0028 2.12682C13.4456 0.822876 11.4425 0 9.25732 0C8.12903 0 7.05305 0.218353 6.05769 0.600403C7.72446 2.27032 9.11835 4.24759 10.2086 6.38196C11.8151 5.80106 13.154 5.00633 14.0184 4.04269Z" fill="#2E3138"/>
<path d="M14.8032 4.74719C13.8357 5.8255 12.3976 6.70248 10.6795 7.33983C10.8931 7.80812 11.0893 8.28616 11.274 8.77039C12.1563 8.5806 13.0708 8.47266 14.0034 8.47266C15.4716 8.47266 16.8979 8.72177 18.2131 9.17963C18.2143 9.11934 18.2222 9.0607 18.2222 9C18.2222 6.67845 17.3276 4.56702 15.8747 2.97318C15.6603 3.59088 15.3045 4.18867 14.8032 4.74719Z" fill="#2E3138"/>
<path d="M0.427751 7.10555C1.54877 7.30371 2.79077 7.41797 3.98389 7.41797C5.83344 7.41797 7.61006 7.1554 9.19347 6.70441C8.10239 4.60808 6.69971 2.67874 5.02553 1.06526C2.7471 2.29065 0.989152 4.50797 0.427751 7.10555Z" fill="#2E3138"/>
<path d="M18.1222 10.2655C16.85 9.78662 15.4498 9.52734 14.0034 9.52734C13.1926 9.52734 12.3964 9.61235 11.6284 9.76753C12.4081 12.1056 12.8592 14.6327 12.9362 17.2014C15.679 15.9607 17.6838 13.3472 18.1222 10.2655Z" fill="#2E3138"/>
<path d="M0.222168 9C0.222168 11.7735 1.55907 14.2914 3.54347 15.937C3.75372 14.5383 4.38434 13.1623 5.41142 12.0107C6.6331 10.6409 8.32843 9.61523 10.2483 9.0298C10.0696 8.56892 9.87448 8.11711 9.66849 7.67162C7.95297 8.18042 6.02075 8.47266 3.98389 8.47266C2.73776 8.47266 1.44096 8.35359 0.265427 8.14705C0.238785 8.42816 0.222168 8.71216 0.222168 9Z" fill="#2E3138"/>
<path d="M6.19887 12.7126C5.16135 13.876 4.59926 15.2405 4.52716 16.6365C5.90224 17.4952 7.52011 18 9.25732 18C10.1707 18 11.0519 17.861 11.8829 17.606C11.8425 14.9803 11.4017 12.3985 10.6003 10.0221C8.84589 10.5482 7.30272 11.4748 6.19887 12.7126Z" fill="#2E3138"/>
</g>
<defs>
<clipPath id="clip0_8537_11356">
<rect width="18" height="18" fill="white" transform="translate(0.222168)"/>
</clipPath>
</defs>
</svg>
