<svg width="19" height="18" viewBox="0 0 19 18" fill="none" xmlns="http://www.w3.org/2000/svg">
<g clip-path="url(#clip0_8537_11373)">
<path d="M9.86142 17.6685C9.93243 17.5357 10.0524 17.4372 10.1952 17.3944C10.3377 17.3516 10.4909 17.3684 10.6215 17.4408C10.8866 17.589 11.1587 17.722 11.4301 17.8502C12.1036 17.7269 12.7606 17.5252 13.3887 17.2489C6.85179 14.913 3.31617 7.72217 5.39933 1C4.96874 1.24663 4.55942 1.52974 4.17545 1.84617C4.0944 2.14606 4.01765 2.44887 3.95716 2.7495C3.90408 3.01436 3.67504 3.20481 3.40941 3.20481C3.25592 3.20602 3.11007 3.13841 3.01037 3.01996C0.760565 5.71948 0.253939 9.50109 1.71165 12.7145C3.16937 15.928 6.32675 17.9898 9.80547 18C9.79017 17.8862 9.80953 17.7704 9.86142 17.6685ZM2.75407 7.84962C2.63023 7.06644 2.56782 6.27476 2.56759 5.48137C2.56759 5.38116 2.56759 5.28119 2.56759 5.18099C2.58026 4.86942 2.83202 4.62328 3.13853 4.62303C3.287 4.62595 3.42806 4.68895 3.53087 4.79767C3.63367 4.90663 3.68986 5.05256 3.68699 5.20361V5.48137C3.68723 6.21371 3.74485 6.94459 3.85913 7.66744C3.88304 7.81654 3.84742 7.96928 3.76063 8.09162C3.6736 8.21421 3.54258 8.29642 3.39578 8.32049C3.36638 8.32536 3.33625 8.32755 3.30636 8.3273C3.03213 8.3273 2.7983 8.12494 2.75407 7.84962ZM5.27214 13.0791C5.14375 13.1545 4.99073 13.175 4.84752 13.1358C4.70407 13.0964 4.58189 13.0011 4.50778 12.8702C4.06905 12.0963 3.70062 11.2832 3.40702 10.4409C3.30373 10.1447 3.45603 9.81923 3.74724 9.71416C4.03869 9.60884 4.35859 9.76377 4.46187 10.0603C4.733 10.8371 5.07298 11.5872 5.47752 12.3013C5.55163 12.4324 5.57148 12.5878 5.53274 12.7338C5.49401 12.8797 5.39981 13.0037 5.27118 13.0791H5.27214ZM8.68296 16.8544C8.58876 16.9712 8.45272 17.0451 8.30496 17.0599C8.1572 17.0745 8.00969 17.0291 7.89516 16.933C7.52745 16.6256 7.16762 16.2943 6.82907 15.9489C6.54934 15.6641 6.27678 15.363 6.02096 15.0568C5.82108 14.817 5.85001 14.4577 6.08551 14.2544C6.32125 14.0508 6.67439 14.0802 6.87426 14.3201C7.11048 14.6046 7.36128 14.8802 7.62021 15.1443C7.93437 15.4632 8.26551 15.7706 8.60573 16.0552C8.84291 16.2549 8.8771 16.6122 8.682 16.8544H8.68296Z" fill="#2E3138"/>
<path d="M16.2154 14.4041C16.4665 14.4565 16.7242 14.488 16.9762 14.5211C19.1017 11.8112 19.488 8.132 17.9717 5.04306C16.4552 1.95412 13.3016 -0.00359997 9.84763 4.97011e-06C9.63105 4.97011e-06 9.41592 0.015386 9.20006 0.0305267C9.08682 0.255474 8.97382 0.484988 8.87845 0.719068C8.79249 0.93248 8.5846 1.07235 8.35329 1.07235C8.28134 1.07235 8.20987 1.05841 8.14323 1.03125C7.85373 0.915416 7.71345 0.588089 7.82958 0.299935C7.83972 0.275181 7.85107 0.251629 7.86121 0.226875C7.50218 0.307385 7.14845 0.409765 6.80221 0.533294C5.47447 3.69938 5.59906 7.28388 7.14314 10.351C8.68722 13.4183 11.4975 15.6634 14.8399 16.5C15.2754 16.2092 15.6849 15.8816 16.064 15.5207C16.0375 15.5151 16.0109 15.5118 15.9848 15.5062C15.6794 15.4426 15.4833 15.1445 15.5473 14.8405C15.6111 14.5363 15.9105 14.3411 16.2161 14.4048L16.2154 14.4041ZM7.02193 4.56264V4.49559C7.02145 3.78975 7.08688 3.08534 7.21751 2.39127C7.25469 2.19372 7.39497 2.03102 7.58548 1.96445C7.77598 1.89764 7.98773 1.93729 8.14106 2.06803C8.29438 2.19901 8.36585 2.40137 8.32842 2.59892C8.21083 3.22425 8.15192 3.85944 8.15216 4.49559C8.15844 4.81138 7.91192 5.07526 7.59489 5.09185H7.58717C7.44133 5.09761 7.29912 5.04474 7.19288 4.94525C7.08664 4.84575 7.02507 4.7078 7.02193 4.56264ZM8.61671 9.10822C8.47836 9.16541 8.32263 9.16541 8.18403 9.10846C8.04544 9.05126 7.93558 8.94167 7.87812 8.80396C7.59876 8.13224 7.3858 7.43529 7.24237 6.72271C7.18829 6.4211 7.38628 6.13199 7.68809 6.07214C7.98991 6.01206 8.28448 6.20361 8.35063 6.50257C8.47909 7.14449 8.6708 7.77223 8.92239 8.3769C9.03949 8.66289 8.90307 8.98925 8.61671 9.10822ZM11.0909 12.4151C10.869 12.6336 10.5111 12.6314 10.2919 12.4106C9.77785 11.8943 9.31499 11.3303 8.90959 10.7259C8.78356 10.5593 8.76062 10.3373 8.84971 10.1486C8.93881 9.95994 9.12521 9.83593 9.33431 9.82608C9.54364 9.81622 9.74115 9.92221 9.84763 10.1015C10.2129 10.6458 10.6292 11.1544 11.0909 11.6204C11.3111 11.84 11.3111 12.1955 11.0909 12.4151ZM14.6298 14.5526C14.5709 14.6898 14.4598 14.7985 14.3207 14.854C14.1817 14.9097 14.0262 14.9083 13.8883 14.8497C13.2149 14.5642 12.5714 14.2135 11.9668 13.8028C11.7928 13.6922 11.6933 13.4957 11.7075 13.2907C11.7215 13.0857 11.8468 12.9044 12.0345 12.8182C12.2221 12.7321 12.4418 12.7547 12.6077 12.877C13.1502 13.2462 13.728 13.5613 14.3326 13.8182C14.6182 13.94 14.7513 14.2688 14.6303 14.5538L14.6298 14.5526Z" fill="#2E3138"/>
</g>
<defs>
<clipPath id="clip0_8537_11373">
<rect width="18" height="18" fill="white" transform="translate(0.888672)"/>
</clipPath>
</defs>
</svg>
