<svg width="19" height="18" viewBox="0 0 19 18" fill="none" xmlns="http://www.w3.org/2000/svg">
<g clip-path="url(#clip0_9217_34460)">
<path d="M9.73379 4.2334C9.68655 4.2334 9.64124 4.25216 9.60784 4.28557C9.57443 4.31897 9.55566 4.36428 9.55566 4.41152V4.53977C9.55566 5.01219 9.74333 5.46526 10.0774 5.79931C10.4114 6.13336 10.8645 6.32102 11.3369 6.32102C11.8093 6.32102 12.2624 6.13336 12.5964 5.79931C12.9305 5.46526 13.1182 5.01219 13.1182 4.53977V4.41152C13.1182 4.36428 13.0994 4.31897 13.066 4.28557C13.0326 4.25216 12.9873 4.2334 12.94 4.2334H9.73379Z" fill="#393938"/>
<path d="M4.81776 14.1017L5.43763 12.7408C5.44129 12.6861 5.43227 12.6313 5.41126 12.5806C5.39025 12.5299 5.35782 12.4848 5.31651 12.4487L3.85588 11.2018C3.6602 11.0284 3.50461 10.8144 3.39988 10.5748C3.38244 10.5334 3.34999 10.5001 3.30902 10.4816C3.26806 10.4631 3.22162 10.4608 3.17901 10.4751C2.55361 10.6951 2.01202 11.104 1.6291 11.6451C1.24618 12.1863 1.04085 12.8331 1.04151 13.4961V15.9898C1.04151 16.0843 1.07904 16.1749 1.14585 16.2417C1.21266 16.3086 1.30327 16.3461 1.39776 16.3461H5.01726C5.05202 16.3462 5.08606 16.3362 5.11518 16.3172C5.1443 16.2982 5.16722 16.2711 5.18113 16.2392C5.19461 16.2072 5.19842 16.1719 5.19209 16.1377C5.18576 16.1035 5.16957 16.0719 5.14551 16.0468C4.90534 15.791 4.74611 15.4698 4.6878 15.1238C4.62949 14.7777 4.6747 14.4222 4.81776 14.1017Z" fill="#393938"/>
<path d="M17.7709 9.12108L15.3484 7.57496V6.52758C15.3469 6.45103 15.3258 6.37614 15.2871 6.31004C15.2485 6.24395 15.1935 6.18884 15.1276 6.14996C15.0582 6.10994 14.9796 6.08887 14.8996 6.08887C14.8195 6.08887 14.7409 6.10994 14.6716 6.14996C13.6428 6.83457 12.7023 7.64343 11.8714 8.55821C11.8406 8.59906 11.8254 8.64962 11.8287 8.70071C11.8377 8.75014 11.8627 8.79523 11.8999 8.82896L12.7051 9.39183C13.0971 9.63826 13.3778 10.0277 13.4876 10.4775C13.5974 10.9274 13.5277 11.4023 13.2933 11.8016C13.0589 12.201 12.6782 12.4934 12.2318 12.6168C11.7855 12.7402 11.3087 12.6849 10.9024 12.4627L9.35631 11.3797C9.15452 11.259 8.96378 11.1207 8.78631 10.9665C8.75395 10.9438 8.71539 10.9316 8.67587 10.9316C8.63635 10.9316 8.59779 10.9438 8.56543 10.9665C8.53444 10.9898 8.51158 11.0224 8.50007 11.0594C8.48857 11.0965 8.489 11.1363 8.50131 11.1731C8.84415 12.0067 8.96446 12.9152 8.85043 13.8093C8.82388 13.8917 8.79296 13.9725 8.75781 14.0516L8.04531 15.5835C7.96893 15.7611 7.86021 15.9229 7.72468 16.0608C7.70707 16.0898 7.69775 16.1231 7.69775 16.157C7.69775 16.1909 7.70707 16.2242 7.72468 16.2532C7.73859 16.2851 7.76151 16.3122 7.79063 16.3312C7.81975 16.3502 7.85379 16.3602 7.88856 16.3601H13.4746C13.569 16.3601 13.6597 16.3225 13.7265 16.2557C13.7933 16.1889 13.8308 16.0983 13.8308 16.0038V14.9351C13.8396 13.4203 14.3093 11.9441 15.1774 10.7028L16.6594 10.9736C16.8771 11.0369 17.1094 11.0289 17.3223 10.9507C17.5351 10.8725 17.7173 10.7282 17.8422 10.539L18.0631 9.99033C18.1245 9.83424 18.1289 9.66147 18.0754 9.50247C18.022 9.34346 17.9142 9.20841 17.7709 9.12108Z" fill="#393938"/>
<path d="M7.41818 15.277C7.41818 15.277 8.13068 13.6454 8.1663 13.5955C8.33253 13.0056 8.32697 12.3804 8.15028 11.7936C7.97358 11.2067 7.6331 10.6824 7.1688 10.2824L6.70568 9.87623L8.13068 8.71485L8.3658 9.25635C8.64129 9.89516 9.11623 10.4276 9.71955 10.774L11.2586 11.8499C11.4198 11.9394 11.6014 11.986 11.7858 11.9852C12.0213 11.9855 12.2503 11.908 12.4372 11.7647C12.6241 11.6214 12.7584 11.4205 12.8193 11.193C12.8803 10.9655 12.8644 10.7243 12.7741 10.5068C12.6838 10.2893 12.5243 10.1077 12.3202 9.99023L10.8026 8.92148C10.6004 8.80799 10.4423 8.62981 10.3537 8.4156L9.55568 6.57735C9.49181 6.4267 9.3942 6.29273 9.27037 6.18577C9.14655 6.0788 8.99982 6.00169 8.84149 5.96039C8.68316 5.91909 8.51746 5.91469 8.35716 5.94754C8.19686 5.98039 8.04625 6.0496 7.91693 6.14985L4.35443 8.99985C4.23107 9.09854 4.13079 9.22302 4.06064 9.36457C3.99048 9.50611 3.95214 9.66129 3.9483 9.81923C3.94665 9.97627 3.97963 10.1318 4.0449 10.2746C4.11017 10.4175 4.20612 10.5442 4.32593 10.6457L5.75093 11.8926C5.89645 12.019 6.00507 12.1825 6.06527 12.3656C6.12548 12.5487 6.13504 12.7447 6.09293 12.9329L5.44455 14.3579C5.32267 14.6196 5.30974 14.919 5.40862 15.1902C5.5075 15.4615 5.71008 15.6823 5.9718 15.8042C6.23352 15.9261 6.53294 15.939 6.80419 15.8402C7.07543 15.7413 7.29629 15.5387 7.41818 15.277Z" fill="#393938"/>
<path d="M14.187 3.5208C14.2338 3.5208 14.2801 3.51158 14.3233 3.49368C14.3666 3.47577 14.4058 3.44953 14.4389 3.41645C14.472 3.38337 14.4982 3.3441 14.5161 3.30088C14.534 3.25765 14.5432 3.21133 14.5432 3.16455C14.5432 3.11776 14.534 3.07144 14.5161 3.02821C14.4982 2.98499 14.472 2.94572 14.4389 2.91264C14.4058 2.87956 14.3666 2.85332 14.3233 2.83541C14.2801 2.81751 14.2338 2.8083 14.187 2.8083H13.3249C13.1905 2.54828 13.0042 2.31862 12.7775 2.13355C12.5507 1.94849 12.2884 1.81196 12.0067 1.73242C11.4926 1.58947 10.9436 1.644 10.4677 1.88527C9.99173 2.12655 9.62323 2.53712 9.43462 3.0363C9.41372 3.08975 9.40604 3.14747 9.41224 3.20454C9.41845 3.26161 9.43834 3.31633 9.47025 3.36405C9.50259 3.4119 9.54608 3.45117 9.59697 3.47847C9.64786 3.50578 9.70462 3.5203 9.76237 3.5208H14.187Z" fill="#393938"/>
</g>
<defs>
<clipPath id="clip0_9217_34460">
<rect width="18" height="18" fill="white" transform="translate(0.555664)"/>
</clipPath>
</defs>
</svg>
