<svg width="19" height="18" viewBox="0 0 19 18" fill="none" xmlns="http://www.w3.org/2000/svg">
<g clip-path="url(#clip0_9217_35650)">
<path d="M7.30518 2.23145C7.30518 2.46536 7.35125 2.69699 7.44077 2.9131C7.53028 3.12921 7.66149 3.32557 7.82689 3.49098C7.9923 3.65638 8.18866 3.78759 8.40477 3.87711C8.62088 3.96662 8.85251 4.0127 9.08643 4.0127C9.32034 4.0127 9.55197 3.96662 9.76808 3.87711C9.98419 3.78759 10.1806 3.65638 10.346 3.49098C10.5114 3.32557 10.6426 3.12921 10.7321 2.9131C10.8216 2.69699 10.8677 2.46536 10.8677 2.23145C10.8677 1.75903 10.68 1.30596 10.346 0.971911C10.0119 0.637862 9.55884 0.450195 9.08643 0.450195C8.61401 0.450195 8.16094 0.637862 7.82689 0.971911C7.49284 1.30596 7.30518 1.75903 7.30518 2.23145Z" fill="#393938"/>
<path d="M15.8198 14.1946L16.2473 13.361C16.2985 13.2776 16.3321 13.1846 16.3458 13.0876C16.3595 12.9907 16.3531 12.892 16.327 12.7977C16.3009 12.7033 16.2556 12.6154 16.194 12.5393C16.1324 12.4633 16.0558 12.4007 15.9689 12.3556C15.8821 12.3104 15.7869 12.2836 15.6892 12.2769C15.5916 12.2702 15.4936 12.2837 15.4014 12.3165C15.3091 12.3494 15.2247 12.4008 15.1532 12.4678C15.0818 12.5347 15.0249 12.6156 14.9861 12.7055C14.9861 12.7055 14.523 13.589 14.5016 13.6032C14.4713 13.6275 14.4336 13.6407 14.3948 13.6407C14.3559 13.6407 14.3182 13.6275 14.2879 13.6032L11.5804 9.89824C11.5543 9.86043 11.5203 9.82881 11.4806 9.80561C11.5674 9.61815 11.5967 9.40922 11.565 9.20511C11.5334 9.001 11.442 8.81082 11.3025 8.65849L8.09627 5.09599C7.98548 4.97258 7.8475 4.87665 7.69323 4.81579C7.53896 4.75493 7.37265 4.7308 7.20745 4.74531C7.04224 4.75983 6.88269 4.81259 6.7414 4.89942C6.60011 4.98626 6.48097 5.10478 6.39339 5.24561C3.31539 10.2331 3.33677 10.2331 3.28689 10.3899C3.23073 10.5177 3.20394 10.6565 3.20852 10.796V12.7197C3.20774 12.9071 3.15866 13.0912 3.06602 13.2541L1.52702 15.9545C1.42844 16.1943 1.42042 16.4618 1.50445 16.7071C1.58847 16.9524 1.75881 17.1588 1.98373 17.2878C2.20865 17.4169 2.47281 17.4597 2.72698 17.4084C2.98115 17.3571 3.208 17.2151 3.36527 17.009L4.89714 14.3015C5.17571 13.8156 5.32303 13.2656 5.32464 12.7055V12.3849L6.28652 12.7839C6.5429 12.8805 6.75239 13.0718 6.87172 13.3185C6.99106 13.5651 7.01112 13.8481 6.92777 14.1091L5.98727 16.1255C5.89279 16.3948 5.90914 16.6905 6.03274 16.9478C6.15634 17.205 6.37705 17.4026 6.64633 17.497C6.91561 17.5915 7.21139 17.5752 7.46861 17.4516C7.72583 17.328 7.92341 17.1073 8.01789 16.838L8.93702 14.8216C9.19022 14.0528 9.1446 13.2167 8.80924 12.48C8.47388 11.7433 7.87337 11.1598 7.12727 10.8459L6.03002 10.3542C6.00626 10.3454 5.98488 10.3311 5.96757 10.3125C5.95026 10.294 5.93749 10.2717 5.93027 10.2474C5.91286 10.199 5.91286 10.1461 5.93027 10.0977L7.35527 7.77499C7.37071 7.75216 7.3907 7.73277 7.414 7.71806C7.4373 7.70334 7.4634 7.69361 7.49064 7.68949C7.51876 7.68859 7.54672 7.69386 7.57257 7.70494C7.59843 7.71602 7.62153 7.73263 7.64027 7.75361L9.72789 10.0692C9.88557 10.2405 10.0965 10.3535 10.3264 10.3899C10.3378 10.5099 10.3794 10.6252 10.4475 10.7247L13.1693 14.444C13.3168 14.636 13.5067 14.7913 13.7243 14.8976C13.9419 15.0039 14.1811 15.0584 14.4233 15.0567C14.7123 15.053 14.9949 14.9708 15.2408 14.8189C15.4868 14.6671 15.6869 14.4513 15.8198 14.1946Z" fill="#393938"/>
<path d="M18.1712 16.3033C18.1712 16.1144 18.0961 15.9331 17.9625 15.7995C17.8289 15.6659 17.6477 15.5908 17.4587 15.5908H14.9649C14.776 15.5908 14.5947 15.6659 14.4611 15.7995C14.3275 15.9331 14.2524 16.1144 14.2524 16.3033C14.2524 16.4923 14.3275 16.6735 14.4611 16.8071C14.5947 16.9408 14.776 17.0158 14.9649 17.0158H17.4587C17.5523 17.0158 17.6449 16.9974 17.7314 16.9616C17.8178 16.9258 17.8963 16.8733 17.9625 16.8071C18.0287 16.741 18.0811 16.6624 18.117 16.576C18.1528 16.4895 18.1712 16.3969 18.1712 16.3033Z" fill="#393938"/>
</g>
<defs>
<clipPath id="clip0_9217_35650">
<rect width="18" height="18" fill="white" transform="translate(0.777832)"/>
</clipPath>
</defs>
</svg>
