<svg width="19" height="18" viewBox="0 0 19 18" fill="none" xmlns="http://www.w3.org/2000/svg">
<g clip-path="url(#clip0_8429_16814)">
<path d="M8.59986 0.0347402C6.58628 0.22251 4.62062 1.08924 3.07581 2.63318C1.53099 4.17668 0.665136 6.14233 0.477806 8.15855C2.68883 8.41492 5.0397 9.54506 6.96973 11.4751C8.90064 13.4056 10.0321 15.7582 10.2863 17.9675C12.3056 17.7801 14.2664 16.9138 15.8125 15.3708C17.3569 13.8277 18.2219 11.8612 18.4083 9.84541C16.2026 9.58948 13.8478 8.45934 11.9177 6.52886C9.98901 4.59883 8.85755 2.24577 8.59986 0.0347402Z" fill="#2E3138"/>
<path d="M18.4444 8.7289C18.3789 6.51479 17.5029 4.32135 15.8152 2.63142C14.1266 0.94149 11.9305 0.0685999 9.71637 0C9.96526 1.93355 10.9921 4.01134 12.7132 5.73293C14.4344 7.45452 16.5095 8.47956 18.4444 8.7289Z" fill="#2E3138"/>
<path d="M0.444824 9.27418C0.509906 11.4874 1.38631 13.6813 3.07581 15.3703C4.76398 17.0585 6.95742 17.9358 9.17108 18C8.92219 16.0691 7.89671 13.9926 6.17468 12.271C4.4544 10.5503 2.37706 9.52483 0.444824 9.27418Z" fill="#2E3138"/>
</g>
<defs>
<clipPath id="clip0_8429_16814">
<rect width="18" height="18" fill="white" transform="translate(0.444336)"/>
</clipPath>
</defs>
</svg>
