<svg width="24" height="25" viewBox="0 0 24 25" fill="none" xmlns="http://www.w3.org/2000/svg">
<path d="M13.25 12.5C13.9404 12.5 14.5 11.9404 14.5 11.25C14.5 10.5596 13.9404 10 13.25 10C12.5596 10 12 10.5596 12 11.25C12 11.9404 12.5596 12.5 13.25 12.5Z" fill="#2D0D02"/>
<path d="M16.19 2.5H7.81C4.17 2.5 2 4.67 2 8.31V16.68C2 20.33 4.17 22.5 7.81 22.5H16.18C19.82 22.5 21.99 20.33 21.99 16.69V8.31C22 4.67 19.83 2.5 16.19 2.5ZM15.89 13.97C14.86 14.99 13.39 15.31 12.09 14.9L11.03 15.95C10.94 16.04 10.78 16.04 10.68 15.95L9.71 14.98C9.57 14.84 9.33 14.84 9.18 14.98C9.03 15.12 9.04 15.36 9.18 15.51L10.15 16.48C10.25 16.58 10.25 16.74 10.15 16.83L9.74 17.24C9.57 17.42 9.24 17.53 9 17.5L7.91 17.35C7.55 17.3 7.22 16.96 7.16 16.6L7.01 15.51C6.97 15.27 7.09 14.94 7.25 14.77L9.6 12.42C9.2 11.12 9.51 9.65 10.54 8.62C12.01 7.15 14.41 7.15 15.89 8.62C17.37 10.09 17.37 12.49 15.89 13.97Z" fill="#2D0D02"/>
</svg>
