<svg width="41" height="40" viewBox="0 0 41 40" fill="none" xmlns="http://www.w3.org/2000/svg">
<path opacity="0.4" d="M11.7169 32.833C13.0835 31.3663 15.1669 31.483 16.3669 33.083L18.0502 35.333C19.4002 37.1163 21.5836 37.1163 22.9336 35.333L24.6169 33.083C25.8169 31.483 27.9002 31.3663 29.2669 32.833C32.2335 35.9997 34.6502 34.9497 34.6502 30.5163V11.733C34.6502 5.01634 33.0836 3.33301 26.7836 3.33301H14.1836C7.88356 3.33301 6.31689 5.01634 6.31689 11.733V30.4997C6.33356 34.9497 8.76688 35.983 11.7169 32.833Z" fill="#9B9B9B"/>
<path d="M25.0832 17.917H15.9165C15.2332 17.917 14.6665 17.3503 14.6665 16.667C14.6665 15.9837 15.2332 15.417 15.9165 15.417H25.0832C25.7665 15.417 26.3332 15.9837 26.3332 16.667C26.3332 17.3503 25.7665 17.917 25.0832 17.917Z" fill="#9B9B9B"/>
</svg>
