<svg width="18" height="18" viewBox="0 0 18 18" fill="none" xmlns="http://www.w3.org/2000/svg">
<path d="M8.97274 17.6685C9.04375 17.5357 9.16378 17.4372 9.30651 17.3944C9.44901 17.3516 9.60226 17.3684 9.7328 17.4408C9.99795 17.589 10.27 17.722 10.5414 17.8502C11.2149 17.7269 11.8719 17.5252 12.5 17.2489C5.96312 14.913 2.4275 7.72217 4.51066 1C4.08007 1.24663 3.67075 1.52974 3.28677 1.84617C3.20572 2.14606 3.12898 2.44887 3.06849 2.7495C3.01541 3.01436 2.78637 3.20481 2.52074 3.20481C2.36725 3.20602 2.2214 3.13841 2.1217 3.01996C-0.128107 5.71948 -0.634733 9.50109 0.822982 12.7145C2.2807 15.928 5.43808 17.9898 8.9168 18C8.9015 17.8862 8.92086 17.7704 8.97274 17.6685ZM1.8654 7.84962C1.74155 7.06644 1.67915 6.27476 1.67891 5.48137C1.67891 5.38116 1.67891 5.28119 1.67891 5.18099C1.69159 4.86942 1.94334 4.62328 2.24985 4.62303C2.39833 4.62595 2.53939 4.68895 2.6422 4.79767C2.745 4.90663 2.80119 5.05256 2.79832 5.20361V5.48137C2.79856 6.21371 2.85618 6.94459 2.97046 7.66744C2.99437 7.81654 2.95875 7.96928 2.87196 8.09162C2.78493 8.21421 2.65391 8.29642 2.50711 8.32049C2.4777 8.32536 2.44758 8.32755 2.41769 8.3273C2.14346 8.3273 1.90963 8.12494 1.8654 7.84962ZM4.38347 13.0791C4.25508 13.1545 4.10206 13.175 3.95885 13.1358C3.8154 13.0964 3.69322 13.0011 3.61911 12.8702C3.18038 12.0963 2.81195 11.2832 2.51835 10.4409C2.41506 10.1447 2.56736 9.81923 2.85857 9.71416C3.15002 9.60884 3.46992 9.76377 3.5732 10.0603C3.84433 10.8371 4.18431 11.5872 4.58884 12.3013C4.66296 12.4324 4.6828 12.5878 4.64407 12.7338C4.60534 12.8797 4.51114 13.0037 4.38251 13.0791H4.38347ZM7.79428 16.8544C7.70008 16.9712 7.56404 17.0451 7.41629 17.0599C7.26853 17.0745 7.12102 17.0291 7.00649 16.933C6.63878 16.6256 6.27895 16.2943 5.9404 15.9489C5.66067 15.6641 5.38811 15.363 5.13229 15.0568C4.93241 14.817 4.96134 14.4577 5.19684 14.2544C5.43258 14.0508 5.78571 14.0802 5.98559 14.3201C6.22181 14.6046 6.47261 14.8802 6.73154 15.1443C7.0457 15.4632 7.37684 15.7706 7.71706 16.0552C7.95423 16.2549 7.98842 16.6122 7.79333 16.8544H7.79428Z" fill="#393938"/>
<path d="M15.3267 14.4041C15.5779 14.4565 15.8355 14.488 16.0876 14.5211C18.213 11.8112 18.5994 8.132 17.0831 5.04306C15.5665 1.95412 12.4129 -0.00359997 8.95896 4.97011e-06C8.74238 4.97011e-06 8.52724 0.015386 8.31139 0.0305267C8.19815 0.255474 8.08515 0.484988 7.98977 0.719068C7.90382 0.93248 7.69593 1.07235 7.46462 1.07235C7.39267 1.07235 7.3212 1.05841 7.25456 1.03125C6.96506 0.915416 6.82477 0.588089 6.94091 0.299935C6.95105 0.275181 6.9624 0.251629 6.97254 0.226875C6.6135 0.307385 6.25978 0.409765 5.91354 0.533294C4.5858 3.69938 4.71039 7.28388 6.25447 10.351C7.79854 13.4183 10.6088 15.6634 13.9512 16.5C14.3868 16.2092 14.7963 15.8816 15.1754 15.5207C15.1488 15.5151 15.1222 15.5118 15.0962 15.5062C14.7907 15.4426 14.5947 15.1445 14.6586 14.8405C14.7224 14.5363 15.0218 14.3411 15.3275 14.4048L15.3267 14.4041ZM6.13326 4.56264V4.49559C6.13278 3.78975 6.19821 3.08534 6.32883 2.39127C6.36602 2.19372 6.5063 2.03102 6.69681 1.96445C6.88731 1.89764 7.09906 1.93729 7.25238 2.06803C7.4057 2.19901 7.47717 2.40137 7.43975 2.59892C7.32216 3.22425 7.26325 3.85944 7.26349 4.49559C7.26977 4.81138 7.02325 5.07526 6.70622 5.09185H6.69849C6.55266 5.09761 6.41044 5.04474 6.30421 4.94525C6.19797 4.84575 6.1364 4.7078 6.13326 4.56264ZM7.72804 9.10822C7.58969 9.16541 7.43395 9.16541 7.29536 9.10846C7.15677 9.05126 7.04691 8.94167 6.98944 8.80396C6.71008 8.13224 6.49713 7.43529 6.3537 6.72271C6.29962 6.4211 6.49761 6.13199 6.79942 6.07214C7.10123 6.01206 7.39581 6.20361 7.46196 6.50257C7.59041 7.14449 7.78213 7.77223 8.03372 8.3769C8.15082 8.66289 8.0144 8.98925 7.72804 9.10822ZM10.2022 12.4151C9.9803 12.6336 9.62247 12.6314 9.40323 12.4106C8.88918 11.8943 8.42632 11.3303 8.02092 10.7259C7.89488 10.5593 7.87195 10.3373 7.96104 10.1486C8.05014 9.95994 8.23654 9.83593 8.44563 9.82608C8.65497 9.81622 8.85248 9.92221 8.95896 10.1015C9.32427 10.6458 9.74053 11.1544 10.2022 11.6204C10.4224 11.84 10.4224 12.1955 10.2022 12.4151ZM13.7411 14.5526C13.6822 14.6898 13.5712 14.7985 13.4321 14.854C13.293 14.9097 13.1375 14.9083 12.9996 14.8497C12.3262 14.5642 11.6828 14.2135 11.0782 13.8028C10.9041 13.6922 10.8046 13.4957 10.8189 13.2907C10.8329 13.0857 10.9582 12.9044 11.1458 12.8182C11.3334 12.7321 11.5531 12.7547 11.719 12.877C12.2615 13.2462 12.8393 13.5613 13.4439 13.8182C13.7295 13.94 13.8626 14.2688 13.7416 14.5538L13.7411 14.5526Z" fill="#393938"/>
</svg>
