<svg width="24" height="25" viewBox="0 0 24 25" fill="none" xmlns="http://www.w3.org/2000/svg">
<rect width="24" height="25" fill="#E4E4E4"/>
<path d="M-142 -623C-142 -624.104 -141.105 -625 -140 -625H8671C8672.1 -625 8673 -624.105 8673 -623V7114C8673 7115.1 8672.1 7116 8671 7116H-140C-141.105 7116 -142 7115.1 -142 7114V-623Z" fill="#F9F9F9"/>
<path d="M-140 -624H8671V-626H-140V-624ZM8672 -623V7114H8674V-623H8672ZM8671 7115H-140V7117H8671V7115ZM-141 7114V-623H-143V7114H-141ZM-140 7115C-140.552 7115 -141 7114.55 -141 7114H-143C-143 7115.66 -141.657 7117 -140 7117V7115ZM8672 7114C8672 7114.55 8671.55 7115 8671 7115V7117C8672.66 7117 8674 7115.66 8674 7114H8672ZM8671 -624C8671.55 -624 8672 -623.552 8672 -623H8674C8674 -624.657 8672.66 -626 8671 -626V-624ZM-140 -626C-141.657 -626 -143 -624.657 -143 -623H-141C-141 -623.552 -140.552 -624 -140 -624V-626Z" fill="black" fill-opacity="0.1"/>
<g clip-path="url(#clip0_936_16091)">
<rect width="375" height="812" transform="translate(-42 -390)" fill="white"/>
<g filter="url(#filter0_d_936_16091)">
<rect x="-26" y="-19" width="343" height="63" rx="10" fill="white" shape-rendering="crispEdges"/>
<rect x="-10" y="-9.5" width="44" height="44" rx="22" fill="#7154E8" fill-opacity="0.05"/>
<path d="M19.3399 14.99L18.3399 13.33C18.1299 12.96 17.9399 12.26 17.9399 11.85V9.32C17.9399 6.97 16.5599 4.94 14.5699 3.99C14.0499 3.07 13.0899 2.5 11.9899 2.5C10.8999 2.5 9.91994 3.09 9.39994 4.02C7.44994 4.99 6.09994 7 6.09994 9.32V11.85C6.09994 12.26 5.90994 12.96 5.69994 13.32L4.68994 14.99C4.28994 15.66 4.19994 16.4 4.44994 17.08C4.68994 17.75 5.25994 18.27 5.99994 18.52C7.93994 19.18 9.97994 19.5 12.0199 19.5C14.0599 19.5 16.0999 19.18 18.0399 18.53C18.7399 18.3 19.2799 17.77 19.5399 17.08C19.7999 16.39 19.7299 15.63 19.3399 14.99Z" fill="#7154E8"/>
<path d="M14.8302 20.51C14.4102 21.67 13.3002 22.5 12.0002 22.5C11.2102 22.5 10.4302 22.18 9.88018 21.61C9.56018 21.31 9.32018 20.91 9.18018 20.5C9.31018 20.52 9.44018 20.53 9.58018 20.55C9.81018 20.58 10.0502 20.61 10.2902 20.63C10.8602 20.68 11.4402 20.71 12.0202 20.71C12.5902 20.71 13.1602 20.68 13.7202 20.63C13.9302 20.61 14.1402 20.6 14.3402 20.57C14.5002 20.55 14.6602 20.53 14.8302 20.51Z" fill="#7154E8"/>
</g>
</g>
<defs>
<filter id="filter0_d_936_16091" x="-59" y="-51" width="409" height="129" filterUnits="userSpaceOnUse" color-interpolation-filters="sRGB">
<feFlood flood-opacity="0" result="BackgroundImageFix"/>
<feColorMatrix in="SourceAlpha" type="matrix" values="0 0 0 0 0 0 0 0 0 0 0 0 0 0 0 0 0 0 127 0" result="hardAlpha"/>
<feOffset dy="1"/>
<feGaussianBlur stdDeviation="16.5"/>
<feComposite in2="hardAlpha" operator="out"/>
<feColorMatrix type="matrix" values="0 0 0 0 0 0 0 0 0 0 0 0 0 0 0 0 0 0 0.03 0"/>
<feBlend mode="normal" in2="BackgroundImageFix" result="effect1_dropShadow_936_16091"/>
<feBlend mode="normal" in="SourceGraphic" in2="effect1_dropShadow_936_16091" result="shape"/>
</filter>
<clipPath id="clip0_936_16091">
<rect width="375" height="812" fill="white" transform="translate(-42 -390)"/>
</clipPath>
</defs>
</svg>
