<svg width="24" height="25" viewBox="0 0 24 25" fill="none" xmlns="http://www.w3.org/2000/svg">
<path d="M18.6364 7.71293C18.8701 6.18888 18.6364 5.17285 17.8182 4.23497C16.9222 3.17986 15.2859 2.75 13.1822 2.75H7.14363C6.71509 2.75 6.36446 3.06263 6.28654 3.49248L3.75425 19.5145C3.71529 19.8272 3.94904 20.1007 4.26071 20.1007H8.00071L7.72801 21.742C7.68905 22.0155 7.88384 22.25 8.19551 22.25H11.3511C11.7407 22.25 12.0524 21.9765 12.0913 21.6247L12.7536 17.4825C12.7926 17.1308 13.1432 16.8572 13.4939 16.8572H13.9614C17.0001 16.8572 19.4155 15.6067 20.1168 12.0115C20.3895 10.5266 20.2726 9.23697 19.4934 8.37725C19.2597 8.10371 18.987 7.90832 18.6364 7.71293" fill="#009CDE"/>
<path d="M18.6364 7.71293C18.8701 6.18888 18.6364 5.17285 17.8182 4.23497C16.9222 3.17986 15.2859 2.75 13.1822 2.75H7.14363C6.71509 2.75 6.36446 3.06263 6.28654 3.49248L3.75425 19.5145C3.71529 19.8272 3.94904 20.1007 4.26071 20.1007H8.00071L8.89676 14.3171C8.97468 13.8873 9.3253 13.5746 9.75384 13.5746H11.5459C15.0522 13.5746 17.7793 12.1678 18.5584 8.02555C18.5974 7.94739 18.5974 7.83016 18.6364 7.71293Z" fill="#012169"/>
<path d="M9.94864 7.752C9.98759 7.47846 10.3382 7.12675 10.6888 7.12675H15.4418C15.9872 7.12675 16.5326 7.16583 17.0001 7.24399C17.4286 7.32214 18.2078 7.51753 18.5974 7.752C18.8312 6.22796 18.5974 5.21192 17.7793 4.27405C16.9222 3.17986 15.2859 2.75 13.1822 2.75H7.14363C6.71509 2.75 6.36446 3.06263 6.28654 3.49248L3.75425 19.5145C3.71529 19.8272 3.94904 20.1007 4.26071 20.1007H8.00071L9.94864 7.752V7.752Z" fill="#003087"/>
</svg>
