<svg width="81" height="80" viewBox="0 0 81 80" fill="none" xmlns="http://www.w3.org/2000/svg">
<rect width="81" height="80" fill="#E4E4E4"/>
<path d="M-247 -353C-247 -354.104 -246.105 -355 -245 -355H8566C8567.1 -355 8568 -354.105 8568 -353V7384C8568 7385.1 8567.1 7386 8566 7386H-245C-246.105 7386 -247 7385.1 -247 7384V-353Z" fill="#F9F9F9"/>
<path d="M-245 -354H8566V-356H-245V-354ZM8567 -353V7384H8569V-353H8567ZM8566 7385H-245V7387H8566V7385ZM-246 7384V-353H-248V7384H-246ZM-245 7385C-245.552 7385 -246 7384.55 -246 7384H-248C-248 7385.66 -246.657 7387 -245 7387V7385ZM8567 7384C8567 7384.55 8566.55 7385 8566 7385V7387C8567.66 7387 8569 7385.66 8569 7384H8567ZM8566 -354C8566.55 -354 8567 -353.552 8567 -353H8569C8569 -354.657 8567.66 -356 8566 -356V-354ZM-245 -356C-246.657 -356 -248 -354.657 -248 -353H-246C-246 -353.552 -245.552 -354 -245 -354V-356Z" fill="black" fill-opacity="0.1"/>
<g clip-path="url(#clip0_936_16091)">
<rect width="375" height="812" transform="translate(-147 -120)" fill="white"/>
<circle cx="40.5" cy="40" r="40" fill="#E6E6FF"/>
<path d="M15.0454 66.152H66.5606V14.6368H15.0454V66.152Z" fill="black"/>
</g>
<defs>
<clipPath id="clip0_936_16091">
<rect width="375" height="812" fill="white" transform="translate(-147 -120)"/>
</clipPath>
</defs>
</svg>
