<svg width="18" height="18" viewBox="0 0 18 18" fill="none" xmlns="http://www.w3.org/2000/svg">
<path d="M4.0127 14.1799C4.0127 14.367 4.04955 14.5523 4.12117 14.7252C4.19278 14.8981 4.29774 15.0552 4.43007 15.1875C4.56239 15.3198 4.71948 15.4248 4.89237 15.4964C5.06526 15.568 5.25056 15.6049 5.4377 15.6049C5.62483 15.6049 5.81013 15.568 5.98302 15.4964C6.15591 15.4248 6.313 15.3198 6.44532 15.1875C6.57765 15.0552 6.68261 14.8981 6.75422 14.7252C6.82584 14.5523 6.8627 14.367 6.8627 14.1799C6.8627 13.9927 6.82584 13.8074 6.75422 13.6346C6.68261 13.4617 6.57765 13.3046 6.44532 13.1723C6.313 13.0399 6.15591 12.935 5.98302 12.8634C5.81013 12.7917 5.62483 12.7549 5.4377 12.7549C5.25056 12.7549 5.06526 12.7917 4.89237 12.8634C4.71948 12.935 4.56239 13.0399 4.43007 13.1723C4.29774 13.3046 4.19278 13.4617 4.12117 13.6346C4.04955 13.8074 4.0127 13.9927 4.0127 14.1799Z" fill="#393938"/>
<path d="M5.79395 10.6174C5.79395 10.8045 5.8308 10.9898 5.90242 11.1627C5.97403 11.3356 6.07899 11.4927 6.21132 11.625C6.34364 11.7573 6.50073 11.8623 6.67362 11.9339C6.84651 12.0055 7.03181 12.0424 7.21895 12.0424C7.40608 12.0424 7.59138 12.0055 7.76427 11.9339C7.93716 11.8623 8.09425 11.7573 8.22657 11.625C8.3589 11.4927 8.46386 11.3356 8.53547 11.1627C8.60709 10.9898 8.64395 10.8045 8.64395 10.6174C8.64395 10.4302 8.60709 10.2449 8.53547 10.0721C8.46386 9.89917 8.3589 9.74208 8.22657 9.60976C8.09425 9.47743 7.93716 9.37247 7.76427 9.30085C7.59138 9.22924 7.40608 9.19238 7.21895 9.19238C7.03181 9.19238 6.84651 9.22924 6.67362 9.30085C6.50073 9.37247 6.34364 9.47743 6.21132 9.60976C6.07899 9.74208 5.97403 9.89917 5.90242 10.0721C5.8308 10.2449 5.79395 10.4302 5.79395 10.6174Z" fill="#393938"/>
<path d="M9.35645 10.6174C9.35645 10.9953 9.50658 11.3578 9.77382 11.625C10.0411 11.8922 10.4035 12.0424 10.7814 12.0424C11.1594 12.0424 11.5218 11.8922 11.7891 11.625C12.0563 11.3578 12.2064 10.9953 12.2064 10.6174C12.2064 10.2394 12.0563 9.877 11.7891 9.60976C11.5218 9.34252 11.1594 9.19238 10.7814 9.19238C10.4035 9.19238 10.0411 9.34252 9.77382 9.60976C9.50658 9.877 9.35645 10.2394 9.35645 10.6174Z" fill="#393938"/>
<path d="M7.5752 14.1799C7.5752 14.367 7.61205 14.5523 7.68367 14.7252C7.75528 14.8981 7.86024 15.0552 7.99257 15.1875C8.12489 15.3198 8.28198 15.4248 8.45487 15.4964C8.62776 15.568 8.81306 15.6049 9.0002 15.6049C9.18733 15.6049 9.37263 15.568 9.54552 15.4964C9.71841 15.4248 9.8755 15.3198 10.0078 15.1875C10.1401 15.0552 10.2451 14.8981 10.3167 14.7252C10.3883 14.5523 10.4252 14.367 10.4252 14.1799C10.4252 13.8019 10.2751 13.4395 10.0078 13.1723C9.74058 12.905 9.37813 12.7549 9.0002 12.7549C8.62226 12.7549 8.25981 12.905 7.99257 13.1723C7.72533 13.4395 7.5752 13.8019 7.5752 14.1799Z" fill="#393938"/>
<path d="M7.5752 7.05488C7.5752 7.24202 7.61205 7.42732 7.68367 7.60021C7.75528 7.7731 7.86024 7.93019 7.99257 8.06251C8.12489 8.19483 8.28198 8.2998 8.45487 8.37141C8.62776 8.44302 8.81306 8.47988 9.0002 8.47988C9.18733 8.47988 9.37263 8.44302 9.54552 8.37141C9.71841 8.2998 9.8755 8.19483 10.0078 8.06251C10.1401 7.93019 10.2451 7.7731 10.3167 7.60021C10.3883 7.42732 10.4252 7.24202 10.4252 7.05488C10.4252 6.67695 10.2751 6.31449 10.0078 6.04726C9.74058 5.78002 9.37813 5.62988 9.0002 5.62988C8.62226 5.62988 8.25981 5.78002 7.99257 6.04726C7.72533 6.31449 7.5752 6.67695 7.5752 7.05488Z" fill="#393938"/>
<path d="M11.1377 14.1799C11.1377 14.367 11.1746 14.5523 11.2462 14.7252C11.3178 14.8981 11.4227 15.0552 11.5551 15.1875C11.6874 15.3198 11.8445 15.4248 12.0174 15.4964C12.1903 15.568 12.3756 15.6049 12.5627 15.6049C12.7498 15.6049 12.9351 15.568 13.108 15.4964C13.2809 15.4248 13.438 15.3198 13.5703 15.1875C13.7026 15.0552 13.8076 14.8981 13.8792 14.7252C13.9508 14.5523 13.9877 14.367 13.9877 14.1799C13.9877 13.9927 13.9508 13.8074 13.8792 13.6346C13.8076 13.4617 13.7026 13.3046 13.5703 13.1723C13.438 13.0399 13.2809 12.935 13.108 12.8634C12.9351 12.7917 12.7498 12.7549 12.5627 12.7549C12.3756 12.7549 12.1903 12.7917 12.0174 12.8634C11.8445 12.935 11.6874 13.0399 11.5551 13.1723C11.4227 13.3046 11.3178 13.4617 11.2462 13.6346C11.1746 13.8074 11.1377 13.9927 11.1377 14.1799Z" fill="#393938"/>
<path d="M17.4006 15.4914L10.2756 1.24136C10.1589 1.00043 9.97673 0.797244 9.7499 0.655074C9.52308 0.512904 9.2608 0.4375 8.9931 0.4375C8.72541 0.4375 8.46313 0.512904 8.2363 0.655074C8.00948 0.797244 7.82729 1.00043 7.7106 1.24136L0.585603 15.4914C0.480101 15.7094 0.431931 15.9508 0.445645 16.1926C0.459358 16.4345 0.534502 16.6689 0.663978 16.8736C0.79147 17.0803 0.969667 17.251 1.18165 17.3694C1.39364 17.4879 1.63239 17.5502 1.87523 17.5505H16.1252C16.3681 17.5502 16.6068 17.4879 16.8188 17.3694C17.0308 17.251 17.209 17.0803 17.3365 16.8736C17.4637 16.6676 17.5364 16.4326 17.5476 16.1908C17.5588 15.9489 17.5082 15.7082 17.4006 15.4914ZM15.8545 15.9545C15.8215 16.0061 15.7763 16.0487 15.7228 16.0785C15.6694 16.1084 15.6093 16.1245 15.5481 16.1255H2.45235C2.39113 16.1245 2.33111 16.1084 2.27764 16.0785C2.22418 16.0487 2.17894 16.0061 2.14598 15.9545C2.11596 15.9025 2.10016 15.8435 2.10016 15.7835C2.10016 15.7234 2.11596 15.6645 2.14598 15.6125L8.6796 2.53098C8.70878 2.47075 8.75432 2.41995 8.81103 2.38441C8.86773 2.34887 8.9333 2.33002 9.00023 2.33002C9.06715 2.33002 9.13272 2.34887 9.18943 2.38441C9.24613 2.41995 9.29168 2.47075 9.32085 2.53098L15.8687 15.6125C15.8966 15.6657 15.91 15.7254 15.9075 15.7854C15.905 15.8454 15.8867 15.9038 15.8545 15.9545Z" fill="#393938"/>
</svg>
