<svg width="115" height="116" viewBox="0 0 115 116" fill="none" xmlns="http://www.w3.org/2000/svg">
<path d="M57.7141 10.3807C31.476 10.3807 10.0951 31.7617 10.0951 57.9998C10.0951 84.2379 31.476 105.619 57.7141 105.619C83.9522 105.619 105.333 84.2379 105.333 57.9998C105.333 31.7617 83.9522 10.3807 57.7141 10.3807ZM80.476 47.0474L53.476 74.0474C52.8094 74.7141 51.9046 75.095 50.9522 75.095C49.9998 75.095 49.0951 74.7141 48.4284 74.0474L34.9522 60.5712C33.5713 59.1903 33.5713 56.9045 34.9522 55.5236C36.3332 54.1426 38.6189 54.1426 39.9998 55.5236L50.9522 66.476L75.4284 41.9998C76.8094 40.6188 79.0951 40.6188 80.476 41.9998C81.857 43.3807 81.857 45.6188 80.476 47.0474Z" fill="#23CA1F"/>
</svg>
