<svg width="18" height="18" viewBox="0 0 18 18" fill="none" xmlns="http://www.w3.org/2000/svg">
<path d="M3.70613 8.73654C3.68169 8.70909 3.64873 8.69065 3.61255 8.68419C3.57636 8.67773 3.53906 8.68362 3.50663 8.70092C3.47474 8.71674 3.44786 8.7411 3.42899 8.77129C3.41012 8.80148 3.4 8.83631 3.39975 8.87192C3.4558 9.82243 3.71324 10.7502 4.155 11.5937C4.19093 11.6613 4.20409 11.7387 4.19254 11.8145C4.18099 11.8902 4.14534 11.9602 4.09088 12.014L1.38338 14.7002C1.18496 14.9015 1.07373 15.1728 1.07373 15.4554C1.07373 15.7381 1.18496 16.0094 1.38338 16.2107L2.39513 17.2153C2.49225 17.3188 2.60912 17.4017 2.73884 17.4592C2.86856 17.5167 3.0085 17.5477 3.15038 17.5502C3.43358 17.5491 3.70495 17.4365 3.90563 17.2367L6.61313 14.5292C6.66646 14.4763 6.73514 14.4416 6.80935 14.4301C6.88357 14.4186 6.95953 14.4308 7.02638 14.465C7.87227 14.9082 8.80214 15.168 9.75525 15.2274C9.79222 15.2294 9.82895 15.2203 9.86071 15.2013C9.89246 15.1822 9.91777 15.1541 9.93338 15.1205C9.94755 15.0869 9.95104 15.0497 9.9434 15.0141C9.93575 14.9784 9.91733 14.9459 9.89063 14.921L3.70613 8.73654Z" fill="#393938"/>
<path d="M10.1544 1.69727H9.72685C9.67497 1.69945 9.62428 1.71342 9.5786 1.73811C9.53292 1.7628 9.49347 1.79756 9.46323 1.83977C9.43242 1.88113 9.41077 1.92856 9.39971 1.97893C9.38866 2.0293 9.38845 2.08144 9.3991 2.1319C9.45881 2.39375 9.48987 2.66132 9.49173 2.9299C9.49173 3.87473 9.11639 4.78086 8.44829 5.44896C7.78019 6.11706 6.87406 6.4924 5.92922 6.4924C5.34475 6.49434 4.7691 6.34982 4.25485 6.07202C4.20783 6.05077 4.15682 6.03979 4.10523 6.03979C4.05363 6.03979 4.00262 6.05077 3.9556 6.07202C3.90729 6.0898 3.86362 6.11826 3.82785 6.15527C3.79207 6.19228 3.76511 6.23689 3.74898 6.28577C3.68332 6.47484 3.62861 6.66754 3.5851 6.8629C3.56784 6.92292 3.56734 6.98654 3.58367 7.04683C3.6 7.10712 3.63253 7.16178 3.67773 7.2049L11.4297 14.9498C11.473 14.9925 11.5265 15.0235 11.5851 15.0397C11.6437 15.0559 11.7055 15.0568 11.7646 15.0424C13.3737 14.6504 14.7832 13.682 15.7263 12.3206C16.6695 10.9593 17.0808 9.29938 16.8824 7.65517C16.684 6.01095 15.8896 4.49652 14.6498 3.39856C13.4099 2.3006 11.8105 1.69531 10.1544 1.69727Z" fill="#393938"/>
<path d="M5.9293 5.4377C6.42251 5.4377 6.90465 5.29144 7.31475 5.01742C7.72485 4.74341 8.04448 4.35394 8.23322 3.89826C8.42197 3.44259 8.47135 2.94118 8.37513 2.45744C8.27891 1.9737 8.0414 1.52936 7.69264 1.1806C7.34389 0.831842 6.89954 0.594335 6.4158 0.498113C5.93206 0.401891 5.43065 0.451276 4.97498 0.640022C4.51931 0.828768 4.12984 1.1484 3.85582 1.55849C3.5818 1.96859 3.43555 2.45073 3.43555 2.94395C3.43555 3.60533 3.69828 4.23963 4.16595 4.70729C4.63362 5.17496 5.26791 5.4377 5.9293 5.4377ZM5.9293 1.8752C6.14068 1.8752 6.34731 1.93788 6.52306 2.05531C6.69882 2.17275 6.8358 2.33966 6.91669 2.53495C6.99758 2.73024 7.01875 2.94513 6.97751 3.15245C6.93627 3.35977 6.83448 3.5502 6.68502 3.69967C6.53555 3.84913 6.34512 3.95092 6.1378 3.99216C5.93048 4.0334 5.71559 4.01223 5.5203 3.93134C5.32502 3.85045 5.1581 3.71347 5.04066 3.53771C4.92323 3.36196 4.86055 3.15532 4.86055 2.94395C4.86055 2.6605 4.97315 2.38866 5.17358 2.18823C5.37401 1.9878 5.64585 1.8752 5.9293 1.8752Z" fill="#393938"/>
</svg>
