<svg width="25" height="24" viewBox="0 0 25 24" fill="none" xmlns="http://www.w3.org/2000/svg">
<path d="M16.9835 15.1099C17.0394 15.0002 17.052 14.8733 17.0186 14.7547C16.9852 14.6361 16.9084 14.5344 16.8035 14.4699C15.6901 13.7355 14.4589 13.1977 13.1635 12.8799C13.0773 12.8623 12.9881 12.8668 12.9041 12.8931C12.8202 12.9193 12.7442 12.9664 12.6835 13.0299C11.3431 14.4337 9.71306 15.5285 7.90664 16.2383C6.10023 16.9481 4.16085 17.2558 2.22345 17.1399C2.17813 17.139 2.13329 17.1495 2.0931 17.1705C2.0529 17.1915 2.01863 17.2222 1.99345 17.2599C1.97151 17.2979 1.95996 17.3411 1.95996 17.3849C1.95996 17.4288 1.97151 17.4719 1.99345 17.5099C2.81478 19.0769 3.97241 20.4428 5.38345 21.5099C5.59005 21.6636 5.84794 21.7317 6.10345 21.6999C10.5835 21.1899 15.0335 18.9999 16.9835 15.1099Z" fill="#393938"/>
<path d="M18.8633 16.1599C18.8097 16.1041 18.7439 16.0615 18.671 16.0355C18.5981 16.0094 18.5202 16.0007 18.4433 16.0099C18.3658 16.0176 18.2913 16.0445 18.2267 16.0882C18.1621 16.1318 18.1094 16.1908 18.0733 16.2599C17.0282 17.9477 15.6459 19.4015 14.0129 20.5303C12.38 21.6591 10.5315 22.4386 8.58332 22.8199C8.53139 22.835 8.48578 22.8666 8.45332 22.9099C8.42086 22.9532 8.40332 23.0058 8.40332 23.0599C8.40332 23.114 8.42086 23.1666 8.45332 23.2099C8.48578 23.2532 8.53139 23.2848 8.58332 23.2999C10.7422 24.0686 13.076 24.203 15.3088 23.6873C17.5417 23.1717 19.5802 22.0274 21.1833 20.3899C21.252 20.3202 21.2983 20.2315 21.3161 20.1352C21.3339 20.039 21.3225 19.9396 21.2833 19.8499C20.7195 18.4767 19.8981 17.2242 18.8633 16.1599Z" fill="#393938"/>
<path d="M24.3334 12.7799C21.5834 9.14994 17.4634 6.41994 13.1534 6.66994C13.0303 6.67487 12.9136 6.72597 12.8265 6.81306C12.7394 6.90016 12.6883 7.01686 12.6834 7.13994C12.609 8.46928 12.7612 9.80159 13.1334 11.0799C13.1562 11.1653 13.2017 11.2429 13.2651 11.3046C13.3285 11.3662 13.4074 11.4095 13.4934 11.4299C15.381 11.8864 17.1464 12.7492 18.6663 13.9582C20.1862 15.1672 21.424 16.6933 22.2934 18.4299C22.3136 18.4692 22.3435 18.5026 22.3802 18.5271C22.417 18.5516 22.4593 18.5664 22.5034 18.5699C22.5475 18.5721 22.5914 18.5621 22.6303 18.5409C22.6691 18.5198 22.7013 18.4883 22.7234 18.4499C23.6811 16.9566 24.2959 15.2694 24.5234 13.5099C24.5526 13.2515 24.4849 12.9913 24.3334 12.7799Z" fill="#393938"/>
<path d="M13.2032 4.99999C13.2487 5.06329 13.3088 5.11457 13.3785 5.14942C13.4482 5.18426 13.5253 5.20162 13.6032 5.19999C17.6032 5.14999 21.2432 7.19999 24.0032 10.1C24.0456 10.1301 24.0962 10.1463 24.1482 10.1463C24.2002 10.1463 24.2509 10.1301 24.2932 10.1C24.343 10.0766 24.3837 10.0375 24.409 9.98872C24.4343 9.93991 24.4428 9.88412 24.4332 9.82999C24.0143 7.57534 22.9581 5.48794 21.3896 3.81493C19.8212 2.14192 17.8062 0.953371 15.5832 0.389987C15.4884 0.365842 15.3887 0.370025 15.2962 0.402019C15.2038 0.434013 15.1228 0.492413 15.0632 0.569987C14.1528 1.74463 13.4741 3.08173 13.0632 4.50999C13.0405 4.59671 13.0415 4.68795 13.0661 4.77416C13.0907 4.86037 13.1381 4.93837 13.2032 4.99999Z" fill="#393938"/>
<path d="M8.39334 14.38C9.58124 13.7689 10.6593 12.9646 11.5833 12C11.6424 11.9347 11.6836 11.8553 11.7028 11.7694C11.7221 11.6836 11.7188 11.5942 11.6933 11.51C11.1526 9.64851 11.0228 7.6918 11.3129 5.77524C11.6029 3.85867 12.306 2.02802 13.3733 0.409956C13.3952 0.37012 13.4067 0.325406 13.4067 0.279955C13.4067 0.234505 13.3952 0.189791 13.3733 0.149955C13.358 0.10833 13.331 0.0720231 13.2955 0.0454094C13.26 0.0187956 13.2176 0.00301036 13.1733 -4.45191e-05C11.3982 -0.0770326 9.62827 0.244146 7.99334 0.939956C7.75649 1.03885 7.56673 1.22503 7.46334 1.45996C5.67334 5.63996 5.38334 10.59 7.75334 14.2C7.81941 14.3032 7.9211 14.3786 8.03909 14.4117C8.15708 14.4449 8.28314 14.4336 8.39334 14.38Z" fill="#393938"/>
<path d="M5.90308 15.3101C5.98043 15.2894 6.05169 15.2505 6.11085 15.1965C6.17002 15.1426 6.21537 15.0752 6.24308 15.0001C6.2775 14.9301 6.29539 14.8531 6.29539 14.7751C6.29539 14.6971 6.2775 14.6201 6.24308 14.5501C4.24308 11.1301 4.15308 6.94009 5.24308 3.10009C5.2603 3.04897 5.2598 2.99354 5.24166 2.94274C5.22352 2.89194 5.18879 2.84874 5.14308 2.82009C5.0992 2.7891 5.0468 2.77246 4.99308 2.77246C4.93936 2.77246 4.88696 2.7891 4.84308 2.82009C3.09905 4.30875 1.81804 6.26593 1.15168 8.45994C0.485325 10.654 0.461517 12.993 1.08308 15.2001C1.10679 15.2946 1.15871 15.3797 1.23195 15.444C1.30519 15.5083 1.39627 15.5488 1.49308 15.5601C2.96562 15.7575 4.46228 15.6727 5.90308 15.3101Z" fill="#393938"/>
</svg>
