<svg width="19" height="18" viewBox="0 0 19 18" fill="none" xmlns="http://www.w3.org/2000/svg">
<g clip-path="url(#clip0_8490_78188)">
<path d="M8.26685 0.0347402C6.25327 0.22251 4.28762 1.08924 2.7428 2.63318C1.19798 4.17668 0.332128 6.14233 0.144798 8.15855C2.35583 8.41492 4.70669 9.54506 6.63672 11.4751C8.56764 13.4056 9.69909 15.7582 9.95327 17.9675C11.9726 17.7801 13.9334 16.9138 15.4795 15.3708C17.0239 13.8277 17.8889 11.8612 18.0753 9.84541C15.8696 9.58948 13.5147 8.45934 11.5847 6.52886C9.656 4.59883 8.52454 2.24577 8.26685 0.0347402Z" fill="white"/>
<path d="M18.1114 8.7289C18.0459 6.51479 17.1699 4.32135 15.4822 2.63142C13.7935 0.94149 11.5975 0.0685999 9.38336 0C9.63225 1.93355 10.6591 4.01134 12.3802 5.73293C14.1014 7.45452 16.1765 8.47956 18.1114 8.7289Z" fill="white"/>
<path d="M0.111816 9.27418C0.176898 11.4874 1.05331 13.6813 2.7428 15.3703C4.43097 17.0585 6.62441 17.9358 8.83808 18C8.58918 16.0691 7.5637 13.9926 5.84167 12.271C4.12139 10.5503 2.04405 9.52483 0.111816 9.27418Z" fill="white"/>
</g>
<defs>
<clipPath id="clip0_8490_78188">
<rect width="18" height="18" fill="white" transform="translate(0.111328)"/>
</clipPath>
</defs>
</svg>
