<svg width="24" height="24" viewBox="0 0 24 24" fill="none" xmlns="http://www.w3.org/2000/svg">
<path d="M2.92984 5.23C4.53984 5.07 6.14984 4.95 7.76984 4.86V4.85L7.98984 3.55C8.13984 2.63 8.35984 1.25 10.6998 1.25H13.3198C15.6498 1.25 15.8698 2.57 16.0298 3.54L16.2398 4.82C17.1698 4.88 18.0998 4.94 19.0298 5.03L21.0698 5.23C21.4898 5.27 21.7898 5.64 21.7498 6.05C21.7098 6.46 21.3498 6.76 20.9298 6.72L18.8898 6.52C13.6498 6 8.36984 6.2 3.06984 6.73C3.03984 6.73 3.01984 6.73 2.98984 6.73C2.60984 6.73 2.27984 6.44 2.23984 6.05C2.20984 5.64 2.50984 5.27 2.92984 5.23Z" fill="#D40C0C"/>
<path d="M4.76976 8.14C5.00976 7.89 5.33976 7.75 5.67976 7.75H18.3198C18.6598 7.75 18.9998 7.89 19.2298 8.14C19.4598 8.39 19.5898 8.73 19.5698 9.08L18.9498 19.34C18.8398 20.86 18.6998 22.76 15.2098 22.76H8.78976C5.29976 22.76 5.15976 20.87 5.04976 19.34L4.42976 9.09C4.40976 8.73 4.53976 8.39 4.76976 8.14ZM10.3398 17.75H13.6698C14.0798 17.75 14.4198 17.41 14.4198 17C14.4198 16.59 14.0798 16.25 13.6698 16.25H10.3398C9.92976 16.25 9.58976 16.59 9.58976 17C9.58976 17.41 9.92976 17.75 10.3398 17.75ZM9.49976 13.75H14.4998C14.9098 13.75 15.2498 13.41 15.2498 13C15.2498 12.59 14.9098 12.25 14.4998 12.25H9.49976C9.08976 12.25 8.74976 12.59 8.74976 13C8.74976 13.41 9.08976 13.75 9.49976 13.75Z" fill="#D40C0C"/>
</svg>
