<svg width="20" height="20" viewBox="0 0 20 20" fill="none" xmlns="http://www.w3.org/2000/svg">
<path d="M17.7977 3.66621C17.5363 3.49117 17.2167 3.42546 16.9075 3.48317C16.5982 3.54088 16.3238 3.71742 16.1432 3.97496L12.1848 9.51663C12.1535 9.55739 12.1085 9.5855 12.0582 9.59579C12.01 9.61559 11.9559 9.61559 11.9077 9.59579L9.00232 7.38704C8.96343 7.35713 8.93703 7.31384 8.92826 7.26557C8.91948 7.21729 8.92894 7.16748 8.95482 7.12579L9.20815 6.64288C9.29043 6.50948 9.40779 6.40127 9.54741 6.33007C9.68703 6.25886 9.84353 6.2274 9.99982 6.23913C10.8426 6.22667 11.6468 5.88363 12.2392 5.28391C12.8315 4.68419 13.1645 3.87579 13.1665 3.03288V2.24121C13.1665 1.92627 13.0414 1.62422 12.8187 1.40152C12.596 1.17882 12.2939 1.05371 11.979 1.05371C11.664 1.05371 11.362 1.17882 11.1393 1.40152C10.9166 1.62422 10.7915 1.92627 10.7915 2.24121V3.03288C10.7916 3.14026 10.7699 3.24654 10.7277 3.34527C10.6854 3.44399 10.6236 3.53309 10.5458 3.60714C10.468 3.6812 10.376 3.73866 10.2754 3.77603C10.1747 3.81341 10.0675 3.82991 9.96023 3.82454C9.40334 3.82787 8.85682 3.97548 8.37398 4.25298C7.89114 4.53047 7.48846 4.92838 7.20523 5.40788L5.09148 8.96246C4.61893 9.74772 4.46793 10.6852 4.67003 11.5791C4.87212 12.473 5.41168 13.2543 6.17607 13.76L6.6669 14.0845C6.79582 14.1842 6.94387 14.2563 7.10185 14.2963C7.25983 14.3363 7.42435 14.3434 7.58518 14.317C7.746 14.2907 7.89968 14.2315 8.03666 14.1433C8.17363 14.055 8.29097 13.9394 8.38137 13.8038C8.47176 13.6682 8.53328 13.5155 8.5621 13.3551C8.59091 13.1947 8.5864 13.0301 8.54885 12.8715C8.5113 12.7129 8.44152 12.5638 8.34384 12.4333C8.24615 12.3029 8.12267 12.194 7.98107 12.1133L7.49023 11.7808C7.23972 11.6126 7.06265 11.3552 6.99501 11.0612C6.92736 10.7671 6.97423 10.4582 7.12607 10.1975L7.5219 9.53246C7.5409 9.4838 7.57769 9.44417 7.62482 9.42163C7.64966 9.41024 7.67666 9.40435 7.70398 9.40435C7.73131 9.40435 7.75831 9.41024 7.78315 9.42163L11.0765 11.8916C11.1011 11.9101 11.121 11.934 11.1348 11.9614C11.1485 11.9889 11.1557 12.0192 11.1557 12.05V17.6866C11.1557 18.0016 11.2808 18.3036 11.5035 18.5263C11.7262 18.749 12.0282 18.8741 12.3432 18.8741C12.6581 18.8741 12.9601 18.749 13.1828 18.5263C13.4055 18.3036 13.5307 18.0016 13.5307 17.6866V11.8283C13.5307 11.7855 13.5445 11.7438 13.5702 11.7095L18.1065 5.32871C18.1954 5.19929 18.258 5.05361 18.2906 4.90001C18.3232 4.74641 18.3252 4.58788 18.2965 4.4335C18.2679 4.27911 18.209 4.13189 18.1235 4.00023C18.0379 3.86858 17.9272 3.75508 17.7977 3.66621Z" fill="#393938"/>
<path d="M1.6875 5.05143C1.6875 5.31134 1.73869 5.5687 1.83816 5.80883C1.93762 6.04895 2.0834 6.26713 2.26718 6.45091C2.45097 6.6347 2.66915 6.78048 2.90927 6.87994C3.1494 6.97941 3.40676 7.0306 3.66667 7.0306C3.92657 7.0306 4.18394 6.97941 4.42406 6.87994C4.66418 6.78048 4.88237 6.6347 5.06615 6.45091C5.24993 6.26713 5.39572 6.04895 5.49518 5.80883C5.59464 5.5687 5.64583 5.31134 5.64583 5.05143C5.64583 4.79152 5.59464 4.53416 5.49518 4.29404C5.39572 4.05391 5.24993 3.83573 5.06615 3.65195C4.88237 3.46817 4.66418 3.32238 4.42406 3.22292C4.18394 3.12346 3.92657 3.07227 3.66667 3.07227C3.40676 3.07227 3.1494 3.12346 2.90927 3.22292C2.66915 3.32238 2.45097 3.46817 2.26718 3.65195C2.0834 3.83573 1.93762 4.05391 1.83816 4.29404C1.73869 4.53416 1.6875 4.79152 1.6875 5.05143Z" fill="#393938"/>
</svg>
