<svg width="24" height="25" viewBox="0 0 24 25" fill="none" xmlns="http://www.w3.org/2000/svg">
<rect width="24" height="25" fill="#E4E4E4"/>
<path d="M-142 -544C-142 -545.104 -141.105 -546 -140 -546H8671C8672.1 -546 8673 -545.105 8673 -544V7193C8673 7194.1 8672.1 7195 8671 7195H-140C-141.105 7195 -142 7194.1 -142 7193V-544Z" fill="#F9F9F9"/>
<path d="M-140 -545H8671V-547H-140V-545ZM8672 -544V7193H8674V-544H8672ZM8671 7194H-140V7196H8671V7194ZM-141 7193V-544H-143V7193H-141ZM-140 7194C-140.552 7194 -141 7193.55 -141 7193H-143C-143 7194.66 -141.657 7196 -140 7196V7194ZM8672 7193C8672 7193.55 8671.55 7194 8671 7194V7196C8672.66 7196 8674 7194.66 8674 7193H8672ZM8671 -545C8671.55 -545 8672 -544.552 8672 -544H8674C8674 -545.657 8672.66 -547 8671 -547V-545ZM-140 -547C-141.657 -547 -143 -545.657 -143 -544H-141C-141 -544.552 -140.552 -545 -140 -545V-547Z" fill="black" fill-opacity="0.1"/>
<g clip-path="url(#clip0_936_16091)">
<rect width="375" height="812" transform="translate(-42 -311)" fill="white"/>
<g filter="url(#filter0_d_936_16091)">
<rect x="-26" y="-19" width="343" height="63" rx="10" fill="white" shape-rendering="crispEdges"/>
<rect x="-10" y="-9.5" width="44" height="44" rx="22" fill="#F9F2F1"/>
<path d="M22 12.5C22 6.99 17.51 2.5 12 2.5C6.49 2.5 2 6.99 2 12.5C2 15.4 3.25 18.01 5.23 19.84C5.23 19.85 5.23 19.85 5.22 19.86C5.32 19.96 5.44 20.04 5.54 20.13C5.6 20.18 5.65 20.23 5.71 20.27C5.89 20.42 6.09 20.56 6.28 20.7C6.35 20.75 6.41 20.79 6.48 20.84C6.67 20.97 6.87 21.09 7.08 21.2C7.15 21.24 7.23 21.29 7.3 21.33C7.5 21.44 7.71 21.54 7.93 21.63C8.01 21.67 8.09 21.71 8.17 21.74C8.39 21.83 8.61 21.91 8.83 21.98C8.91 22.01 8.99 22.04 9.07 22.06C9.31 22.13 9.55 22.19 9.79 22.25C9.86 22.27 9.93 22.29 10.01 22.3C10.29 22.36 10.57 22.4 10.86 22.43C10.9 22.43 10.94 22.44 10.98 22.45C11.32 22.48 11.66 22.5 12 22.5C12.34 22.5 12.68 22.48 13.01 22.45C13.05 22.45 13.09 22.44 13.13 22.43C13.42 22.4 13.7 22.36 13.98 22.3C14.05 22.29 14.12 22.26 14.2 22.25C14.44 22.19 14.69 22.14 14.92 22.06C15 22.03 15.08 22 15.16 21.98C15.38 21.9 15.61 21.83 15.82 21.74C15.9 21.71 15.98 21.67 16.06 21.63C16.27 21.54 16.48 21.44 16.69 21.33C16.77 21.29 16.84 21.24 16.91 21.2C17.11 21.08 17.31 20.97 17.51 20.84C17.58 20.8 17.64 20.75 17.71 20.7C17.91 20.56 18.1 20.42 18.28 20.27C18.34 20.22 18.39 20.17 18.45 20.13C18.56 20.04 18.67 19.95 18.77 19.86C18.77 19.85 18.77 19.85 18.76 19.84C20.75 18.01 22 15.4 22 12.5ZM16.94 17.47C14.23 15.65 9.79 15.65 7.06 17.47C6.62 17.76 6.26 18.1 5.96 18.47C4.44 16.93 3.5 14.82 3.5 12.5C3.5 7.81 7.31 4 12 4C16.69 4 20.5 7.81 20.5 12.5C20.5 14.82 19.56 16.93 18.04 18.47C17.75 18.1 17.38 17.76 16.94 17.47Z" fill="#2D0D02"/>
<path d="M12 7.42969C9.93 7.42969 8.25 9.10969 8.25 11.1797C8.25 13.2097 9.84 14.8597 11.95 14.9197C11.98 14.9197 12.02 14.9197 12.04 14.9197C12.06 14.9197 12.09 14.9197 12.11 14.9197C12.12 14.9197 12.13 14.9197 12.13 14.9197C14.15 14.8497 15.74 13.2097 15.75 11.1797C15.75 9.10969 14.07 7.42969 12 7.42969Z" fill="#2D0D02"/>
</g>
</g>
<defs>
<filter id="filter0_d_936_16091" x="-59" y="-51" width="409" height="129" filterUnits="userSpaceOnUse" color-interpolation-filters="sRGB">
<feFlood flood-opacity="0" result="BackgroundImageFix"/>
<feColorMatrix in="SourceAlpha" type="matrix" values="0 0 0 0 0 0 0 0 0 0 0 0 0 0 0 0 0 0 127 0" result="hardAlpha"/>
<feOffset dy="1"/>
<feGaussianBlur stdDeviation="16.5"/>
<feComposite in2="hardAlpha" operator="out"/>
<feColorMatrix type="matrix" values="0 0 0 0 0 0 0 0 0 0 0 0 0 0 0 0 0 0 0.03 0"/>
<feBlend mode="normal" in2="BackgroundImageFix" result="effect1_dropShadow_936_16091"/>
<feBlend mode="normal" in="SourceGraphic" in2="effect1_dropShadow_936_16091" result="shape"/>
</filter>
<clipPath id="clip0_936_16091">
<rect width="375" height="812" fill="white" transform="translate(-42 -311)"/>
</clipPath>
</defs>
</svg>
