<svg width="19" height="18" viewBox="0 0 19 18" fill="none" xmlns="http://www.w3.org/2000/svg">
<g clip-path="url(#clip0_8490_78192)">
<path d="M7.46623 4.22934C7.46623 2.43999 8.11103 0.957239 8.62687 0.0572388C7.42829 0.19586 6.30087 0.570731 5.2922 1.13415C2.72973 5.81843 5.06435 10.1323 6.50217 12.1092C7.98721 11.0978 8.77727 9.65391 9.05198 9.07011C8.58166 8.406 7.46623 6.58287 7.46623 4.22934Z" fill="white"/>
<path d="M9.93282 0.000976562C9.58629 0.49341 8.73558 1.86095 8.56718 3.62151C10.6588 3.41282 12.6728 3.64615 14.4274 4.3048C16.0187 4.90214 17.3673 5.82405 18.4566 7.0549C17.5843 3.10591 14.1114 0.122582 9.93282 0.000976562Z" fill="white"/>
<path d="M8.55526 4.70082C8.68794 6.50131 9.54287 7.9013 9.91141 8.42854C10.7209 8.35323 12.8585 8.29825 14.8976 9.47552C16.4469 10.37 17.4084 11.6694 17.93 12.5661C18.3863 11.5137 18.647 10.3578 18.6665 9.14421C15.8912 4.5797 10.9866 4.44393 8.55526 4.70082Z" fill="white"/>
<path d="M10.0383 9.49349C9.69883 10.2322 8.67765 12.1109 6.63852 13.2882C5.09097 14.1816 3.48665 14.3653 2.44916 14.369C3.15161 15.3105 4.03379 16.1104 5.04429 16.7177C10.3827 16.5948 12.9517 12.4164 13.9447 10.1829C12.3191 9.39758 10.6793 9.43798 10.0383 9.49349Z" fill="white"/>
<path d="M14.8735 10.7329C14.0084 12.6487 12.7993 14.2762 11.3517 15.4664C10.0386 16.5459 8.56587 17.2529 6.95522 17.5807C7.81152 17.8519 8.72263 17.9986 9.66745 17.9986C12.8985 17.9986 15.7369 16.287 17.3249 13.7232C17.0705 13.1749 16.3116 11.7574 14.8735 10.7329Z" fill="white"/>
<path d="M3.22335 7.22188C2.94558 5.54851 3.06859 3.92282 3.58729 2.36698C1.79312 4.01349 0.666504 6.37637 0.666504 8.99769C0.666504 10.5413 1.0573 11.9954 1.74485 13.2663C2.34578 13.3202 3.95414 13.3724 5.5617 12.6386C4.33513 10.9316 3.53023 9.07075 3.22335 7.22188Z" fill="white"/>
</g>
<defs>
<clipPath id="clip0_8490_78192">
<rect width="18" height="18" fill="white" transform="translate(0.666504)"/>
</clipPath>
</defs>
</svg>
